<svg width="158" height="410" viewBox="0 0 158 410" fill="none" xmlns="http://www.w3.org/2000/svg">
<path d="M91 266C91 262.686 93.6863 260 97 260C100.314 260 103 262.686 103 266V385.949C103 397.392 93.8377 406.729 82.3962 406.945L79.4739 407C74.0589 406.983 70.3056 401.583 72.1831 396.499L89.3286 350.063C90.4341 347.069 91 343.902 91 340.711V266Z" fill="#FFFCF3" stroke="#0B21E3" stroke-width="6"/>
<path d="M67 136C67 134.343 68.3431 133 70 133H88C89.6569 133 91 134.343 91 136V395C91 401.627 85.6274 407 79 407C72.3726 407 67 401.627 67 395V136Z" fill="#FFFCF3" stroke="#0B21E3" stroke-width="6"/>
<path d="M124 174C124 177 130 177 130 174C130 171 130 198 130 198C130 198 130 195.5 127 195.5C124 195.5 124 198 124 198C124 198 124 171 124 174Z" fill="#FFFCF3"/>
<path d="M3 30C3 15.0883 15.0883 3 30 3H91.5747C98.1978 3 104.59 5.43441 109.535 9.84019L145.961 42.2919C151.711 47.415 155 54.7501 155 62.4517V243.039C155 255.022 147.102 265.572 135.603 268.946L115.292 274.907C112.823 275.632 110.262 276 107.689 276H30C15.0883 276 3 263.912 3 249V30Z" fill="#FFFCF3" stroke="#0B21E3" stroke-width="6"/>
<path d="M3 30C3 15.0883 15.0883 3 30 3H59.2201C65.2593 3 71.1242 5.02472 75.8772 8.75049L120.657 43.8526C127.186 48.9706 131 56.8061 131 65.1021V249C131 263.912 118.912 276 104 276H30C15.0883 276 3 263.912 3 249V30Z" fill="#FFFCF3" stroke="#0B21E3" stroke-width="6"/>
<path d="M128 199.233C128 202.233 134 202.233 134 199.233C134 196.233 134 223.233 134 223.233C134 223.233 134 220.733 131 220.733C128 220.733 128 223.233 128 223.233C128 223.233 128 196.233 128 199.233Z" fill="#FFFCF3"/>
</svg>
