<svg width="158" height="410" viewBox="0 0 158 410" fill="none" xmlns="http://www.w3.org/2000/svg">
<path d="M67 266C67 262.686 64.3137 260 61 260C57.6863 260 55 262.686 55 266V385.949C55 397.392 64.1623 406.729 75.6038 406.945L78.5261 407C83.9411 406.983 87.6944 401.583 85.8169 396.499L68.6714 350.063C67.5659 347.069 67 343.902 67 340.711V266Z" fill="#FFFCF3" stroke="#0B21E3" stroke-width="6"/>
<path d="M91 136C91 134.343 89.6569 133 88 133H70C68.3431 133 67 134.343 67 136V395C67 401.627 72.3726 407 79 407C85.6274 407 91 401.627 91 395V136Z" fill="#FFFCF3" stroke="#0B21E3" stroke-width="6"/>
<path d="M34 174C34 177 28 177 28 174C28 171 28 198 28 198C28 198 28 195.5 31 195.5C34 195.5 34 198 34 198C34 198 34 171 34 174Z" fill="#FFFCF3"/>
<path d="M155 30C155 15.0883 142.912 3 128 3H66.4253C59.8022 3 53.41 5.43441 48.4648 9.84019L12.0394 42.2919C6.28896 47.415 3 54.7501 3 62.4517V243.039C3 255.022 10.8984 265.572 22.3968 268.946L42.708 274.907C45.1774 275.632 47.7377 276 50.3113 276H128C142.912 276 155 263.912 155 249V30Z" fill="#FFFCF3" stroke="#0B21E3" stroke-width="6"/>
<path d="M155 30C155 15.0883 142.912 3 128 3H98.7799C92.7407 3 86.8758 5.02472 82.1228 8.75049L37.3429 43.8526C30.8138 48.9706 27 56.8061 27 65.1021V249C27 263.912 39.0883 276 54 276H128C142.912 276 155 263.912 155 249V30Z" fill="#FFFCF3" stroke="#0B21E3" stroke-width="6"/>
</svg>
