<svg width="306" height="414" viewBox="0 0 306 414" fill="none" xmlns="http://www.w3.org/2000/svg">
<path d="M3 107.05V50.1316C3 48.9926 3.59802 48.1637 4.41064 47.8351C15.3211 43.4227 57.1878 29.5932 152.487 30.0093C247.586 30.4246 290.207 43.6373 301.502 47.899C302.367 48.2251 303 49.0862 303 50.2603V107.018C303 108.355 302.129 109.462 300.917 109.774C285.643 113.709 230.264 126.432 152.497 126.5C74.7849 126.568 20.1444 113.769 5.06134 109.796C3.86099 109.479 3 108.379 3 107.05Z" fill="#FFFCF3" stroke="#0B21E3" stroke-width="6"/>
<path d="M303 51.3556V105.378C303 106.517 302.402 107.346 301.589 107.674C290.679 112.087 248.812 125.916 153.513 125.5C58.4137 125.085 15.7925 111.872 4.49766 107.61C3.63337 107.284 3 106.423 3 105.249V51.354C3 49.4255 4.73772 47.9987 6.60241 48.3573C29.4983 52.7604 102.754 66.0447 153.503 66C203.892 65.9556 276.599 52.7491 299.398 48.3589C301.262 48 303 49.4261 303 51.3556Z" fill="#FFFCF3" stroke="#0B21E3" stroke-width="6"/>
<path d="M266.937 121.416L232.679 382.945C232.625 383.356 232.518 383.598 232.408 383.756C229.328 388.162 210.145 411.952 153.485 410.501C97.3993 409.064 77.2425 388.032 73.6343 383.662C73.4834 383.479 73.3404 383.19 73.2733 382.727L35.1309 120.071C34.8383 118.056 36.5545 116.334 38.5562 116.61C58.2076 119.328 110.452 126 150 126C205.685 126 246.519 120.566 263.238 117.893C265.363 117.554 267.205 119.377 266.937 121.416Z" fill="#FFFCF3" stroke="#0B21E3" stroke-width="6"/>
<path d="M46 40.5502V14.5509C46 13.3003 46.7294 12.4003 47.6841 12.1325C57.3542 9.41942 87.6358 2.79377 152.132 3.00493C216.531 3.21577 247.289 9.57528 257.23 12.1881C258.236 12.4525 259 13.3876 259 14.6644V40.5234C259 41.9469 258.034 43.0888 256.735 43.331C243.916 45.7216 205.354 51.9648 152.14 51.9999C98.9824 52.035 60.9145 45.7615 48.2441 43.3481C46.9571 43.103 46 41.9689 46 40.5502Z" fill="#FFFCF3" stroke="#0B21E3" stroke-width="6"/>
<g clip-path="url(#clip0_1251_646)">
<path d="M102.723 257.118L119.38 250.884L120.646 254.293C112.756 261.209 111.198 262.476 110.516 263.06C112.464 262.183 114.899 261.209 117.627 260.235L122.205 258.482L123.179 261.112L106.522 267.346L105.353 264.131C113.828 256.923 115.386 255.559 116.068 255.072C114.022 255.949 111.587 256.923 108.665 257.995L103.794 259.845L102.723 257.118Z" fill="#0B21E3"/>
<path d="M127.076 278.256C122.497 282.932 119.283 283.711 116.36 280.886C113.633 278.159 114.217 274.944 118.796 270.171C123.374 265.398 126.589 265.203 129.316 267.833C132.141 270.561 131.459 273.873 127.076 278.256ZM121.231 272.411C118.309 275.431 117.042 277.672 118.309 279.035C119.575 280.399 121.718 279.133 124.835 276.016C127.757 273.093 128.829 271.145 127.368 269.781C125.907 268.418 123.958 269.586 121.231 272.411Z" fill="#0B21E3"/>
<path d="M136.037 284.49L133.505 291.601L130.485 290.53L136.427 273.775L141.59 275.626C144.61 276.697 145.779 278.938 144.707 281.86C143.83 284.296 142.174 284.88 141.2 284.88C142.272 285.952 142.467 287.315 141.59 289.751L141.395 290.433C140.908 291.601 140.616 292.77 140.421 294.037L137.499 292.965C137.693 291.699 137.986 290.53 138.473 289.361L138.668 288.777C139.447 286.536 139.252 285.562 137.304 284.88L136.037 284.49ZM136.914 282.055L138.375 282.542C140.226 283.224 141.2 282.64 141.785 280.984C142.369 279.912 141.98 278.646 140.908 278.061C140.713 277.964 140.518 277.866 140.421 277.866L138.668 277.282L136.914 282.055Z" fill="#0B21E3"/>
<path d="M162.046 287.51C161.657 284.49 161.17 281.081 160.975 279.035H160.877C160.78 282.445 160.585 288.582 160.293 294.426L157.468 294.816C155.812 289.653 153.961 283.419 152.89 280.107H152.792C153.182 282.153 153.766 285.854 154.253 288.874L155.13 295.108L152.208 295.498L149.675 277.866L154.351 277.185C156.007 281.958 157.468 286.731 158.15 289.264C158.15 286.828 158.54 281.373 158.832 276.6L163.41 275.918L165.943 293.55L162.923 293.939L162.046 287.51Z" fill="#0B21E3"/>
<path d="M175.781 284.101L177.535 288.29L174.905 290.043L168.475 272.899L171.885 270.658L185.23 283.127L182.405 284.978L179.191 281.763L175.781 284.101ZM177.243 279.815C174.807 277.379 172.956 275.529 171.787 274.262H171.69C172.469 275.723 173.443 278.256 174.71 281.373L177.243 279.815Z" fill="#0B21E3"/>
<path d="M177.145 265.982L178.899 263.352L191.465 271.73L194.874 266.664L197.017 268.418L192.049 275.918L177.145 265.982Z" fill="#0B21E3"/>
<path d="M152.5 318C113.048 318 81 285.952 81 246.5C81 207.048 113.048 175 152.5 175C191.952 175 224 207.048 224 246.5C223.903 285.952 191.952 317.903 152.5 318ZM152.5 178.409C114.899 178.409 84.4094 208.899 84.4094 246.5C84.4094 284.101 114.899 314.591 152.5 314.591C190.101 314.591 220.591 284.101 220.591 246.5C220.493 208.899 190.003 178.507 152.5 178.409Z" fill="#0B21E3"/>
<path d="M173.931 222.05C171.106 209.289 163.41 200.619 156.591 202.08C152.013 203.054 149.091 208.412 148.506 215.621C144.902 209.386 139.934 205.879 135.356 206.853C128.439 208.412 125.322 219.614 128.147 232.278C129.219 237.733 131.557 242.798 134.966 247.182C137.791 250.591 140.908 252.442 143.928 252.442C144.512 252.442 144.999 252.345 145.584 252.247C150.065 251.176 152.987 245.915 153.669 238.707C154.448 239.973 155.228 241.24 156.202 242.409C159.027 245.818 162.144 247.669 165.163 247.669C165.748 247.669 166.235 247.571 166.819 247.474C170.326 246.695 172.956 243.48 174.223 238.415C175.392 233.057 175.294 227.407 173.931 222.05ZM157.371 205.49C157.663 205.392 157.955 205.392 158.247 205.392C162.339 205.392 167.696 211.334 170.326 221.173L152.5 225.167C150.454 214.452 153.279 206.366 157.371 205.49ZM136.135 210.263C136.427 210.165 136.719 210.165 137.012 210.165C141.103 210.165 146.46 216.108 149.091 225.946L131.264 229.94C129.219 219.127 132.044 211.14 136.135 210.263ZM144.902 249.033C142.759 249.52 140.129 248.059 137.693 245.136C137.012 244.259 136.33 243.383 135.745 242.409C137.401 243.578 139.544 243.772 141.395 242.993C144.61 241.629 145.876 237.636 144.415 234.129C143.928 232.96 143.148 231.888 142.077 231.109L149.772 229.356C151.721 239.973 148.993 248.059 144.902 249.033ZM170.911 237.538C169.937 241.24 168.183 243.675 166.04 244.162C163.897 244.649 161.267 243.188 158.832 240.266C158.15 239.389 157.468 238.415 156.884 237.441C158.54 238.61 160.78 238.902 162.631 238.123C165.845 236.759 167.209 232.765 165.651 229.258C165.163 228.089 164.287 227.018 163.313 226.141L170.911 224.388C171.885 228.771 171.787 233.252 170.911 237.538Z" fill="#0B21E3"/>
<path d="M199.07 258.313C200.987 255.79 200.485 252.182 197.948 250.255C195.411 248.327 191.8 248.81 189.883 251.333C187.966 253.856 188.469 257.464 191.005 259.392C193.542 261.32 197.153 260.837 199.07 258.313Z" stroke="#0B21E3" stroke-width="2"/>
<path d="M195.354 257.235L191.88 254.596L192.772 253.422C192.978 253.15 193.194 252.963 193.419 252.859C193.643 252.754 193.867 252.721 194.091 252.759C194.315 252.798 194.529 252.895 194.734 253.05C194.939 253.206 195.089 253.386 195.183 253.59C195.278 253.794 195.305 254.017 195.264 254.258C195.222 254.499 195.099 254.754 194.894 255.023L194.172 255.974L193.792 255.685L194.504 254.748C194.645 254.563 194.731 254.393 194.763 254.239C194.795 254.083 194.781 253.942 194.72 253.816C194.659 253.687 194.559 253.57 194.42 253.464C194.281 253.359 194.139 253.292 193.996 253.265C193.852 253.238 193.709 253.26 193.565 253.331C193.421 253.402 193.277 253.531 193.135 253.719L192.573 254.458L195.674 256.815L195.354 257.235ZM195.036 254.414L197.246 254.745L196.875 255.234L194.675 254.889L195.036 254.414Z" fill="#0B21E3"/>
</g>
<defs>
<clipPath id="clip0_1251_646">
<rect width="143" height="143" fill="white" transform="translate(81 175)"/>
</clipPath>
</defs>
</svg>
