<svg xmlns="http://www.w3.org/2000/svg" viewBox="0 0 528.46 499.11" width="27" height="33">
    <path d="M374.58,251.93c-0.01-0.05-0.01-0.09-0.02-0.14c-0.2-1.36-0.47-2.7-0.82-4.01c-0.05-0.19-0.09-0.38-0.14-0.56
        c-0.36-1.27-0.78-2.51-1.29-3.71c-0.27-0.67-0.61-1.31-0.92-1.96c-0.2-0.39-0.38-0.79-0.59-1.18c-3.04-5.73-7.64-10.61-13.49-13.9
        l-0.03-0.01c-0.12-0.07-0.24-0.13-0.36-0.18c-2.62-1.25-5.93-2.66-9.46-4.1c9.88-6.39,16.43-17.47,16.43-30.11
        c0-15.81-10.25-29.21-24.45-33.97c1.25-1.06,2.46-2.16,3.55-3.39c0.05,0.02,0.09,0.04,0.14,0.06c2.58-2.91,4.67-6.26,6.14-9.9
        c7.12-17.58-1.39-37.67-18.97-44.79l-0.76-0.31c-4.98-1.92-34.07-13.11-34.07-13.11c-9.93-3.88-16.35-13.28-16.35-23.95
        c0-3.41,0.66-6.72,1.97-9.86l1.98-4.76l-5.05-1.03c-3.06-0.62-6.2-0.94-9.33-0.94c-25.66,0-46.53,20.87-46.53,46.53
        c0,10.96,3.91,21.33,10.58,29.48c-2.51,0.35-4.92,0.98-7.22,1.84c0,0-0.02-0.03-0.03-0.04c-0.19,0.07-0.36,0.18-0.55,0.26
        c-1.38,0.55-2.72,1.17-4.01,1.89c-0.1,0.05-0.19,0.11-0.29,0.17c-10.37,5.88-17.38,16.98-17.38,29.75c0,1.82,0.19,3.6,0.47,5.35
        c0.02,0.1,0.04,0.21,0.05,0.31c0.28,1.67,0.66,3.3,1.17,4.88c0.02,0.06,0.03,0.13,0.06,0.19c0.5,1.5,1.09,2.94,1.78,4.34
        c0.24,0.5,0.53,0.98,0.79,1.47c0.42,0.76,0.86,1.49,1.34,2.21c0.44,0.68,0.89,1.36,1.37,2.01c0.02,0.03,0.05,0.06,0.07,0.09
        c1.44,1.89,3.1,3.61,4.91,5.17l0,0c-2.68,0.44-5.24,1.22-7.68,2.24c-0.05-0.05-0.1-0.09-0.15-0.14c-2.07,0.91-3.99,2.08-5.83,3.36
        c-0.29,0.2-0.57,0.41-0.85,0.62c-0.79,0.59-1.57,1.17-2.3,1.82c-0.95,0.82-1.84,1.69-2.7,2.61c-0.09,0.1-0.19,0.2-0.28,0.3
        c-5.51,6.07-8.89,14.1-8.89,22.94c0,11.01,5.22,20.78,13.29,27.04c-11.9,5.37-20.19,17.3-20.19,31.2
        c0,10.82,5.03,20.45,12.87,26.73l9.71,74.12l23.63,7.29l12.58,116.77h87.24l12.58-116.77l23.63-7.29l9.59-73.22l0.22-1.68
        c-0.88-7.31-7.5-11.37-13.71-13.87c9.14-5.4,15.53-14.86,16.65-25.95c0-0.05,0.01-0.1,0.01-0.14c0.11-1.1,0.24-2.19,0.24-3.32
        C374.94,255.06,374.79,253.48,374.58,251.93z M318.12,490.43h-72.01l-11.56-107.27h95.12L318.12,490.43z M362.09,308.43
        l-7.85,59.92l-20.48,6.32H230.47l-20.48-6.32l-7.85-59.92H362.09z"/>
</svg>
