<?xml version="1.0" encoding="UTF-8"?>
<svg id="Layer_1" xmlns="http://www.w3.org/2000/svg" version="1.1" viewBox="0 0 909 620">
  <defs>
    <style>
      .st0, .st1 {
        fill: #0b21e3;
      }

      .st2 {
        fill: none;
        stroke-width: 14px;
      }

      .st2, .st1 {
        stroke: #0b21e3;
      }
    </style>
  </defs>
  <path class="st2" d="M92.5,275.6c14.9,2.7,31.3,16.4,44.3,37.5l-.7.8c-10.9-16.8-24.7-30.3-41.1-33.3-18.3-3.3-36.5,2.4-51.4,19.8-7.5,8.7-14,22-19.4,36-5.4,14.2-9.7,29.9-12.5,44-5.5,28.4-5.8,59.3-.7,88,2.5,14.2,6.3,29.9,11.2,44.1,4.8,14.1,10.9,27.5,18.2,36.6,14,17.5,32.5,28,51.5,25.7,9.7-1.2,19-6.3,27.1-13.3,4.3-3.7,8.3-7.9,12.1-12.6-12.5,17.5-26.9,26.9-40.9,28.7-15.8,1.9-32.5-5.7-47.2-24.3-14.8-18.6-26.2-46.3-32-79-5.7-32.7-5.4-68,.8-100.3,6.3-32.4,18.1-59.4,33.2-77,15-17.6,31.7-24.3,47.4-21.4ZM160.3,462.2c1,14.1-32.6,93.1-37.7,93.9,9.5,3,45.3-73,37.4-96.1l.3,2.2Z"/>
  <path class="st1" d="M125.5,302l9,10.5-7,5-11.5,1.5-10.5-1.5h-14l-15-3-19-3h-16.5l2.5-5,3.5-8.5,8-9.5,6-6.5,24-2.5,13.5,2.5,16,9,11,11Z"/>
  <path class="st1" d="M20.8,484.8l123.2-20.4c7.4-1.2,14,4.8,13.6,12.3,0,.6-.1,1.1-.2,1.7l-1.8,8.7-1.7,7c-.5,2-1.4,3.9-2.6,5.5l-4.3,5.9c-1.3,1.7-2.2,3.7-2.7,5.8l-1.9,8.1c-.3,1.1-.6,2.2-1.1,3.3l-3.2,6.8c-.4.8-.7,1.6-.9,2.4l-3.2,11.1c-.6,2.1-1.6,4-3,5.7l-6.1,8.7-9.3,8.9c-2.1,1-3,1.6-3.9,2.2l-6.7,4.2c-1.6,1-3.3,1.7-5.1,2.1l-12.8,2.7c-2.3.5-4.6.5-6.8-.3-6.8-2.4-17.5-7.3-19.1-8-1.2-.5-3.9-3.1-6.7-5.6-3.2-3-5.8-6.8-6.7-11.1l-.2-1c-.6-2.8-1.9-5.4-3.8-7.5l-5.6-6.2c-.7-.7-1.3-1.6-1.8-2.4l-6.2-10.2-8-15-6.2-16.6c-1.1-2.8,0-6,2.6-7.7.7-.5,1.5-.8,2.4-.9Z"/>
  <path class="st2" d="M37,312l159.3,12.6c3.1.2,6.2-.4,8.9-1.9l5.4-2.9c1.6-.9,3-2,4.3-3.3l11.3-12.5c.6-.7,1.1-1.4,1.6-2.1l58.9-92.3c.9-1.4,2-2.6,3.3-3.7l89.3-74.1c3.7-3.1,8.5-4.3,13.2-3.4l92.4,17.8c4.3.8,8,3.4,10.4,7l39.4,60.9c2.6,4,1.9,9.2-1.6,12.4h0c-.7.6-1.4,1.2-2.3,1.6l-4.1,2c-1.8.9-3.7,1.4-5.6,1.6l-5,.5c-1.6.2-3.3,0-4.9-.3l-7.1-1.5c-1.3-.3-2.6-.7-3.8-1.3l-1.8-.9c-1-.5-1.9-1.1-2.7-1.7l-4.4-3.4c-.9-.7-1.7-1.5-2.4-2.4l-19.1-23.1c-2.4-2.9-5.8-4.9-9.6-5.6l-47.7-6.1M413.5,187.2l4-2.6M417.5,184.6l-50.5,33.2c-1.4.9-.5,3.1,1.1,2.8h0c.3,0,.5,0,.8,0l69.8,24c4.3,1.5,7.8,4.8,9.6,9l17.1,41.4c1.6,3.8.6,8.3-2.5,11.1h0c-.6.5-1.2,1-2,1.4l-5.4,2.9c-3,1.6-6.4,2.3-9.7,1.8l-6.3-.8c-2.7-.3-5.2-1.4-7.4-2.9l-1.2-.9c-.7-.5-1.3-1-1.9-1.6l-4.5-4.5c-.7-.7-1.4-1.6-2-2.4l-1.3-2c-.5-.8-1-1.7-1.4-2.6l-2-4.7c-.3-.6-.6-1.2-1-1.8h0c-1.9-3-4.9-5-8.3-5.6l-56.1-10.5s0,0,0,0h0c-.4,0-.6.5-.2.7l20.7,12.3M370.1,290.5l2.9-5.5M375.8,280.3l-76.8,145.2-3.8,5.9c-1.1,1.7-2.6,3.2-4.3,4.4l-6.5,4.5c-.6.4-1.3.9-2,1.2l-13.9,7-11.8,4.1c-.8.3-1.6.5-2.4.6l-13.9,2.5c-.9.2-1.9.3-2.9.3h-50.3c-.8,0-1.7,0-2.5.2l-167.8,26.3"/>
  <path class="st2" d="M293,202.5l10.9-28.9c1.4-3.6,4-6.6,7.4-8.4l120.4-65c3.7-2,8.1-2.5,12.2-1.2l85.4,25.6c2.1.6,4.1,1.7,5.8,3.2l50,42.9c4.8,4.1,6.6,10.8,4.6,16.8h0c-1.4,4.2-4.5,7.6-8.5,9.3l-2.7,1.2-2.8.9c-2.5.8-5,.9-7.6.4l-9.7-1.8c-2-.4-3.8-1.1-5.5-2.1l-2.6-1.6c-.9-.6-1.8-1.2-2.6-2l-14.5-13.6c-.6-.5-1.2-1-1.8-1.4l-1.3-.9c-1.8-1.3-3.8-2.1-5.9-2.6l-12.5-2.6c-.9-.2-1.7-.4-2.5-.7l-5.3-2"/>
  <path class="st2" d="M305.5,413l52.5-16.7c1.7-.5,3.2-1.3,4.6-2.3l52.4-38.4,7-5"/>
  <path class="st2" d="M570,154.5s113-3.5,149-3.5c36,0,30.5,213.5,6,214.5-20.7.8-218.3,8.4-279.8,10.8-9.6.4-17.4-7.8-17.1-17.5.7-22.9-1.1-42.3-1.1-51.8M420,187c3.9,19,7,49,7,49"/>
  <path class="st2" d="M411.5,190.5l-4,37.5"/>
  <path class="st2" d="M408,283c5.6,35.5,0,87.3,35,93"/>
  <path class="st0" d="M851.8,457.4h0c-2.1,1.7-5.1,1.5-6.8-.6l-17.4-20.8c-1.7-2.1-1.5-5.1.6-6.8h0c2.1-1.7,5.1-1.5,6.8.6l17.4,20.8c1.7,2.1,1.5,5.1-.6,6.8Z"/>
  <path class="st0" d="M851.8,457.4h0c-2.1,1.7-5.1,1.5-6.8-.6l-17.4-20.8c-1.7-2.1-1.5-5.1.6-6.8h0c2.1-1.7,5.1-1.5,6.8.6l17.4,20.8c1.7,2.1,1.5,5.1-.6,6.8Z"/>
  <path class="st0" d="M811.7,451.4h0c-1.5,2.2-4.5,2.9-6.7,1.4l-14.4-9.3c-2.2-1.5-2.9-4.5-1.4-6.7h0c1.5-2.2,4.5-2.9,6.7-1.4l14.4,9.3c2.2,1.5,2.9,4.5,1.4,6.7Z"/>
  <path class="st0" d="M811.7,451.4h0c-1.5,2.2-4.5,2.9-6.7,1.4l-14.4-9.3c-2.2-1.5-2.9-4.5-1.4-6.7h0c1.5-2.2,4.5-2.9,6.7-1.4l14.4,9.3c2.2,1.5,2.9,4.5,1.4,6.7Z"/>
  <path class="st0" d="M782.6,484.7h0c-2.7,0-4.9-2.1-4.9-4.8v-27.1c-.2-2.7,2-4.9,4.7-4.9h0c2.7,0,4.9,2.1,4.9,4.8v27.1c.2,2.7-2,4.9-4.7,4.9Z"/>
  <path class="st0" d="M782.6,484.7h0c-2.7,0-4.9-2.1-4.9-4.8v-27.1c-.2-2.7,2-4.9,4.7-4.9h0c2.7,0,4.9,2.1,4.9,4.8v27.1c.2,2.7-2,4.9-4.7,4.9Z"/>
  <path class="st0" d="M797.2,514h0c-1.8-2-1.6-5.1.4-6.8l20.2-18.1c2-1.8,5.1-1.6,6.8.4h0c1.8,2,1.6,5.1-.4,6.8l-20.2,18.1c-2,1.8-5.1,1.6-6.8-.4Z"/>
  <path class="st0" d="M797.2,514h0c-1.8-2-1.6-5.1.4-6.8l20.2-18.1c2-1.8,5.1-1.6,6.8.4h0c1.8,2,1.6,5.1-.4,6.8l-20.2,18.1c-2,1.8-5.1,1.6-6.8-.4Z"/>
  <path class="st0" d="M824.5,401.9h0c-2.4-1.1-3.5-4-2.5-6.4l11-24.8c1.1-2.4,4-3.5,6.4-2.5h0c2.4,1.1,3.5,4,2.5,6.4l-11,24.8c-1.1,2.4-4,3.5-6.4,2.5Z"/>
  <path class="st0" d="M824.5,401.9h0c-2.4-1.1-3.5-4-2.5-6.4l11-24.8c1.1-2.4,4-3.5,6.4-2.5h0c2.4,1.1,3.5,4,2.5,6.4l-11,24.8c-1.1,2.4-4,3.5-6.4,2.5Z"/>
  <path class="st0" d="M761.8,502.4h0c-1.4,2.3-4.4,2.9-6.7,1.5l-18.8-12c-2.3-1.4-2.9-4.4-1.5-6.7h0c1.4-2.3,4.4-2.9,6.7-1.5l18.8,12c2.3,1.4,2.9,4.4,1.5,6.7Z"/>
  <path class="st0" d="M761.8,502.4h0c-1.4,2.3-4.4,2.9-6.7,1.5l-18.8-12c-2.3-1.4-2.9-4.4-1.5-6.7h0c1.4-2.3,4.4-2.9,6.7-1.5l18.8,12c2.3,1.4,2.9,4.4,1.5,6.7Z"/>
  <path class="st0" d="M775.6,602.8h0c-2.3,1.4-5.3.8-6.7-1.5l-12-18.8c-1.4-2.3-.8-5.3,1.5-6.7h0c2.3-1.4,5.3-.8,6.7,1.5l12,18.8c1.4,2.3.8,5.3-1.5,6.7Z"/>
  <path class="st0" d="M775.6,602.8h0c-2.3,1.4-5.3.8-6.7-1.5l-12-18.8c-1.4-2.3-.8-5.3,1.5-6.7h0c2.3-1.4,5.3-.8,6.7,1.5l12,18.8c1.4,2.3.8,5.3-1.5,6.7Z"/>
  <path class="st0" d="M765.6,390.5h0c-.5-2.6,1.2-5.2,3.8-5.7l22.8-4.6c2.6-.5,5.2,1.2,5.7,3.8h0c.5,2.6-1.2,5.2-3.8,5.7l-22.8,4.6c-2.6.5-5.2-1.2-5.7-3.8Z"/>
  <path class="st0" d="M765.6,390.5h0c-.5-2.6,1.2-5.2,3.8-5.7l22.8-4.6c2.6-.5,5.2,1.2,5.7,3.8h0c.5,2.6-1.2,5.2-3.8,5.7l-22.8,4.6c-2.6.5-5.2-1.2-5.7-3.8Z"/>
  <path class="st0" d="M771.7,531.1h0c0-2.7,2.2-4.8,4.9-4.8h27.1c2.7.1,4.8,2.3,4.8,5h0c0,2.7-2.2,4.8-4.9,4.8h-27.1c-2.7-.1-4.8-2.3-4.8-5Z"/>
  <path class="st0" d="M771.7,531.1h0c0-2.7,2.2-4.8,4.9-4.8h27.1c2.7.1,4.8,2.3,4.8,5h0c0,2.7-2.2,4.8-4.9,4.8h-27.1c-2.7-.1-4.8-2.3-4.8-5Z"/>
  <path class="st0" d="M799,315.6h0c1.2-2.4,4.2-3.3,6.5-2l20.2,10.6c2.4,1.2,3.3,4.2,2,6.5h0c-1.2,2.4-4.2,3.3-6.5,2l-20.2-10.6c-2.4-1.2-3.3-4.2-2-6.5Z"/>
  <path class="st0" d="M799,315.6h0c1.2-2.4,4.2-3.3,6.5-2l20.2,10.6c2.4,1.2,3.3,4.2,2,6.5h0c-1.2,2.4-4.2,3.3-6.5,2l-20.2-10.6c-2.4-1.2-3.3-4.2-2-6.5Z"/>
  <path class="st0" d="M851.4,418.2h0c.9-2.5,3.6-3.9,6.1-3.1l19.6,6.6c2.5.9,3.9,3.6,3.1,6.1h0c-.9,2.5-3.6,3.9-6.1,3.1l-19.6-6.6c-2.5-.9-3.9-3.6-3.1-6.1Z"/>
  <path class="st0" d="M851.4,418.2h0c.9-2.5,3.6-3.9,6.1-3.1l19.6,6.6c2.5.9,3.9,3.6,3.1,6.1h0c-.9,2.5-3.6,3.9-6.1,3.1l-19.6-6.6c-2.5-.9-3.9-3.6-3.1-6.1Z"/>
  <path class="st0" d="M720.9,444.5h0c.9-2.5,3.6-3.9,6.1-3.1l19.6,6.6c2.5.9,3.9,3.6,3.1,6.1h0c-.9,2.5-3.6,3.9-6.1,3.1l-19.6-6.6c-2.5-.9-3.9-3.6-3.1-6.1Z"/>
  <path class="st0" d="M720.9,444.5h0c.9-2.5,3.6-3.9,6.1-3.1l19.6,6.6c2.5.9,3.9,3.6,3.1,6.1h0c-.9,2.5-3.6,3.9-6.1,3.1l-19.6-6.6c-2.5-.9-3.9-3.6-3.1-6.1Z"/>
  <path class="st0" d="M764.5,429.6h0c-2.3-1.3-3.1-4.3-1.8-6.6l10.3-18c1.3-2.3,4.3-3.1,6.6-1.8h0c2.3,1.3,3.1,4.3,1.8,6.6l-10.3,18c-1.3,2.3-4.3,3.1-6.6,1.8Z"/>
  <path class="st0" d="M764.5,429.6h0c-2.3-1.3-3.1-4.3-1.8-6.6l10.3-18c1.3-2.3,4.3-3.1,6.6-1.8h0c2.3,1.3,3.1,4.3,1.8,6.6l-10.3,18c-1.3,2.3-4.3,3.1-6.6,1.8Z"/>
  <path class="st0" d="M815.7,560.3h0c-2.3-1.3-3.1-4.3-1.8-6.6l10.3-18c1.3-2.3,4.3-3.1,6.6-1.8h0c2.3,1.3,3.1,4.3,1.8,6.6l-10.3,18c-1.3,2.3-4.3,3.1-6.6,1.8Z"/>
  <path class="st0" d="M815.7,560.3h0c-2.3-1.3-3.1-4.3-1.8-6.6l10.3-18c1.3-2.3,4.3-3.1,6.6-1.8h0c2.3,1.3,3.1,4.3,1.8,6.6l-10.3,18c-1.3,2.3-4.3,3.1-6.6,1.8Z"/>
  <path class="st0" d="M517.4,329.4c-.2-8.3-.6-15.4-.7-21.1.8,2.1,2.3,6.8,14,35.9l8.3-.2-.7-46.2h-6.6c0,.1.3,14.3.3,14.3.2,7.8.3,14.4.7,20.1-.5-2.1-2.3-6.8-13.5-34.3l-8.5.2.7,46.2h6.4c0-.1-.3-15-.3-15Z"/>
  <path class="st0" d="M559.7,344.8c10.4-.2,14.8-7.9,14.4-24.4-.3-16.6-4.7-23.3-14.9-23.1-9.2.2-14.5,7.2-14.2,23.5.1,16.8,4.8,24.1,14.7,24.1ZM559.3,303.2c5.2-.1,7.5,5.5,7.5,17.1.2,12.1-2,18.3-7,18.4-5,.1-7.2-6.2-7.2-18.1-.2-11.1,1.5-17.3,6.7-17.4Z"/>
  <path class="st0" d="M588.1,323.4h4.3c5.7-.2,7.2,2.4,7,8.8v1.7c-.1,3.3.2,6.6.9,9.7h7.1c-.5-3.5-.8-6.5-.9-9.8v-1.9c-.2-6.6-1.7-9.9-5.7-11.5,2.6-1.2,6.1-3.9,5.9-10.8-.2-8.3-4.8-12.5-12.8-12.3l-13.5.3.7,46.4h7.1c0-.1-.4-20.5-.4-20.5h.2ZM587.9,303.3h5.2c3.3-.4,6.4,1.9,6.7,5.2v1.4c.1,5-1.9,7.6-7.2,7.7h-4.5c0,0-.3-14.3-.3-14.3Z"/>
  <path class="st0" d="M621.6,326.3c-.2-8-.6-17.7-.7-23.2h.2c1.6,8.7,5,26.4,7.9,40.1h6.6c3-14.9,6-32,7.5-40.5h.2c.1,5,0,13.7.2,22l.4,18h6.9c0-.1-.7-46.3-.7-46.3l-10.4.2c-2.8,12.8-6,28.5-6.9,34.5-1.3-6.4-4-20.8-7.1-34.2l-10.7.2.5,46.2h6.6c0-.1-.6-16.9-.6-16.9Z"/>
  <path class="st0" d="M665,329.9l11.4-.2,2.9,12.7,7.6-.2-11.8-45.9-9.2.2-10.2,46.1h7.1c0-.1,2.3-12.7,2.3-12.7ZM669.9,302.8h.2c.8,4.2,2.4,10.8,4.7,20.7l-8.5.2c1.5-9.3,3-16.9,3.6-20.9Z"/>
  <path class="st0" d="M714,341.7l.8-6.2h-16.1c0,0-.6-39.7-.6-39.7h-7.1c0,0,.5,46.1.5,46.1l22.5-.2Z"/>
</svg>