<svg width="329" height="157" viewBox="0 0 329 157" fill="none" xmlns="http://www.w3.org/2000/svg">
<g clip-path="url(#clip0_1269_1334)">
<g clip-path="url(#clip1_1269_1334)">
<path d="M315.848 108.868L302.624 108.766C300.59 108.766 298.861 110.398 298.861 112.437V119.677C298.861 121.717 300.488 123.45 302.523 123.45L315.746 123.552C317.78 123.45 319.408 121.819 319.51 119.881V112.641C319.51 110.602 317.882 108.868 315.848 108.868ZM315.949 119.779C315.949 119.881 315.848 119.983 315.746 119.983L302.421 119.881C302.319 119.881 302.217 119.779 302.217 119.677V112.437C302.217 112.335 302.319 112.233 302.421 112.233L315.644 112.335C315.746 112.335 315.848 112.437 315.848 112.539L315.949 119.779Z" fill="#0B21E3"/>
<path d="M15.4715 102.852H10.9958C9.36832 102.954 8.14769 104.177 8.04597 105.809L7.94426 117.332C8.04597 118.964 9.2666 120.187 10.8941 120.289H15.3697C16.9972 120.289 18.3196 118.964 18.3196 117.332L18.4213 105.809C18.4213 104.177 17.2007 102.852 15.6749 102.852H15.4715ZM14.9629 116.72H11.5044L11.6061 106.217H15.0646L14.9629 116.72Z" fill="#0B21E3"/>
<path d="M306.49 78.1737L128.99 77.0519L129.397 10.9724C129.498 8.32111 128.481 5.66977 126.447 3.83423C123.7 4.95595 120.954 6.17964 118.309 7.50531H123.294C124.616 7.60729 125.735 9.03493 125.735 10.9724L125.125 114.375C125.125 116.21 124.107 117.638 122.683 117.638L97.3553 117.536C96.4398 117.434 95.7278 116.924 95.3209 116.108L82.9112 91.4303C82.7077 90.8185 82.5043 90.2066 82.5043 89.4928L82.7077 61.2459C81.4871 61.5518 80.063 61.3479 78.9441 60.634L78.7407 89.2889C78.7407 90.9205 79.0458 92.654 79.8596 94.1837L92.2693 118.76C93.0831 120.901 95.0157 122.227 97.2536 122.431L122.582 122.635C125.938 122.635 128.685 118.963 128.685 114.375L128.888 82.1507L306.591 83.2724C307.507 83.2724 308.321 82.1507 308.321 80.825C308.321 79.4993 307.507 78.1737 306.49 78.1737Z" fill="#0B21E3"/>
<path d="M87.2851 72.361C87.2851 73.2788 88.0988 74.0946 89.0143 74.0946L102.95 74.1966C103.865 74.1966 104.679 73.3807 104.679 72.463C104.679 71.4432 103.865 70.7294 102.848 70.7294H102.746L88.9126 70.6274C88.0988 70.6274 87.2851 71.3413 87.2851 72.361Z" fill="#0B21E3"/>
<path d="M56.4642 111.825C44.0545 111.723 33.8826 121.819 33.7809 134.26C33.6792 146.701 43.7493 156.898 56.1591 157C68.5688 157.102 78.7407 147.006 78.8424 134.566C78.9441 122.023 68.8739 111.825 56.4642 111.825ZM56.2608 151.901C46.5975 151.799 38.8668 143.947 38.8668 134.26C38.9686 124.572 46.8009 116.822 56.4642 116.822C66.1275 116.924 73.8582 124.776 73.8582 134.464C73.7565 144.151 65.8224 152.003 56.2608 151.901Z" fill="#0B21E3"/>
<path d="M56.5659 122.94C50.2594 122.94 45.0717 128.039 45.0717 134.362C45.0717 140.684 50.0559 145.885 56.3625 145.885C62.6691 145.885 67.8568 140.888 67.8568 134.566C67.9585 128.141 62.8725 122.94 56.5659 122.94Z" fill="#0B21E3"/>
<path d="M264.887 111.825C252.477 111.723 242.305 121.819 242.203 134.26C242.101 146.701 252.172 156.898 264.581 157C276.991 157.102 287.163 147.006 287.265 134.566C287.265 122.023 277.296 111.825 264.887 111.825ZM264.581 151.901C254.918 151.799 247.187 143.947 247.187 134.26C247.289 124.572 255.121 116.822 264.785 116.822C274.448 116.924 282.179 124.776 282.179 134.464C282.077 144.151 274.245 152.003 264.581 151.901Z" fill="#0B21E3"/>
<path d="M264.988 122.94C258.682 122.94 253.494 128.039 253.494 134.362C253.494 140.684 258.478 145.885 264.785 145.885C271.091 145.885 276.279 140.786 276.279 134.464C276.381 128.141 271.295 122.94 264.988 122.94Z" fill="#0B21E3"/>
<path d="M238.134 134.158L82.7076 134.056V132.016C82.7076 131.914 82.6059 121.309 75.2821 114.171C70.5013 109.582 63.6861 107.338 55.04 107.542C47.9197 107.644 41.1045 110.703 36.222 116.006C31.848 120.697 29.3051 126.815 29.6102 131.914L29.7119 134.056H1.73922L1.43406 132.424C1.23062 131.2 -3.44845 102.036 5.29939 91.6343C6.92689 89.6967 9.16471 88.3711 11.7077 87.9632C12.8266 80.825 19.0315 69.3018 36.5271 67.1604L108.646 8.01514L108.849 7.91317C120.344 3.42629 132.652 1.18285 144.96 1.28483C164.795 1.28483 293.673 0.367055 300.081 0.367055C304.252 -0.550715 308.626 0.265081 312.186 2.71247C316.966 6.1796 319.509 12.502 319.916 21.6797C320.628 25.1469 329.173 68.3841 324.799 97.4468C326.223 100.608 332.224 116.108 326.731 132.934L326.325 134.362H291.13L290.825 132.628C290.621 131.608 286.756 108.256 265.903 107.848H265.09C239.762 107.848 238.236 131.506 238.236 132.526L238.134 134.158ZM86.5729 130.079L234.472 130.181C235.49 123.858 240.474 103.565 265.09 103.565H266.005C286.654 103.973 292.961 124.062 294.385 130.079H323.375C328.156 113.559 321.035 98.4665 320.933 98.3646L320.628 97.7527L320.73 97.1409C325.409 68.2821 316.051 22.5975 315.949 22.0876V21.7817C315.644 13.8277 313.61 8.52502 309.948 5.77171C307.303 3.93616 304.048 3.32432 300.997 4.03814L300.793 4.14011H300.488C299.166 4.14011 165.303 5.05788 145.061 5.05788C133.364 4.95591 121.666 7.09737 110.68 11.2783L38.1546 70.8315L37.5443 70.9334C16.5902 73.2788 15.4713 89.0849 15.4713 89.7987L15.3696 91.7362H13.4369C11.4025 91.7362 9.46986 92.552 8.24924 94.1836C2.34953 101.22 3.67188 121.105 4.99423 130.079H25.4398C25.7449 124.47 28.593 118.25 33.0687 113.355C38.6632 107.338 46.4956 103.769 54.7348 103.565C64.4999 103.259 72.3322 105.911 77.9268 111.417C84.5385 117.74 86.166 126.204 86.5729 130.079Z" fill="#0B21E3"/>
<path d="M45.0717 64.713L44.97 60.736C45.3769 60.736 85.9627 59.5123 96.9484 58.9004C98.5759 58.9004 100.102 58.0846 101.119 56.861C104.374 52.8839 104.17 44.3181 103.764 41.2588V41.0549L103.357 14.3376L107.324 14.2356L107.731 40.851C107.934 42.1766 108.951 53.4958 104.17 59.3083C102.441 61.4498 99.8983 62.7755 97.1518 62.7755C86.1662 63.4893 45.4786 64.713 45.0717 64.713Z" fill="#0B21E3"/>
<path d="M43.8511 65.6309C42.2236 65.6309 40.6978 65.427 39.0703 65.0191C31.7465 63.3875 27.576 60.9401 26.4571 57.371C25.8468 55.3315 26.2537 53.19 27.4743 51.4564C27.7795 50.4367 28.5932 49.5189 29.5087 49.0091C33.5774 46.6636 42.7322 49.5189 44.4614 50.1308L44.97 50.3347L45.3769 50.7426C46.9026 52.6801 51.8869 59.1045 49.4456 63.1835C48.3267 65.121 46.0889 65.6309 43.8511 65.6309ZM30.9328 53.8019C30.3224 54.5157 30.119 55.4335 30.3224 56.2492C30.6276 57.167 32.1534 59.5124 39.9857 61.144C44.4614 62.1638 45.8855 61.4499 46.0889 61.144C46.5975 60.2263 44.97 56.7591 42.7322 53.8019C39.0703 52.6801 33.374 51.5584 31.5431 52.5782C31.3396 52.6801 31.3396 52.7821 31.3396 52.8841L31.2379 53.394L30.9328 53.8019Z" fill="#0B21E3"/>
<path d="M270.074 45.5418C270.074 46.6635 270.583 47.7853 271.397 48.4991L272.414 56.5551L274.957 57.3709L276.279 69.9137L285.637 70.0157L287.061 57.4728L289.604 56.657L290.723 48.805V48.6011C290.52 47.8872 289.909 47.2754 289.197 47.0714C290.215 46.4596 290.825 45.4398 290.927 44.3181V44.0122C291.028 43.8083 291.028 43.6043 291.028 43.4004C291.028 43.1964 291.028 43.0944 290.927 42.8905C290.927 42.7885 290.825 42.6865 290.825 42.5846C290.825 42.4826 290.825 42.4826 290.723 42.3806L290.621 42.2786C290.316 41.6668 289.808 41.1569 289.197 40.749C288.994 40.647 288.587 40.5451 288.18 40.2391C290.011 39.1174 290.621 36.772 289.502 34.9365C289.096 34.1207 288.282 33.6108 287.468 33.3049L287.773 32.999L288.485 31.9792C289.299 30.0417 288.384 27.9002 286.553 27.0844L282.891 25.6568C281.772 25.2489 281.06 24.2291 281.06 23.1074C281.06 22.8015 281.162 22.3936 281.263 22.0877L281.467 21.6798L280.856 21.5778C280.551 21.4758 280.144 21.4758 279.839 21.4758C277.093 21.4758 274.855 23.6173 274.855 26.3706V26.4726C274.855 27.5943 275.262 28.716 275.974 29.6338C275.669 29.6338 275.465 29.7358 275.16 29.8377L274.652 30.0417C273.533 30.6535 272.821 31.9792 272.821 33.3049V33.9167C272.821 34.1207 272.922 34.2226 272.922 34.5286C272.922 34.7325 273.024 34.8345 273.126 35.0384L273.227 35.1404L273.329 35.3444L273.431 35.5483C273.533 35.7523 273.736 35.8542 273.939 36.1602C273.634 36.1602 273.431 36.2621 273.126 36.3641L272.515 36.67L272.414 36.772L272.21 36.976L272.007 37.1799C270.583 38.7095 270.684 40.953 272.21 42.3806C272.278 42.4486 272.346 42.4826 272.414 42.4826C271.091 42.7885 270.176 44.0122 270.074 45.5418ZM283.603 67.1604H278.517L277.5 57.2689H284.62L283.603 67.1604ZM288.078 49.2129L287.366 54.4136L285.637 55.0255H276.686L274.957 54.4136L274.346 49.2129H288.078Z" fill="#0B21E3"/>
<path d="M152.996 48.6011C152.996 44.3182 152.894 40.7491 152.792 37.7918C153.097 38.8116 153.911 41.259 159.506 56.2492H163.676L163.778 32.6931H160.421V40.0353C160.421 44.0123 160.421 47.4794 160.625 50.3347C160.421 49.315 159.506 46.8676 154.114 32.6931H149.842L149.741 56.2492H152.996V48.6011Z" fill="#0B21E3"/>
<path d="M174.357 56.8609C179.646 56.8609 181.884 52.9859 181.986 44.522C181.986 36.364 179.849 32.591 174.662 32.489C169.881 32.489 167.236 36.0581 167.236 44.42C167.135 52.9859 169.372 56.8609 174.357 56.8609ZM174.662 35.6502C177.306 35.6502 178.324 38.6075 178.324 44.522C178.324 50.4365 177.103 53.8017 174.56 53.8017C172.017 53.8017 171 50.5385 171 44.522C171 38.8114 171.915 35.6502 174.662 35.6502Z" fill="#0B21E3"/>
<path d="M189.106 46.2557H191.344C194.192 46.2557 194.904 47.5814 194.904 50.8446V51.6604C194.802 53.292 194.904 55.0255 195.209 56.6571H198.769C198.566 55.0255 198.464 53.292 198.464 51.6604V50.7426C198.464 47.3774 197.65 45.6439 195.718 44.8281C197.142 44.2162 198.871 42.8906 198.871 39.4234C198.871 35.2425 196.633 32.999 192.463 32.999H185.647L185.546 56.6571H189.106V46.2557ZM189.208 35.9563H191.852C194.192 35.9563 195.209 37.3839 195.209 39.4234C195.209 41.9728 194.09 43.2985 191.445 43.1965H189.106L189.208 35.9563Z" fill="#0B21E3"/>
<path d="M206.093 47.9892C206.093 43.9102 205.991 38.9135 205.889 36.1602H205.991C206.805 40.5451 208.331 49.7228 209.551 56.657H212.908C214.536 49.1109 216.265 40.4431 217.079 36.1602H217.18C217.18 38.7095 216.977 43.1964 216.977 47.3774L216.875 56.5551H220.334L220.435 32.9989H215.349C213.824 39.5253 211.993 47.4793 211.484 50.4366C210.975 47.1734 209.653 39.7293 208.229 32.897H202.838L202.736 56.5551H206.093V47.9892Z" fill="#0B21E3"/>
<path d="M228.268 50.3347H234.066L235.388 56.861H239.253L233.76 33.3049H228.98L223.283 56.861H226.844L228.268 50.3347ZM230.912 36.5681H231.014C231.319 38.8116 232.133 42.1767 233.15 47.1735H228.776C229.793 42.4826 230.607 38.6076 230.912 36.5681Z" fill="#0B21E3"/>
<path d="M253.087 56.861L253.494 53.8018L245.356 53.6998L245.458 33.3049H241.796L241.593 56.861H253.087Z" fill="#0B21E3"/>
</g>
</g>
<defs>
<clipPath id="clip0_1269_1334">
<rect width="329" height="157" fill="white"/>
</clipPath>
<clipPath id="clip1_1269_1334">
<rect width="329" height="157" fill="white"/>
</clipPath>
</defs>
</svg>
