<?xml version="1.0" encoding="UTF-8"?>
<svg id="Layer_1" data-name="Layer 1" xmlns="http://www.w3.org/2000/svg" viewBox="0 0 16 16">
  <defs>
    <style>
      .cls-1 {
        fill: #0b21e3;
        stroke-width: 0px;
      }

      .cls-2 {
        fill: none;
        stroke: #0b21e3;
      }
    </style>
  </defs>
  <circle class="cls-2" cx="8" cy="8" r="7.5"/>
  <path class="cls-1" d="M6.67,3.64h1.24v6.65c0,.95,0,1.38.01,1.72h-1.19c-.01-.16-.04-.49-.04-.59-.19.41-.49.68-1.1.68-1.12,0-1.33-.89-1.33-2.09v-2.44c0-1.08.42-1.87,1.43-1.87.42,0,.82.12.98.43v-2.5ZM6.08,6.8c-.43,0-.58.32-.58.85v2.45c0,.58.13.89.55.89.52,0,.61-.46.61-1.16v-1.91c0-.67-.06-1.12-.59-1.12ZM10.29,12h-1.24v-5.12h-.61v-1.08h.61v-.61c0-.85.35-1.61,1.48-1.61.19,0,.36.01.48.05v1.1c-.1-.01-.16-.01-.23-.01-.4,0-.49.22-.49.62v.46h.74v1.08h-.74v5.12Z"/>
</svg>