<svg width="416" height="416" viewBox="0 0 416 416" fill="none" xmlns="http://www.w3.org/2000/svg">
<path d="M144.034 208.35H114.484V219.75C114.484 225.75 115.834 231.3 121.684 231.3C127.834 231.3 128.584 225.75 128.584 220.2V219.75H143.734V220.2C143.734 228.3 141.934 244.2 122.134 244.2C102.334 244.2 99.3338 232.05 99.3338 216.3V190.95C99.3338 180.3 102.784 164.25 121.984 164.25C138.634 164.25 144.034 175.35 144.034 190.8C144.034 195.3 144.034 203.85 144.034 208.35ZM114.634 196.2H129.184V188.25C129.184 181.2 127.534 177.3 121.984 177.3C117.034 177.3 114.634 180.75 114.634 188.4V196.2ZM154.318 243V191.7C154.318 178.8 154.318 173.4 154.168 165.45H168.718C168.868 166.95 169.168 173.85 169.168 178.05C172.318 167.55 179.068 164.25 186.268 164.25V183.3C177.418 183.3 169.768 185.55 169.768 201.45V243H154.318ZM193.576 243V191.7C193.576 178.8 193.576 173.4 193.426 165.45H207.976C208.126 166.95 208.426 173.85 208.426 178.05C211.576 167.55 218.326 164.25 225.526 164.25V183.3C216.676 183.3 209.026 185.55 209.026 201.45V243H193.576ZM254.709 164.25C268.809 164.25 277.209 172.8 277.209 189.3V219.15C277.209 235.8 268.959 244.2 254.259 244.2C239.109 244.2 231.609 235.5 231.609 219.15V188.7C231.609 171.75 241.209 164.25 254.709 164.25ZM254.409 177.9C249.459 177.9 247.209 181.5 247.209 188.4V219.75C247.209 226.05 249.009 230.55 254.559 230.55C259.659 230.55 261.759 226.8 261.759 219.45V188.25C261.759 182.25 260.109 177.9 254.409 177.9ZM288.058 243V191.7C288.058 178.8 288.058 173.4 287.908 165.45H302.458C302.608 166.95 302.908 173.85 302.908 178.05C306.058 167.55 312.808 164.25 320.008 164.25V183.3C311.158 183.3 303.508 185.55 303.508 201.45V243H288.058Z" fill="#0B21E3"/>
<circle cx="208" cy="208" r="205" stroke="#0B21E3" stroke-width="6"/>
</svg>
