<?xml version="1.0" encoding="UTF-8"?>
<svg id="Layer_1" data-name="Layer 1" xmlns="http://www.w3.org/2000/svg" viewBox="0 0 16 16">
  <defs>
    <style>
      .cls-1 {
        fill: #0b21e3;
      }

      .cls-gf2 {
        fill: none;
        stroke: #0b21e3;
      }
    </style>
  </defs>
  <circle class="cls-gf2" cx="8" cy="8" r="7.5"/>
  <path class="cls-1" d="M8.4,6.34v4.32c0,1.37-.13,2.52-1.91,2.52-1.48,0-1.73-.92-1.73-1.62v-.02h1.24v.02c0,.18.07.6.56.6s.6-.4.6-1.18v-.68c-.16.35-.5.58-1.03.58-1.13,0-1.38-.88-1.38-1.94v-2.35c0-.84.32-1.88,1.51-1.88.66,0,.92.3,1.03.65,0-.19.04-.46.05-.55h1.08c-.01.38-.02.9-.02,1.55v-.02ZM6.62,5.8c-.4,0-.61.25-.61.85v2.18c0,.64.14.95.54.95.53,0,.62-.41.62-1.18v-1.81c0-.53-.06-1-.55-1h0ZM10.79,11h-1.24v-5.12h-.61v-1.08h.61v-.61c0-.85.35-1.61,1.48-1.61.19,0,.36,0,.48.05v1.1c-.1,0-.16,0-.23,0-.4,0-.49.22-.49.62v.46h.74v1.08h-.74s0,5.12,0,5.12Z"/>
</svg>