<svg width="882" height="583" viewBox="0 0 882 583" fill="none" xmlns="http://www.w3.org/2000/svg">
<rect x="6" y="6" width="870" height="571" rx="41" fill="#0B21E3" stroke="#0B21E3" stroke-width="12"/>
<path d="M470.103 431.494C470.175 431.479 470.232 431.479 470.304 431.465C472.259 431.176 474.186 430.786 476.069 430.281C476.342 430.208 476.616 430.151 476.874 430.078C478.7 429.558 480.483 428.952 482.208 428.215C483.172 427.825 484.092 427.334 485.026 426.886C485.587 426.597 486.162 426.337 486.723 426.034C494.961 421.643 501.977 414.999 506.707 406.549L506.721 406.506C506.822 406.333 506.908 406.16 506.98 405.986C508.777 402.202 510.805 397.421 512.875 392.322C522.062 406.593 537.992 416.053 556.165 416.053C578.895 416.053 598.16 401.249 605.004 380.739C606.528 382.544 608.109 384.292 609.878 385.866C609.849 385.938 609.82 385.996 609.792 386.068C613.975 389.795 618.792 392.813 624.025 394.937C649.3 405.221 678.184 392.929 688.421 367.537L688.866 366.439C691.627 359.246 707.715 317.229 707.715 317.229C713.293 302.887 726.808 293.614 742.148 293.614C747.051 293.614 751.81 294.567 756.324 296.459L763.168 299.319L764.649 292.025C765.54 287.605 766 283.07 766 278.549C766 241.487 735.995 211.343 699.103 211.343C683.345 211.343 668.436 216.99 656.719 226.624C656.216 222.999 655.31 219.518 654.073 216.196C654.073 216.196 654.117 216.167 654.131 216.152C654.03 215.878 653.872 215.632 653.757 215.358C652.966 213.365 652.075 211.429 651.04 209.566C650.968 209.421 650.882 209.291 650.795 209.147C642.342 194.169 626.383 184.044 608.023 184.044C605.407 184.044 602.847 184.318 600.331 184.723C600.188 184.752 600.03 184.78 599.886 184.795C597.485 185.199 595.141 185.748 592.87 186.485C592.783 186.514 592.683 186.528 592.596 186.572C590.44 187.294 588.37 188.146 586.357 189.142C585.638 189.489 584.948 189.908 584.243 190.284C583.151 190.89 582.101 191.526 581.066 192.219C580.088 192.855 579.111 193.504 578.176 194.198C578.133 194.227 578.09 194.27 578.047 194.299C575.329 196.379 572.857 198.776 570.614 201.391C569.981 197.52 568.86 193.822 567.393 190.298C567.465 190.226 567.523 190.154 567.595 190.081C566.286 187.091 564.604 184.318 562.764 181.661C562.476 181.242 562.174 180.837 561.872 180.433C561.024 179.292 560.19 178.165 559.256 177.111C558.077 175.739 556.826 174.453 555.503 173.211C555.36 173.081 555.216 172.937 555.072 172.807C546.345 164.848 534.8 159.966 522.091 159.966C506.261 159.966 492.215 167.506 483.215 179.162C475.494 161.974 458.342 150 438.358 150C422.802 150 408.956 157.265 399.928 168.589L293.364 182.614L282.883 216.744L115 234.915V360.922L282.883 379.092L293.364 413.222L398.634 427.074L401.049 427.392C411.559 426.121 417.396 416.559 420.99 407.589C428.754 420.791 442.355 430.021 458.299 431.638C458.371 431.638 458.443 431.653 458.5 431.653C460.082 431.812 461.649 431.999 463.274 431.999C465.603 432.014 467.874 431.797 470.103 431.494ZM127.206 349.945V245.935L281.431 229.238V366.627L127.206 349.945ZM388.871 413.454L302.723 402.115L293.637 372.535V223.345L302.723 193.764L388.871 182.426V413.454Z" fill="#FFFCF3"/>
<path d="M338.642 236.144C344.04 236.144 348.667 235.991 352.368 235.991C350.98 236.451 347.896 237.372 328.771 244.586V249.958L358.846 250.112V245.814H349.592C344.502 245.814 340.184 245.814 336.483 245.967C337.871 245.66 340.955 244.586 359 237.679V232.153L328.925 232V236.144H338.642Z" fill="#FFFCF3"/>
<path d="M328 263.312C328 270.065 332.935 272.981 343.731 272.981C354.527 272.981 359 270.219 359 263.619C359 257.633 354.527 254.102 343.886 254.102C332.935 253.949 328.154 256.865 328 263.312ZM355.144 263.619C355.144 266.995 351.443 268.377 343.886 268.223C336.02 268.223 332.01 266.688 332.01 263.465C332.01 260.242 336.174 258.861 343.886 259.014C351.134 259.014 355.144 260.242 355.144 263.619Z" fill="#FFFCF3"/>
<path d="M341.572 282.037V284.8C341.572 288.484 339.875 289.405 335.711 289.251H334.632C332.472 289.098 330.313 289.251 328.308 289.712V294.316C330.467 294.009 332.472 293.856 334.632 293.856H335.865C340.184 293.856 342.343 292.935 343.423 290.326C344.194 292.014 345.89 294.316 350.363 294.316C355.761 294.316 358.537 291.4 358.537 286.181V277.433L328.308 277.279V281.884H341.572V282.037ZM354.681 282.191V285.567C354.836 287.716 353.293 289.712 351.134 289.865H350.209C346.97 289.865 345.273 288.484 345.273 285.107V282.191H354.681Z" fill="#FFFCF3"/>
<path d="M339.258 303.679C344.502 303.679 350.826 303.526 354.373 303.526V303.679C348.666 304.6 337.099 306.595 328.154 308.284V312.581C337.716 314.73 348.821 316.879 354.373 317.954V318.107C351.134 318.107 345.428 317.954 340.03 317.954H328.308V322.405L358.383 322.558V315.805C350.054 313.809 339.875 311.507 336.02 310.893C340.184 310.126 349.592 308.591 358.383 306.749V299.842L328.308 299.535V303.833L339.258 303.679Z" fill="#FFFCF3"/>
<path d="M336.328 331.767V339.135L328 340.823V345.735L358.074 338.674V332.688L328.154 325.474V330.079L336.328 331.767ZM353.91 335.298V335.451C351.134 335.912 346.816 336.833 340.338 338.214V332.688C346.353 333.763 351.288 334.837 353.91 335.298Z" fill="#FFFCF3"/>
<path d="M328 363.386L332.01 364L332.164 353.563L358.074 353.716L358.229 349.112L328.154 348.805L328 363.386Z" fill="#FFFCF3"/>
<circle cx="5" cy="5" r="4.5" transform="matrix(0 -1 -1 0 359 374)" stroke="#FFFCF3"/>
<path d="M352 369.563L353.59 368.687V368.441H352V367.415H356.212V369.137C356.212 369.469 356.154 369.751 356.038 369.983C355.922 370.219 355.762 370.395 355.558 370.511C355.358 370.627 355.134 370.685 354.886 370.685C354.606 370.685 354.356 370.605 354.136 370.445C353.916 370.289 353.76 370.057 353.668 369.749L352 370.721V369.563ZM354.316 368.441V369.077C354.316 369.265 354.362 369.405 354.454 369.497C354.546 369.593 354.676 369.641 354.844 369.641C355.004 369.641 355.13 369.593 355.222 369.497C355.314 369.405 355.36 369.265 355.36 369.077V368.441H354.316Z" fill="#FFFCF3"/>
</svg>
