<?xml version="1.0" encoding="UTF-8"?>
<svg id="Layer_1" xmlns="http://www.w3.org/2000/svg" version="1.1" viewBox="0 0 882 583">
  <defs>
    <style>
      .st0 {
        fill: #0b21e3;
      }

      .st1 {
        stroke-width: 12px;
      }

      .st1, .st2 {
        fill: none;
        stroke: #0b21e3;
      }
    </style>
  </defs>
  <path class="st0" d="M470.1,431.5c0,0,.1,0,.2,0,2-.3,3.9-.7,5.8-1.2.3,0,.5-.1.8-.2,1.8-.5,3.6-1.1,5.3-1.9,1-.4,1.9-.9,2.8-1.3.6-.3,1.1-.5,1.7-.9,8.2-4.4,15.3-11,20-19.5h0c.1-.2.2-.4.3-.6,1.8-3.8,3.8-8.6,5.9-13.7,9.2,14.3,25.1,23.7,43.3,23.7s42-14.8,48.8-35.3c1.5,1.8,3.1,3.6,4.9,5.1,0,0,0,.1,0,.2,4.2,3.7,9,6.7,14.2,8.9,25.3,10.3,54.2-2,64.4-27.4l.4-1.1c2.8-7.2,18.8-49.2,18.8-49.2,5.6-14.3,19.1-23.6,34.4-23.6s9.7,1,14.2,2.8l6.8,2.9,1.5-7.3c.9-4.4,1.4-9,1.4-13.5,0-37.1-30-67.2-66.9-67.2s-30.7,5.6-42.4,15.3c-.5-3.6-1.4-7.1-2.6-10.4,0,0,0,0,0,0-.1-.3-.3-.5-.4-.8-.8-2-1.7-3.9-2.7-5.8,0-.1-.2-.3-.2-.4-8.5-15-24.4-25.1-42.8-25.1s-5.2.3-7.7.7c-.1,0-.3,0-.4,0-2.4.4-4.7,1-7,1.7,0,0-.2,0-.3,0-2.2.7-4.2,1.6-6.2,2.6-.7.3-1.4.8-2.1,1.1-1.1.6-2.1,1.2-3.2,1.9-1,.6-2,1.3-2.9,2,0,0,0,0-.1.1-2.7,2.1-5.2,4.5-7.4,7.1-.6-3.9-1.8-7.6-3.2-11.1,0,0,.1-.1.2-.2-1.3-3-3-5.8-4.8-8.4-.3-.4-.6-.8-.9-1.2-.8-1.1-1.7-2.3-2.6-3.3-1.2-1.4-2.4-2.7-3.8-3.9-.1-.1-.3-.3-.4-.4-8.7-8-20.3-12.8-33-12.8s-29.9,7.5-38.9,19.2c-7.7-17.2-24.9-29.2-44.9-29.2s-29.4,7.3-38.4,18.6l-106.6,14-10.5,34.1-167.9,18.2v126l167.9,18.2,10.5,34.1,105.3,13.9,2.4.3c10.5-1.3,16.3-10.8,19.9-19.8,7.8,13.2,21.4,22.4,37.3,24,0,0,.1,0,.2,0,1.6.2,3.1.3,4.8.3,2.3,0,4.6-.2,6.8-.5ZM127.2,349.9v-104l154.2-16.7v137.4l-154.2-16.7ZM388.9,413.5l-86.1-11.3-9.1-29.6v-149.2l9.1-29.6,86.1-11.3v231Z"/>
  <rect class="st1" x="6" y="6" width="870" height="571" rx="41" ry="41"/>
  <path class="st0" d="M338.6,236.1c5.4,0,10-.2,13.7-.2-1.4.5-4.5,1.4-23.6,8.6v5.4l30.1.2v-4.3h-9.3c-5.1,0-9.4,0-13.1.2,1.4-.3,4.5-1.4,22.5-8.3v-5.5l-30.1-.2v4.1h9.7Z"/>
  <path class="st0" d="M328,263.3c0,6.8,4.9,9.7,15.7,9.7s15.3-2.8,15.3-9.4-4.5-9.5-15.1-9.5c-11-.2-15.7,2.8-15.9,9.2ZM355.1,263.6c0,3.4-3.7,4.8-11.3,4.6-7.9,0-11.9-1.5-11.9-4.8s4.2-4.6,11.9-4.5c7.2,0,11.3,1.2,11.3,4.6Z"/>
  <path class="st0" d="M341.6,282v2.8c0,3.7-1.7,4.6-5.9,4.5h-1.1c-2.2-.2-4.3,0-6.3.5v4.6c2.2-.3,4.2-.5,6.3-.5h1.2c4.3,0,6.5-.9,7.6-3.5.8,1.7,2.5,4,6.9,4s8.2-2.9,8.2-8.1v-8.7l-30.2-.2v4.6h13.3v.2ZM354.7,282.2v3.4c.2,2.1-1.4,4.1-3.5,4.3h-.9c-3.2,0-4.9-1.4-4.9-4.8v-2.9h9.4Z"/>
  <path class="st0" d="M339.3,303.7c5.2,0,11.6-.2,15.1-.2v.2c-5.7.9-17.3,2.9-26.2,4.6v4.3c9.6,2.1,20.7,4.3,26.2,5.4v.2c-3.2,0-8.9-.2-14.3-.2h-11.7v4.5l30.1.2v-6.8c-8.3-2-18.5-4.3-22.4-4.9,4.2-.8,13.6-2.3,22.4-4.1v-6.9l-30.1-.3v4.3l10.9-.2Z"/>
  <path class="st0" d="M336.3,331.8v7.4l-8.3,1.7v4.9l30.1-7.1v-6l-29.9-7.2v4.6l8.2,1.7ZM353.9,335.3v.2c-2.8.5-7.1,1.4-13.6,2.8v-5.5c6,1.1,10.9,2.1,13.6,2.6Z"/>
  <path class="st0" d="M328,363.4l4,.6.2-10.4,25.9.2.2-4.6-30.1-.3-.2,14.6Z"/>
  <circle class="st2" cx="354" cy="369" r="4.5"/>
  <path class="st0" d="M352,369.6l1.6-.9v-.2h-1.6v-1h4.2v1.7c0,.3,0,.6-.2.8-.1.2-.3.4-.5.5-.2.1-.4.2-.7.2s-.5,0-.8-.2c-.2-.2-.4-.4-.5-.7l-1.7,1v-1.2ZM354.3,368.4v.6c0,.2,0,.3.1.4,0,0,.2.1.4.1s.3,0,.4-.1c0,0,.1-.2.1-.4v-.6h-1Z"/>
</svg>