<?xml version="1.0" encoding="UTF-8"?>
<svg id="Layer_1" data-name="Layer 1" xmlns="http://www.w3.org/2000/svg" viewBox="0 0 448.53 660.08">
  <defs>
    <style>
      .cls-1 {
        fill: #0b21e3;
      }

      .cls-2 {
        fill: none;
        stroke: #0b21e3;
        stroke-width: 14px;
      }
    </style>
  </defs>
  <path class="cls-2" d="M262.95,653.41l-235.08-74.97c-2.4-.77-4.06-2.95-4.17-5.46L6.99,171.31M260.27,652.77l-3.24-422.33M257.27,654.01l172.77-98.92c1.82-1.05,2.96-2.97,3.01-5.07l8.49-390.6c.05-2.17-1.08-4.19-2.94-5.29l-97.37-57.62M257.03,230.44L6.61,174.27M257.03,230.44l84.19-136.1M257.03,230.44l183.5-75.61M5.67,175.73L99.44,47.9M99.44,47.9V13c0-3.76,3.41-6.59,7.11-5.9l229.79,43.11c2.84.53,4.89,3.01,4.89,5.9v38.23M99.44,47.9l241.79,46.45"/>
  <path class="cls-1" d="M107.96,548.81c.06,2.17.65,4.41,1.69,6.41,1.05,2.02,2.55,3.81,4.41,5.1-1.85-.52-3.38-1-5.23-1.22,0,0,.05,2.18.1,4.35.06,2.17.1,4.35.1,4.35,1.23.29,2.39.58,4.43,1.16,1.03.29,2.25.65,3.84,1.13,1.6.47,3.51,1.05,5.9,1.79,0,0,1.97.55,4.94,1.37,1.49.41,3.22.9,5.09,1.42,1.86.51,3.83,1.07,5.82,1.62,1.97.55,3.95,1.11,5.8,1.62,1.87.53,3.6,1,5.08,1.42,2.97.82,4.95,1.37,4.95,1.37,0,0-.05-2.25-.1-4.5-.05-2.26-.09-4.51-.09-4.51,0,0-1.75-.5-4.37-1.22-1.32-.38-2.84-.8-4.48-1.26-1.65-.45-3.39-.94-5.14-1.43-1.75-.49-3.5-.98-5.15-1.43-1.62-.47-3.16-.88-4.49-1.26-2.61-.73-4.38-1.22-4.38-1.22-1.91-.52-3.56-1.08-4.93-1.73-1.38-.62-2.49-1.32-3.37-2.1-1.76-1.55-2.56-3.43-2.63-5.76-.05-2.32.68-3.48,2.06-3.9,1.37-.44,3.36-.13,5.84.45,0,0,1.9.54,4.76,1.36,1.42.41,3.09.89,4.88,1.4,1.79.51,3.7,1.05,5.61,1.6,1.89.53,3.8,1.08,5.59,1.6,1.79.51,3.44.98,4.88,1.38,2.86.81,4.76,1.37,4.76,1.37,0,0-.05-2.25-.1-4.51-.05-2.26-.09-4.51-.09-4.51,0,0-2.03-.58-5.06-1.44-1.51-.44-3.28-.94-5.18-1.47-1.89-.55-3.91-1.12-5.93-1.69-2.03-.58-4.04-1.16-5.93-1.7-1.9-.54-3.68-1.03-5.2-1.47-3.02-.86-5.04-1.42-5.04-1.42-2.41-.66-4.45-.94-6.19-.9-1.74.05-3.15.41-4.28,1.08-1.1.67-1.91,1.64-2.43,2.86-.53,1.23-.75,2.71-.73,4.42Z"/>
  <path class="cls-1" d="M130.52,504.55c-1.93-.51-3.74-.92-5.45-1.22-1.68-.29-3.26-.47-4.71-.54-2.92-.12-5.35.19-7.28.96-1.95.77-3.39,2-4.35,3.67-.94,1.67-1.39,3.79-1.33,6.36.06,2.56.59,4.99,1.59,7.28,1,2.29,2.47,4.42,4.43,6.39.99.96,2.08,1.92,3.32,2.8,1.24.89,2.59,1.73,4.06,2.52,1.49.8,3.1,1.53,4.83,2.22,1.76.68,3.63,1.32,5.64,1.89,2,.56,3.88,1.01,5.62,1.33,1.75.33,3.38.52,4.86.61,2.99.16,5.48-.17,7.44-.95,1.98-.79,3.44-2.04,4.41-3.73.95-1.69,1.41-3.83,1.36-6.39,0-2.64-.49-5.12-1.5-7.43-1-2.3-2.52-4.44-4.56-6.39-1.02-.98-2.16-1.9-3.44-2.79-1.27-.88-2.68-1.71-4.21-2.49-1.54-.78-3.19-1.51-4.99-2.19-1.78-.69-3.7-1.31-5.75-1.9ZM131.07,527.85c-2.7-.78-5.05-1.57-7.03-2.41-2-.85-3.62-1.74-4.91-2.67-2.58-1.88-3.78-3.94-3.68-6.26-.06-2.48,1.14-3.9,3.69-4.32,1.28-.2,2.91-.16,4.88.12,1.99.29,4.31.82,7.01,1.59,2.7.75,5.06,1.54,7.07,2.36,2.02.84,3.7,1.7,5.05,2.62,2.69,1.86,4.04,3.94,4.09,6.43.04,2.48-1.37,3.79-4.13,4.14-1.37.17-3.08.11-5.1-.17-2.02-.27-4.34-.77-6.96-1.44Z"/>
  <path class="cls-1" d="M107.46,490.86c1.69.34,3.7.87,6.26,1.57,1.28.35,2.69.75,4.27,1.18,1.57.45,3.32.94,5.25,1.45,0,0,1.89.55,4.73,1.35,1.42.4,3.08.87,4.85,1.38,1.78.51,3.68,1.04,5.57,1.59,1.89.54,3.78,1.07,5.57,1.58,1.77.51,3.41.98,4.85,1.38,2.83.81,4.73,1.36,4.73,1.36,0,0-.05-2.25-.1-4.52-.05-2.25-.1-4.52-.1-4.52,0,0-1.54-.41-3.87-1.05-1.16-.32-2.5-.69-3.96-1.09-1.44-.38-3-.81-4.54-1.23-1.54-.42-3.09-.85-4.54-1.24s-2.8-.76-3.96-1.08c-2.33-.64-3.87-1.06-3.87-1.06-2.16-.62-3.99-1.38-5.51-2.29-1.52-.9-2.74-1.97-3.69-3.16-.95-1.22-1.63-2.57-2.1-4.11-.46-1.52-.69-3.2-.74-5.06,0,0-2.63-.77-5.25-1.51-2.64-.76-5.28-1.51-5.28-1.51.07,2.8.99,5.6,2.55,8.06.77,1.23,1.72,2.37,2.8,3.37,1.08,1,2.29,1.87,3.62,2.56-4.97-1.46-6.81-1.68-7.73-1.77,0,0,.06,2.09.1,4.19.06,2.09.1,4.18.1,4.18Z"/>
  <path class="cls-1" d="M120.43,428.8s1.99.54,4.96,1.35c1.47.4,3.22.88,5.08,1.39,1.85.51,3.83,1.05,5.82,1.59,1.97.53,3.95,1.08,5.81,1.59,1.86.51,3.6.98,5.08,1.38,2.97.82,4.95,1.37,4.95,1.37,0,0-.06-2.18-.09-4.36-.05-2.17-.09-4.35-.09-4.35,0,0-2.07-.57-5.2-1.43-1.55-.44-3.38-.94-5.32-1.47-1.95-.54-4.02-1.12-6.1-1.69-2.08-.57-4.15-1.14-6.1-1.68-1.94-.53-3.77-1.03-5.32-1.47-3.13-.86-5.21-1.42-5.21-1.42-2.64-.76-4.8-1.04-6.57-.97-1.76.08-3.12.53-4.15,1.25-2.07,1.44-2.76,3.99-2.7,6.95.06,2.32.74,4.72,1.9,6.89,1.18,2.18,2.85,4.14,4.89,5.6-1.85-.04-3.53.69-4.7,1.93-1.15,1.23-1.8,2.93-1.61,4.82v.31c.06,2.16.66,4.33,1.7,6.25,1.04,1.93,2.56,3.65,4.45,4.94-1.57-.49-3.41-.68-4.97-1.15,0,0,.05,2.08.11,4.18.04,2.09.1,4.18.1,4.18,1.1.29,2.33.57,4.42,1.14,1.06.29,2.32.65,3.87,1.12,1.55.46,3.41,1.02,5.67,1.74,0,0,2.03.57,5.07,1.42,1.53.44,3.32.93,5.22,1.47,1.91.54,3.94,1.11,5.97,1.68,2.03.56,4.06,1.14,5.97,1.68,1.91.53,3.69,1.02,5.21,1.46,3.05.86,5.08,1.43,5.08,1.43,0,0-.05-2.19-.09-4.36-.05-2.17-.1-4.36-.1-4.36,0,0-1.8-.51-4.5-1.27-1.35-.38-2.92-.82-4.61-1.29-1.69-.49-3.49-.98-5.29-1.49-1.8-.51-3.61-1.01-5.29-1.49-1.7-.48-3.26-.92-4.61-1.3-2.72-.75-4.51-1.26-4.51-1.26-3.26-.98-5.82-2.1-7.55-3.58-1.73-1.46-2.62-3.26-2.52-5.57-.05-1.87.54-2.97,1.72-3.46,1.18-.48,2.96-.36,5.29.18,0,0,1.97.55,4.94,1.37,1.48.41,3.22.89,5.07,1.39,1.85.52,3.83,1.06,5.81,1.6,1.97.54,3.96,1.09,5.81,1.59,1.85.52,3.59.99,5.07,1.39,2.96.82,4.94,1.36,4.94,1.36,0,0-.05-2.24-.1-4.51-.05-2.25-.1-4.52-.1-4.52,0,0-1.83-.51-4.56-1.26-1.37-.37-2.97-.83-4.67-1.3-1.71-.48-3.54-.98-5.35-1.49-1.83-.51-3.66-1.02-5.36-1.49-1.71-.48-3.3-.93-4.67-1.3-2.73-.75-4.55-1.26-4.55-1.26-2.96-.8-5.45-1.84-7.21-3.27-1.77-1.44-2.82-3.25-2.87-5.57-.41-3.45,2.69-3.74,6.71-2.68Z"/>
  <path class="cls-1" d="M146.95,399.09c1.56.49,3.12.66,4.66.82l-.18-8.08c-.93-.11-2.63-.51-4.42-.98-1.79-.46-3.65-.96-4.9-1.25,0,0-1.53-.41-3.84-1.04-1.17-.3-2.51-.68-3.95-1.07-1.44-.39-2.99-.8-4.52-1.21-1.54-.42-3.09-.83-4.52-1.22-1.44-.39-2.78-.75-3.95-1.07-2.31-.62-3.83-1.03-3.83-1.03-2.19-.62-4.09-.86-5.72-.74-1.62.13-2.97.63-4.06,1.48-1.08.85-1.89,2.05-2.43,3.61-.55,1.57-.84,3.46-.86,5.7-.11,2.08.2,4.15.84,6.11.65,1.96,1.63,3.8,2.88,5.45,1.27,1.65,2.8,3.08,4.54,4.22,1.75,1.15,3.69,2,5.78,2.45,0,0-.04-2.09-.1-4.19-.04-2.09-.09-4.18-.09-4.18-1.55-.48-3.2-1.12-4.47-2.26-1.25-1.14-2.14-2.79-2.21-5.28-.11-4.95,3.61-4.24,6.42-3.63l5.61,1.52.1,4.04c.06,2.79.48,5.37,1.23,7.71.75,2.33,1.81,4.45,3.15,6.28,1.33,1.82,2.94,3.37,4.78,4.63,1.84,1.26,3.91,2.21,6.16,2.85,1.65.48,3.31.75,4.89.77,1.58,0,3.07-.25,4.35-.83,1.27-.59,2.35-1.47,3.09-2.77.75-1.28,1.14-2.94,1.11-5.03.26-2.31-.18-4.52-1.15-6.52-.97-2.01-2.48-3.8-4.37-5.24ZM138.23,409.64c-2.18-.54-4.06-1.68-5.43-3.49-1.35-1.81-2.18-4.3-2.26-7.55-.02-1.24-.06-2.49.23-3.69l1.87.51c1.94.51,3.67,1.07,5.18,1.69,1.51.62,2.79,1.32,3.84,2.13,2.08,1.61,3.21,3.68,3.27,6.48.05,2.02-.78,3.17-2.04,3.73-1.28.56-2.96.53-4.67.2Z"/>
  <path class="cls-1" d="M151.05,373.48s-1-.28-2.75-.75c-1.75-.47-4.24-1.14-7.24-1.95-1.49-.4-3.12-.84-4.83-1.29-1.72-.48-3.53-.96-5.41-1.47-1.87-.51-3.8-1.03-5.77-1.55-1.97-.53-3.97-1.08-5.96-1.62-2-.53-4-1.08-5.96-1.61-1.98-.52-3.91-1.05-5.78-1.55-1.87-.51-3.69-1-5.4-1.47-1.72-.46-3.34-.9-4.83-1.31-3-.81-5.49-1.49-7.24-1.95-1.74-.48-2.72-.74-2.72-.74,0,0,.05,2.16.1,4.34.06,2.17.11,4.35.11,4.35,0,0,.99.27,2.73.75,1.75.49,4.24,1.17,7.24,2,1.48.4,3.11.85,4.82,1.33,1.72.48,3.53.97,5.4,1.5,1.87.52,3.8,1.05,5.77,1.58,1.96.54,3.97,1.1,5.96,1.65,1.99.54,3.99,1.1,5.96,1.63,1.97.54,3.9,1.08,5.77,1.59,1.87.52,3.69,1.01,5.4,1.5,1.72.47,3.34.91,4.83,1.32,3,.82,5.49,1.51,7.24,1.99,1.75.48,2.75.75,2.75.75,0,0-.06-2.25-.1-4.51-.05-2.25-.1-4.51-.1-4.51Z"/>
  <path class="cls-1" d="M183.15,588.89s2.87.82,7.16,2.03c2.14.61,4.64,1.32,7.33,2.07,1.34.38,2.73.77,4.13,1.17,1.41.39,2.83.8,4.28,1.21,1.42.4,2.85.8,4.26,1.2,1.41.39,2.8.78,4.14,1.16,2.68.76,5.18,1.46,7.33,2.07,4.28,1.21,7.15,2.03,7.15,2.03,0,0-.04-2.25-.07-4.52-.05-2.26-.08-4.53-.08-4.53,0,0-2.88-.8-7.17-2.01-2.14-.61-4.65-1.32-7.33-2.07-1.35-.38-2.73-.77-4.14-1.17-1.41-.4-2.83-.81-4.27-1.2-1.43-.41-2.86-.82-4.27-1.21-1.41-.4-2.8-.79-4.14-1.17-2.69-.75-5.19-1.46-7.33-2.07-4.3-1.2-7.15-2.01-7.15-2.01,0,0,.05,2.24.08,4.51.05,2.25.08,4.5.08,4.5Z"/>
  <path class="cls-1" d="M165.64,583.81s2.54.68,5.07,1.35c2.53.68,5.07,1.35,5.07,1.35,0,0-.04-2.18-.08-4.36-.04-2.18-.08-4.36-.08-4.36,0,0-2.56-.76-5.09-1.5-2.53-.76-5.07-1.49-5.07-1.49,0,0,.05,2.24.09,4.51.05,2.24.1,4.5.1,4.5Z"/>
  <path class="cls-1" d="M213.34,550.69s.05,2.18.08,4.36c.04,2.18.08,4.36.08,4.36,1.23.45,3.24,1.22,4.96,2.54,1.71,1.32,3.12,3.18,3.17,5.83.03,2.65-1.4,3.89-4.16,4.11-1.38.12-3.07,0-5.1-.34-2.02-.33-4.34-.87-6.95-1.54-2.46-.67-4.67-1.38-6.62-2.16-1.93-.77-3.6-1.61-4.95-2.51-2.71-1.83-4.2-3.93-4.25-6.42-.04-2.49,1.39-3.42,3.07-3.69,1.67-.28,3.6.09,4.52.19,0,0-.04-2.25-.08-4.52-.04-2.24-.08-4.5-.08-4.5-.62-.15-1.89-.46-3.45-.64-1.55-.18-3.39-.21-5.15.22-1.74.43-3.42,1.31-4.62,2.96-1.23,1.65-1.98,4.07-1.91,7.57.06,3.02.8,5.73,2.07,8.12,1.28,2.41,3.08,4.51,5.26,6.35,1.09.91,2.27,1.76,3.52,2.55,1.26.79,2.59,1.51,3.99,2.17,1.38.68,2.83,1.28,4.32,1.83,1.48.56,3,1.05,4.53,1.49,1.69.51,3.34.94,4.91,1.29,1.57.34,3.09.62,4.54.77,2.87.35,5.43.29,7.57-.27,2.12-.56,3.85-1.62,5-3.31,1.16-1.69,1.77-3.97,1.73-7.03-.04-1.79-.26-3.42-.64-4.91-.37-1.51-.9-2.86-1.53-4.08-1.27-2.46-2.97-4.39-4.76-5.92-1.79-1.52-3.67-2.63-5.29-3.4-1.63-.78-3-1.24-3.78-1.48Z"/>
  <path class="cls-1" d="M214.26,514.43s.03,2.18.07,4.36l.07,4.35c1.85.53,3.5,1.72,4.71,3.26,1.22,1.52,2.01,3.4,2.19,5.28.06,3.11-1.69,4.4-4.29,4.66-1.3.12-2.82,0-4.43-.29-1.62-.3-3.35-.73-5.04-1.23,0,0-.01-1.39-.05-3.51-.03-2.09-.1-4.9-.14-7.7-.05-2.8-.11-5.61-.15-7.7-.02-2.1-.05-3.5-.05-3.5-.93-.41-2.78-.93-4.33-1.4-1.47-.4-2.91-.74-4.31-1.02-1.4-.27-2.77-.48-4.06-.6-2.59-.24-4.94-.13-6.94.47-1.99.59-3.6,1.68-4.7,3.39-1.1,1.71-1.69,4.05-1.63,7.16.05,2.72.66,5.24,1.76,7.53,1.1,2.3,2.71,4.38,4.75,6.26,1.02.93,2.16,1.83,3.4,2.66,1.25.83,2.58,1.61,4.03,2.33,1.45.73,2.99,1.41,4.62,2.03,1.63.62,3.36,1.19,5.17,1.7,1.46.39,2.93.76,4.39,1.09,1.46.31,2.9.59,4.3.77,2.81.39,5.44.47,7.67-.02,2.27-.46,4.15-1.47,5.46-3.23.66-.88,1.17-1.96,1.5-3.24.34-1.29.51-2.8.48-4.55-.04-1.76-.26-3.36-.65-4.83-.38-1.47-.92-2.8-1.56-4-1.25-2.41-2.93-4.31-4.65-5.8-1.71-1.5-3.47-2.57-4.86-3.32-1.4-.76-2.45-1.18-2.75-1.37ZM200.45,532.78c-1.7-.49-4.55-1.43-7-3.07-2.44-1.63-4.48-3.95-4.55-7.21-.05-2.96,1.39-4.2,3.52-4.51,2.15-.31,5,.33,7.78,1.09,0,0,.06,3.43.12,6.85.05,3.43.11,6.84.11,6.84Z"/>
  <path class="cls-1" d="M212.09,477.52s.04,2.17.07,4.35c.03,2.17.08,4.36.08,4.36,1.23.45,3.25,1.21,4.97,2.54,1.71,1.31,3.12,3.17,3.18,5.83.03,2.64-1.4,3.88-4.17,4.11-1.39.13-3.09,0-5.13-.33-2.02-.32-4.35-.86-6.99-1.53-2.46-.66-4.68-1.38-6.64-2.15-1.94-.78-3.62-1.61-4.99-2.51-2.72-1.82-4.21-3.92-4.26-6.41-.05-2.5,1.4-3.42,3.08-3.7,1.69-.28,3.62.09,4.55.19,0,0-.05-2.25-.09-4.52-.05-2.26-.08-4.51-.08-4.51-.62-.15-1.91-.47-3.47-.64-1.56-.17-3.41-.2-5.17.23-1.76.44-3.43,1.32-4.65,2.98-1.23,1.65-1.99,4.07-1.92,7.56.06,3.04.8,5.74,2.07,8.14,1.28,2.4,3.09,4.5,5.28,6.32,1.09.92,2.27,1.76,3.54,2.55,1.26.79,2.6,1.51,4,2.17,1.4.67,2.85,1.28,4.34,1.82,1.49.56,3.02,1.04,4.56,1.49,1.7.5,3.35.93,4.93,1.26,1.58.35,3.1.62,4.56.78,2.89.33,5.45.27,7.61-.29,2.12-.56,3.86-1.62,5.01-3.31,1.18-1.69,1.79-3.98,1.74-7.01,0-1.8-.19-3.42-.53-4.9-.36-1.49-.88-2.83-1.47-4.04-1.24-2.43-2.92-4.33-4.73-5.83-1.79-1.51-3.7-2.59-5.36-3.39-1.68-.8-3.11-1.3-3.96-1.62Z"/>
  <path class="cls-1" d="M180.98,462.32c1.71.35,3.72.88,6.28,1.58,1.27.35,2.69.74,4.27,1.18,1.57.44,3.32.92,5.25,1.44,0,0,1.9.52,4.75,1.3,1.42.39,3.08.84,4.86,1.32,1.78.49,3.68,1,5.57,1.52,1.9.52,3.8,1.04,5.57,1.52,1.79.49,3.44.93,4.86,1.33,2.84.77,4.74,1.29,4.74,1.29,0,0-.05-2.25-.09-4.51-.04-2.26-.06-4.52-.06-4.52,0,0-1.54-.43-3.88-1.06-1.16-.32-2.52-.69-3.97-1.08-1.44-.4-3-.82-4.55-1.23-1.55-.43-3.1-.86-4.55-1.24-1.45-.39-2.81-.76-3.97-1.08-2.33-.64-3.87-1.05-3.87-1.05-2.17-.63-4-1.39-5.52-2.31-1.52-.9-2.73-1.96-3.68-3.16-.95-1.22-1.63-2.58-2.09-4.11-.45-1.52-.67-3.22-.71-5.08,0,0-2.63-.75-5.28-1.5-2.62-.76-5.27-1.51-5.27-1.51.07,2.81.96,5.63,2.52,8.09.77,1.23,1.71,2.37,2.79,3.37,1.08,1,2.28,1.87,3.6,2.55-2.47-.87-5.26-1.49-7.74-2.09,0,0,.04,2.26.08,4.53.05,2.25.07,4.5.07,4.5Z"/>
  <path class="cls-1" d="M212.56,416.34s.04,2.18.08,4.36c.04,2.18.08,4.38.08,4.38,1.86.51,3.5,1.69,4.72,3.22,1.23,1.53,2.03,3.4,2.22,5.28.05,3.12-1.71,4.4-4.33,4.67-1.31.12-2.83,0-4.46-.28-1.63-.29-3.35-.71-5.05-1.21,0,0-.02-1.4-.07-3.51-.04-2.1-.08-4.9-.13-7.7-.06-2.8-.1-5.61-.15-7.7-.03-2.11-.06-3.51-.06-3.51-1.57-.47-2.79-.92-4.35-1.4-1.48-.39-2.92-.73-4.33-1-1.42-.27-2.79-.48-4.09-.59-2.61-.23-4.99-.12-6.98.48-2.01.61-3.63,1.7-4.74,3.42-1.11,1.71-1.69,4.06-1.64,7.17.06,2.72.66,5.23,1.77,7.53,1.11,2.29,2.73,4.37,4.78,6.25,1.03.93,2.17,1.82,3.42,2.64,1.26.84,2.6,1.61,4.06,2.33,1.46.72,3.01,1.39,4.65,2.01,1.64.61,3.38,1.17,5.2,1.68,1.43.38,2.88.75,4.34,1.07,1.44.31,2.88.58,4.28.77,2.8.38,5.45.44,7.73-.04,2.29-.46,4.21-1.48,5.55-3.24.67-.89,1.19-1.97,1.53-3.25.35-1.29.53-2.8.5-4.55,0-1.75-.19-3.35-.54-4.82-.36-1.48-.85-2.81-1.48-4.02-1.24-2.44-2.91-4.36-4.64-5.87-1.72-1.51-3.49-2.59-4.95-3.33-1.44-.74-2.55-1.13-2.94-1.24ZM198.99,434.46c-1.56-.47-4.44-1.41-6.94-3.04-2.49-1.62-4.62-3.95-4.68-7.21-.06-2.96,1.39-4.21,3.54-4.52,2.17-.31,5.03.31,7.82,1.07,0,0,.08,3.42.13,6.84.07,3.43.13,6.85.13,6.85Z"/>
  <path class="cls-1" d="M193.17,404.02s-.04-2.17-.07-4.37c-.05-2.16-.08-4.35-.08-4.35-1.56-.47-3.19-1.12-4.46-2.26-1.25-1.14-2.13-2.79-2.18-5.28-.09-4.97,3.64-4.27,6.44-3.66l5.28,1.49.09,4.05c.05,2.88.46,5.5,1.19,7.86.74,2.37,1.79,4.46,3.12,6.27,1.32,1.82,2.94,3.35,4.78,4.58,1.82,1.23,3.9,2.18,6.15,2.81,1.62.49,3.29.75,4.86.76,1.59.02,3.09-.24,4.37-.83,1.28-.57,2.35-1.48,3.1-2.77.75-1.28,1.18-2.94,1.14-5.04-.13-2.18-.38-4.32-1.35-6.29-.97-1.97-2.39-3.75-4.11-5.17,1.55.47,3.1.64,4.65.8l-.13-8.1c-.94-.1-2.64-.52-4.43-.99-1.79-.46-3.65-.97-4.9-1.26,0,0-1.5-.41-3.78-1.03-1.15-.3-2.48-.68-3.89-1.07-1.43-.37-2.95-.79-4.47-1.2-1.51-.42-3.04-.83-4.46-1.21-1.42-.39-2.75-.76-3.89-1.07-2.29-.62-3.79-1.03-3.79-1.03-2.19-.62-4.1-.86-5.71-.73-1.64.13-2.97.64-4.05,1.49-1.07.86-1.87,2.06-2.38,3.64-.51,1.57-.74,3.49-.69,5.74-.2,2.08.04,4.13.63,6.1.59,1.94,1.53,3.8,2.77,5.43,1.23,1.65,2.74,3.09,4.48,4.24,1.74,1.13,3.69,1.98,5.78,2.44ZM205.26,387.58l1.87.54c1.94.51,3.68,1.06,5.18,1.68,1.51.62,2.79,1.33,3.83,2.14,2.08,1.62,3.2,3.68,3.23,6.48.03,2.03-.79,3.18-2.05,3.74-1.26.57-2.96.53-4.67.2-2.17-.55-4.05-1.67-5.4-3.49-1.37-1.81-2.17-4.31-2.24-7.58-.01-1.22-.03-2.49.24-3.7Z"/>
  <path class="cls-1" d="M178.38,343.77c.06,2.17.64,4.33,1.68,6.3,1.05,1.98,2.56,3.76,4.46,5.2-1.56-.48-3.45-.68-5-1.14,0,0,.04,2.09.08,4.18.04,2.1.09,4.2.09,4.2,1.09.27,2.33.56,4.44,1.13,1.06.29,2.33.64,3.9,1.1,1.56.47,3.43,1.04,5.71,1.74,0,0,2.02.55,5.06,1.4,1.52.43,3.29.91,5.19,1.44,1.9.53,3.92,1.1,5.94,1.66,2.03.56,4.05,1.13,5.95,1.66,1.9.52,3.67,1.01,5.18,1.44,3.04.85,5.07,1.41,5.07,1.41,0,0-.04-2.17-.07-4.36-.03-2.17-.08-4.37-.08-4.37,0,0-1.79-.48-4.48-1.2-1.35-.36-2.9-.78-4.58-1.24-1.68-.45-3.47-.92-5.27-1.41-1.79-.48-3.56-.95-5.25-1.4-1.69-.46-3.25-.88-4.59-1.24-2.7-.71-4.5-1.19-4.5-1.19-3.27-.82-5.85-1.95-7.62-3.45-1.78-1.5-2.74-3.38-2.79-5.73-.03-1.87.56-2.97,1.76-3.46,1.19-.49,2.98-.39,5.32.18,0,0,1.99.52,4.97,1.34,1.48.39,3.24.86,5.1,1.36,1.86.51,3.85,1.05,5.85,1.6,1.98.52,3.97,1.08,5.83,1.58,1.86.51,3.61.97,5.1,1.37,2.97.81,4.96,1.35,4.96,1.35,0,0-.04-2.25-.09-4.52-.02-2.25-.05-4.51-.05-4.51,0,0-1.84-.52-4.59-1.27-1.37-.38-2.96-.81-4.68-1.29-1.72-.48-3.57-.98-5.39-1.48-1.83-.51-3.67-1-5.38-1.48-1.73-.48-3.33-.91-4.7-1.29-2.75-.75-4.59-1.25-4.59-1.25-2.96-.79-5.47-1.82-7.25-3.24-1.77-1.44-2.81-3.25-2.86-5.59-.04-2.02.72-3.11,1.99-3.55,1.27-.45,3.07-.25,5.1.25,0,0,1.98.55,4.98,1.35,1.49.4,3.24.88,5.11,1.37,1.87.51,3.86,1.05,5.86,1.58,1.98.53,3.98,1.08,5.84,1.58,1.87.51,3.62.97,5.11,1.37,2.96.81,4.97,1.36,4.97,1.36,0,0-.04-2.18-.07-4.36-.05-2.18-.07-4.37-.07-4.37,0,0-2.08-.56-5.22-1.42-1.56-.43-3.4-.91-5.36-1.45-1.95-.53-4.04-1.11-6.13-1.67-2.09-.57-4.19-1.13-6.15-1.67-1.96-.53-3.8-1.02-5.36-1.46-3.14-.85-5.23-1.4-5.23-1.4-2.67-.49-4.85-.78-6.62-.94-1.79.08-3.15.53-4.18,1.25-2.08,1.45-2.81,4.01-2.74,6.96.05,2.35.72,4.74,1.88,6.92,1.17,2.18,2.85,4.14,4.89,5.58-1.86-.18-3.56.41-4.78,1.54-1.24,1.12-1.97,2.75-1.94,4.61.33.35.33.64.33.96Z"/>
  <path class="cls-2" d="M406.61,568.77l-119,65-3.5-227.1,127-62.4-4.5,224.5Z"/>
</svg>