<svg width="417" height="413" viewBox="0 0 417 413" fill="none" xmlns="http://www.w3.org/2000/svg">
<rect x="132.662" y="81.8101" width="6.22669" height="23.6407" rx="3.11335" transform="rotate(12.4503 132.662 81.8101)" fill="#0B21E3"/>
<rect x="132.662" y="81.8101" width="6.22669" height="23.6407" rx="3.11335" transform="rotate(12.4503 132.662 81.8101)" fill="#0B21E3"/>
<rect x="145.267" y="105.539" width="6.22669" height="17.2173" rx="3.11335" transform="rotate(-4.58062 145.267 105.539)" fill="#0B21E3"/>
<rect x="145.267" y="105.539" width="6.22669" height="17.2173" rx="3.11335" transform="rotate(-4.58062 145.267 105.539)" fill="#0B21E3"/>
<rect x="174.784" y="104.594" width="6.22669" height="23.6407" rx="3.11335" transform="rotate(52.1475 174.784 104.594)" fill="#0B21E3"/>
<rect x="174.784" y="104.594" width="6.22669" height="23.6407" rx="3.11335" transform="rotate(52.1475 174.784 104.594)" fill="#0B21E3"/>
<rect x="186.455" y="85.113" width="6.22669" height="23.6407" rx="3.11335" transform="rotate(100.612 186.455 85.113)" fill="#0B21E3"/>
<rect x="186.455" y="85.113" width="6.22669" height="23.6407" rx="3.11335" transform="rotate(100.612 186.455 85.113)" fill="#0B21E3"/>
<rect x="117.408" y="115.102" width="6.22669" height="23.6407" rx="3.11335" transform="rotate(76.4548 117.408 115.102)" fill="#0B21E3"/>
<rect x="117.408" y="115.102" width="6.22669" height="23.6407" rx="3.11335" transform="rotate(76.4548 117.408 115.102)" fill="#0B21E3"/>
<rect x="190.756" y="110.978" width="6.22669" height="20.5563" rx="3.11335" transform="rotate(-4.94546 190.756 110.978)" fill="#0B21E3"/>
<rect x="190.756" y="110.978" width="6.22669" height="20.5563" rx="3.11335" transform="rotate(-4.94546 190.756 110.978)" fill="#0B21E3"/>
<rect x="236.63" y="63.3254" width="6.22669" height="20.5563" rx="3.11335" transform="rotate(20.0176 236.63 63.3254)" fill="#0B21E3"/>
<rect x="236.63" y="63.3254" width="6.22669" height="20.5563" rx="3.11335" transform="rotate(20.0176 236.63 63.3254)" fill="#0B21E3"/>
<rect x="137.433" y="150.257" width="6.22669" height="21.1558" rx="3.11335" transform="rotate(130.904 137.433 150.257)" fill="#0B21E3"/>
<rect x="137.433" y="150.257" width="6.22669" height="21.1558" rx="3.11335" transform="rotate(130.904 137.433 150.257)" fill="#0B21E3"/>
<rect x="207.015" y="92.5422" width="6.22669" height="23.6407" rx="3.11335" transform="rotate(142.709 207.015 92.5422)" fill="#0B21E3"/>
<rect x="207.015" y="92.5422" width="6.22669" height="23.6407" rx="3.11335" transform="rotate(142.709 207.015 92.5422)" fill="#0B21E3"/>
<rect x="87.2573" y="164.352" width="6.22669" height="20.8932" rx="3.11335" transform="rotate(170.118 87.2573 164.352)" fill="#0B21E3"/>
<rect x="87.2573" y="164.352" width="6.22669" height="20.8932" rx="3.11335" transform="rotate(170.118 87.2573 164.352)" fill="#0B21E3"/>
<rect x="118.877" y="97.0486" width="6.22669" height="19.5303" rx="3.11335" transform="rotate(160.953 118.877 97.0486)" fill="#0B21E3"/>
<rect x="118.877" y="97.0486" width="6.22669" height="19.5303" rx="3.11335" transform="rotate(160.953 118.877 97.0486)" fill="#0B21E3"/>
<rect x="183.29" y="153.169" width="6.22669" height="19.5303" rx="3.11335" transform="rotate(160.953 183.29 153.169)" fill="#0B21E3"/>
<rect x="183.29" y="153.169" width="6.22669" height="19.5303" rx="3.11335" transform="rotate(160.953 183.29 153.169)" fill="#0B21E3"/>
<rect x="155.309" y="134.752" width="6.22669" height="19.5303" rx="3.11335" transform="rotate(82.184 155.309 134.752)" fill="#0B21E3"/>
<rect x="155.309" y="134.752" width="6.22669" height="19.5303" rx="3.11335" transform="rotate(82.184 155.309 134.752)" fill="#0B21E3"/>
<rect x="201.778" y="57.532" width="6.22669" height="19.5303" rx="3.11335" transform="rotate(82.184 201.778 57.532)" fill="#0B21E3"/>
<rect x="201.778" y="57.532" width="6.22669" height="19.5303" rx="3.11335" transform="rotate(82.184 201.778 57.532)" fill="#0B21E3"/>
<path d="M5.64074 204.851C5.50347 203.407 5.39455 202.119 5.30841 201H400.847C400.793 202.152 400.72 203.489 400.621 204.996C400.238 210.807 399.472 219.138 397.936 229.148C394.859 249.191 388.716 275.833 376.48 302.409C364.248 328.975 345.997 355.33 318.767 375.044C291.589 394.72 255.168 408 206.175 408C157.184 408 120.345 394.719 92.5513 375.015C64.7057 355.274 45.6625 328.886 32.644 302.301C19.6215 275.708 12.6965 249.054 9.03313 229.007C7.20361 218.996 6.19312 210.663 5.64074 204.851Z" fill="#FFFCF3" stroke="#0B21E3" stroke-width="10"/>
<path d="M201.688 251C132.287 251 63.7179 234.171 15.1718 201H390.428C340.371 234.188 271.049 251 201.688 251Z" fill="#FFFCF3" stroke="#0B21E3" stroke-width="10"/>
<path d="M383.173 21.4664C389 14.9241 398.5 25.4241 393.338 31.4646C388.176 37.5051 274.337 166.465 274.337 166.465C283.338 233.965 234.333 233.337 219.836 222.466C205.338 211.594 190.337 161.965 264.336 157.965C264.336 157.965 377.346 28.0088 383.173 21.4664Z" fill="#0B21E3"/>
<path d="M262.239 173.668C271 182.086 265.388 202.142 256.969 210.903C248.55 219.664 234.623 219.941 225.862 211.522C217.102 203.104 216.824 189.177 225.243 180.416C233.662 171.655 253.478 165.249 262.239 173.668Z" fill="#FFFCF3"/>
</svg>
