<?xml version="1.0" encoding="UTF-8"?>
<svg id="Layer_1" data-name="Layer 1" xmlns="http://www.w3.org/2000/svg" xmlns:xlink="http://www.w3.org/1999/xlink" viewBox="0 0 314 314">
  <defs>
    <style>
      .cls-1, .cls-2 {
        fill: none;
      }

      .cls-3 {
        fill: #0b21e3;
      }

      .cls-2 {
        stroke: #0b21e3;
        stroke-width: 2px;
      }
    </style>
    <clipPath id="clippath">
      <rect class="cls-1" width="314" height="314"/>
    </clipPath>
  </defs>
  <g class="cls-4">
    <g>
      <path class="cls-3" d="M47.7,180.32l36.58-13.69,2.78,7.49c-17.33,15.19-20.75,17.97-22.25,19.25,4.28-1.93,9.63-4.06,15.61-6.2l10.05-3.85,2.14,5.78-36.58,13.69-2.57-7.06c18.61-15.83,22.03-18.82,23.53-19.89-4.49,1.93-9.84,4.06-16.26,6.42l-10.69,4.06-2.35-5.99Z"/>
      <path class="cls-3" d="M101.17,226.73c-10.05,10.27-17.11,11.98-23.53,5.78-5.99-5.99-4.71-13.05,5.35-23.53,10.05-10.48,17.11-10.91,23.1-5.13,6.2,5.99,4.71,13.26-4.92,22.89ZM88.34,213.9c-6.42,6.63-9.2,11.55-6.42,14.54,2.78,2.99,7.49.21,14.33-6.63,6.42-6.42,8.77-10.7,5.56-13.69-3.21-2.99-7.49-.43-13.48,5.78Z"/>
      <path class="cls-3" d="M120.85,240.42l-5.56,15.61-6.63-2.35,13.05-36.79,11.34,4.06c6.63,2.35,9.2,7.27,6.85,13.69-1.93,5.35-5.56,6.63-7.7,6.63,2.35,2.35,2.78,5.35.85,10.7l-.43,1.5c-1.07,2.57-1.71,5.13-2.14,7.91l-6.42-2.35c.43-2.78,1.07-5.35,2.14-7.91l.43-1.28c1.71-4.92,1.28-7.06-2.99-8.56l-2.78-.85ZM122.78,235.07l3.21,1.07c4.06,1.5,6.2.21,7.49-3.42,1.28-2.35.43-5.13-1.92-6.42-.43-.21-.86-.43-1.07-.43l-3.85-1.28-3.85,10.48Z"/>
      <path class="cls-3" d="M177.96,247.05c-.86-6.63-1.93-14.12-2.35-18.61h-.21c-.21,7.49-.64,20.96-1.28,33.8l-6.2.86c-3.64-11.34-7.7-25.03-10.05-32.3h-.21c.85,4.49,2.14,12.62,3.21,19.25l1.92,13.69-6.42.86-5.56-38.71,10.27-1.5c3.64,10.48,6.85,20.96,8.34,26.52,0-5.35.85-17.33,1.5-27.81l10.05-1.5,5.56,38.72-6.63.86-1.92-14.12Z"/>
      <path class="cls-3" d="M208.12,239.56l3.85,9.2-5.77,3.85-14.12-37.65,7.49-4.92,29.3,27.38-6.2,4.06-7.06-7.06-7.49,5.13ZM211.33,230.15c-5.35-5.35-9.41-9.41-11.98-12.19h-.21c1.71,3.21,3.85,8.77,6.63,15.61l5.56-3.42Z"/>
      <path class="cls-3" d="M211.12,199.78l3.85-5.78,27.59,18.4,7.49-11.12,4.71,3.85-10.91,16.47-32.73-21.82Z"/>
      <path class="cls-3" d="M157,314C70.37,314,0,243.63,0,157S70.37,0,157,0s157,70.37,157,157c-.21,86.63-70.37,156.79-157,157ZM157,7.49C74.44,7.49,7.49,74.44,7.49,157s66.95,149.51,149.51,149.51,149.51-66.95,149.51-149.51c-.21-82.56-67.16-149.3-149.51-149.51Z"/>
      <path class="cls-3" d="M204.06,103.31c-6.2-28.02-23.1-47.06-38.07-43.85-10.05,2.14-16.47,13.9-17.75,29.73-7.91-13.69-18.82-21.39-28.88-19.25-15.19,3.42-22.03,28.02-15.83,55.83,2.35,11.98,7.49,23.1,14.97,32.73,6.2,7.49,13.05,11.55,19.68,11.55,1.28,0,2.35-.21,3.64-.43,9.84-2.35,16.26-13.9,17.75-29.73,1.71,2.78,3.42,5.56,5.56,8.13,6.2,7.49,13.05,11.55,19.68,11.55,1.28,0,2.35-.21,3.64-.43,7.7-1.71,13.48-8.77,16.26-19.89,2.57-11.76,2.35-24.17-.64-35.93ZM167.7,66.95c.64-.21,1.28-.21,1.92-.21,8.98,0,20.75,13.05,26.52,34.65l-39.14,8.77c-4.49-23.53,1.71-41.28,10.7-43.21ZM121.07,77.43c.64-.21,1.28-.21,1.93-.21,8.98,0,20.75,13.05,26.52,34.65l-39.14,8.77c-4.49-23.74,1.71-41.28,10.69-43.21ZM140.32,162.56c-4.71,1.07-10.48-2.14-15.83-8.56-1.5-1.93-3-3.85-4.28-5.99,3.64,2.57,8.34,2.99,12.41,1.28,7.06-3,9.84-11.76,6.63-19.46-1.07-2.57-2.78-4.92-5.13-6.63l16.9-3.85c4.28,23.32-1.71,41.07-10.7,43.21ZM197.43,137.32c-2.14,8.13-5.99,13.47-10.7,14.54-4.71,1.07-10.48-2.14-15.83-8.56-1.5-1.93-2.99-4.06-4.28-6.2,3.64,2.57,8.56,3.21,12.62,1.5,7.06-2.99,10.05-11.76,6.63-19.46-1.07-2.57-2.99-4.92-5.13-6.84l16.68-3.85c2.14,9.62,1.93,19.46,0,28.88Z"/>
      <path class="cls-3" d="M244.22,180.07l-8.69-5.3,2.09-3.43c.4-.66.86-1.15,1.38-1.47.52-.32,1.06-.48,1.64-.46.57.01,1.15.19,1.72.54.58.35,1,.78,1.26,1.28.26.5.36,1.05.29,1.66-.07.6-.3,1.24-.71,1.91l-1.4,2.3-1.48-.9,1.22-2c.21-.35.34-.67.39-.96s0-.55-.12-.78c-.12-.23-.32-.44-.61-.61-.29-.18-.57-.27-.84-.27-.27,0-.52.07-.77.25-.25.17-.48.43-.69.78l-.76,1.24,7.19,4.39-1.12,1.84ZM243.13,172.96l5.27.25-1.24,2.03-5.24-.3,1.21-1.98Z"/>
      <path class="cls-2" d="M251.17,173.46c.54,5.23-3.27,9.9-8.5,10.44-5.23.54-9.9-3.27-10.44-8.5-.54-5.23,3.27-9.9,8.5-10.44,5.23-.54,9.9,3.27,10.44,8.5Z"/>
    </g>
  </g>
</svg>