<svg id="logo" xmlns="http://www.w3.org/2000/svg" viewBox="0 0 146.8 146.8" width="146.8" height="146.8">
  <path fill="currentColor" d="M22.3,84.3l17.1-6.4l1.3,3.5c-8.1,7.1-9.7,8.4-10.4,9l0,0c2-0.9,4.5-1.9,7.3-2.9l4.7-1.8l1,2.7l-17.1,6.4L25,91.5
    c8.7-7.4,10.3-8.8,11-9.3l0,0c-2.1,0.9-4.6,1.9-7.6,3l-5,1.9L22.3,84.3z"/>
  <path fill="currentColor" d="M47.3,106c-4.7,4.8-8,5.6-11,2.7c-2.8-2.8-2.2-6.1,2.5-11s8-5.1,10.8-2.4C52.5,98.1,51.8,101.5,47.3,106z M41.3,100
    c-3,3.1-4.3,5.4-3,6.8s3.5,0.1,6.7-3.1c3-3,4.1-5,2.6-6.4S44.1,97.1,41.3,100L41.3,100z"/>
  <path fill="currentColor" d="M56.5,112.4l-2.6,7.3l-3.1-1.1l6.1-17.2l5.3,1.9c3.1,1.1,4.3,3.4,3.2,6.4c-0.9,2.5-2.6,3.1-3.6,3.1c1.1,1.1,1.3,2.5,0.4,5
    l-0.2,0.7c-0.5,1.2-0.8,2.4-1,3.7l-3-1.1c0.2-1.3,0.5-2.5,1-3.7l0.2-0.6c0.8-2.3,0.6-3.3-1.4-4L56.5,112.4z M57.4,109.9l1.5,0.5
    c1.9,0.7,2.9,0.1,3.5-1.6c0.6-1.1,0.2-2.4-0.9-3c-0.2-0.1-0.4-0.2-0.5-0.2l-1.8-0.6L57.4,109.9z"/>
  <path fill="currentColor" d="M83.2,115.5c-0.4-3.1-0.9-6.6-1.1-8.7H82c-0.1,3.5-0.3,9.8-0.6,15.8l-2.9,0.4c-1.7-5.3-3.6-11.7-4.7-15.1h-0.1
    c0.4,2.1,1,5.9,1.5,9l0.9,6.4l-3,0.4l-2.6-18.1l4.8-0.7c1.7,4.9,3.2,9.8,3.9,12.4l0,0c0-2.5,0.4-8.1,0.7-13l4.7-0.7l2.6,18.1
    l-3.1,0.4L83.2,115.5z"/>
  <path fill="currentColor" d="M97.3,112l1.8,4.3l-2.7,1.8l-6.6-17.6l3.5-2.3L107,111l-2.9,1.9l-3.3-3.3L97.3,112z M98.8,107.6c-2.5-2.5-4.4-4.4-5.6-5.7
    h-0.1c0.8,1.5,1.8,4.1,3.1,7.3L98.8,107.6z"/>
  <path fill="currentColor" d="M98.7,93.4l1.8-2.7l12.9,8.6l3.5-5.2l2.2,1.8l-5.1,7.7L98.7,93.4z"/>
  <path fill="currentColor" d="M73.4,146.8C32.9,146.8,0,113.9,0,73.4S32.9,0,73.4,0s73.4,32.9,73.4,73.4l0,0C146.7,113.9,113.9,146.7,73.4,146.8z
    M73.4,3.5C34.8,3.5,3.5,34.8,3.5,73.4s31.3,69.9,69.9,69.9s69.9-31.3,69.9-69.9C143.2,34.8,111.9,3.6,73.4,3.5z"/>
  <path fill="currentColor" d="M95.4,48.3c-2.9-13.1-10.8-22-17.8-20.5c-4.7,1-7.7,6.5-8.3,13.9c-3.7-6.4-8.8-10-13.5-9c-7.1,1.6-10.3,13.1-7.4,26.1
    c1.1,5.6,3.5,10.8,7,15.3c2.9,3.5,6.1,5.4,9.2,5.4c0.6,0,1.1-0.1,1.7-0.2c4.6-1.1,7.6-6.5,8.3-13.9c0.8,1.3,1.6,2.6,2.6,3.8
    c2.9,3.5,6.1,5.4,9.2,5.4c0.6,0,1.1-0.1,1.7-0.2c3.6-0.8,6.3-4.1,7.6-9.3C96.9,59.6,96.8,53.8,95.4,48.3z M78.4,31.3
    c0.3-0.1,0.6-0.1,0.9-0.1c4.2,0,9.7,6.1,12.4,16.2l-18.3,4.1C71.3,40.5,74.2,32.2,78.4,31.3L78.4,31.3z M56.6,36.2
    c0.3-0.1,0.6-0.1,0.9-0.1c4.2,0,9.7,6.1,12.4,16.2l-18.3,4.1C49.5,45.3,52.4,37.1,56.6,36.2L56.6,36.2z M65.6,76
    c-2.2,0.5-4.9-1-7.4-4c-0.7-0.9-1.4-1.8-2-2.8c1.7,1.2,3.9,1.4,5.8,0.6c3.3-1.4,4.6-5.5,3.1-9.1c-0.5-1.2-1.3-2.3-2.4-3.1l7.9-1.8
    C72.6,66.7,69.8,75,65.6,76L65.6,76z M92.3,64.2c-1,3.8-2.8,6.3-5,6.8s-4.9-1-7.4-4c-0.7-0.9-1.4-1.9-2-2.9c1.7,1.2,4,1.5,5.9,0.7
    c3.3-1.4,4.7-5.5,3.1-9.1c-0.5-1.2-1.4-2.3-2.4-3.2l7.8-1.8C93.3,55.2,93.2,59.8,92.3,64.2z"/>
</svg>
