<?xml version="1.0" encoding="UTF-8"?>
<svg id="Layer_1" data-name="Layer 1" xmlns="http://www.w3.org/2000/svg" xmlns:xlink="http://www.w3.org/1999/xlink" viewBox="0 0 1000 1000">
  <defs>
    <style>
      .cls-1, .cls-2 {
        fill: none;
      }

      .cls-3 {
        fill: #0b21e3;
      }

      .cls-2 {
        stroke: #0b21e3;
        stroke-miterlimit: 4;
        stroke-width: 6px;
      }

      .cls-4 {
        clip-path: url(#clippath);
      }
    </style>
    <clipPath id="clippath">
      <rect class="cls-1" width="1000" height="1000"/>
    </clipPath>
  </defs>
  <g class="cls-4">
    <g>
      <path class="cls-3" d="M151.91,574.25l116.49-43.6,8.86,23.84c-55.18,48.37-66.08,57.22-70.84,61.31,13.62-6.13,30.65-12.94,49.73-19.76l32.02-12.26,6.81,18.39-116.49,43.6-8.17-22.48c59.26-50.41,70.16-59.95,74.93-63.35-14.31,6.13-31.34,12.94-51.77,20.44l-34.06,12.94-7.49-19.07Z"/>
      <path class="cls-3" d="M322.21,722.07c-32.02,32.7-54.5,38.15-74.93,18.39-19.07-19.07-14.99-41.55,17.03-74.93,32.02-33.38,54.5-34.74,73.57-16.35,19.75,19.07,14.99,42.23-15.67,72.89ZM281.33,681.2c-20.44,21.12-29.29,36.79-20.44,46.32,8.86,9.54,23.84.68,45.64-21.12,20.43-20.44,27.93-34.06,17.71-43.6-10.22-9.54-23.84-1.36-42.92,18.39Z"/>
      <path class="cls-3" d="M384.88,765.67l-17.71,49.73-21.12-7.49,41.55-117.17,36.1,12.94c21.12,7.49,29.29,23.16,21.8,43.6-6.13,17.03-17.71,21.12-24.52,21.12,7.49,7.49,8.86,17.03,2.73,34.06l-1.36,4.77c-3.41,8.17-5.45,16.35-6.81,25.2l-20.44-7.49c1.36-8.86,3.41-17.03,6.81-25.2l1.36-4.09c5.45-15.67,4.09-22.48-9.54-27.25l-8.86-2.72ZM391.01,748.64l10.22,3.41c12.94,4.77,19.75.68,23.84-10.9,4.09-7.49,1.36-16.35-6.13-20.44-1.36-.68-2.72-1.36-3.41-1.36l-12.26-4.09-12.26,33.38Z"/>
      <path class="cls-3" d="M566.76,786.78c-2.72-21.12-6.13-44.96-7.49-59.26h-.68c-.68,23.84-2.04,66.76-4.09,107.63l-19.75,2.72c-11.58-36.1-24.52-79.7-32.02-102.86h-.68c2.72,14.3,6.81,40.19,10.22,61.31l6.13,43.6-20.44,2.72-17.71-123.3,32.7-4.77c11.58,33.38,21.8,66.76,26.57,84.47,0-17.03,2.72-55.18,4.77-88.55l32.02-4.77,17.71,123.3-21.12,2.73-6.13-44.96Z"/>
      <path class="cls-3" d="M662.81,762.94l12.26,29.29-18.39,12.26-44.96-119.89,23.84-15.67,93.32,87.19-19.76,12.94-22.48-22.48-23.84,16.35ZM673.03,732.97c-17.03-17.03-29.97-29.97-38.15-38.83h-.68c5.45,10.22,12.26,27.93,21.12,49.73l17.71-10.9Z"/>
      <path class="cls-3" d="M672.34,636.24l12.26-18.39,87.88,58.58,23.84-35.42,14.99,12.26-34.74,52.45-104.22-69.48Z"/>
      <path class="cls-3" d="M500,1000C224.11,1000,0,775.89,0,500S224.11,0,500,0s500,224.11,500,500c-.68,275.89-224.11,499.32-500,500ZM500,23.84C237.06,23.84,23.84,237.06,23.84,500s213.22,476.16,476.16,476.16,476.16-213.22,476.16-476.16c-.68-262.94-213.9-475.48-476.16-476.16Z"/>
      <path class="cls-3" d="M649.86,329.02c-19.76-89.24-73.57-149.86-121.25-139.65-32.02,6.81-52.45,44.28-56.54,94.69-25.2-43.6-59.95-68.12-91.96-61.31-48.37,10.9-70.16,89.24-50.41,177.79,7.49,38.15,23.84,73.57,47.68,104.22,19.76,23.84,41.55,36.78,62.67,36.78,4.09,0,7.49-.68,11.58-1.36,31.33-7.49,51.77-44.28,56.54-94.69,5.45,8.86,10.9,17.71,17.71,25.89,19.75,23.84,41.55,36.79,62.67,36.79,4.09,0,7.49-.68,11.58-1.36,24.52-5.45,42.92-27.93,51.77-63.35,8.17-37.47,7.49-76.98-2.04-114.44ZM534.06,213.21c2.04-.68,4.09-.68,6.13-.68,28.61,0,66.08,41.55,84.47,110.35l-124.66,27.93c-14.3-74.93,5.45-131.47,34.06-137.6ZM385.56,246.59c2.04-.68,4.09-.68,6.13-.68,28.61,0,66.08,41.55,84.47,110.35l-124.66,27.93c-14.3-75.61,5.45-131.47,34.06-137.6ZM446.87,517.71c-14.99,3.41-33.38-6.81-50.41-27.25-4.77-6.13-9.54-12.26-13.62-19.07,11.58,8.17,26.57,9.54,39.51,4.09,22.48-9.54,31.34-37.47,21.12-61.99-3.41-8.18-8.86-15.67-16.35-21.12l53.81-12.26c13.62,74.25-5.45,130.79-34.06,137.6ZM628.75,437.33c-6.81,25.89-19.07,42.92-34.06,46.32-14.99,3.41-33.38-6.81-50.41-27.25-4.77-6.13-9.54-12.94-13.62-19.76,11.58,8.17,27.25,10.22,40.19,4.77,22.48-9.54,32.02-37.47,21.12-61.99-3.41-8.18-9.54-15.67-16.35-21.8l53.13-12.26c6.81,30.65,6.13,61.99,0,91.96Z"/>
      <circle class="cls-2" cx="753.93" cy="552.25" r="26.5"/>
      <path class="cls-3" d="M769.56,556.19l-13.61-.27-.92,1.6,10.33,5.96-3.85,6.66-27.36-15.79,6.46-11.18c1.24-2.16,2.68-3.77,4.3-4.84,1.64-1.1,3.34-1.64,5.1-1.63,1.74,0,3.41.46,5.02,1.39,1.82,1.05,3.14,2.51,3.97,4.37.84,1.84.99,3.93.43,6.28l14.48-.06-4.34,7.52ZM750.31,554.79l2.38-4.13c.71-1.22.93-2.3.68-3.25-.24-.97-.9-1.77-1.99-2.4-1.04-.6-2.04-.76-3-.48-.94.25-1.77.99-2.47,2.21l-2.38,4.13,6.78,3.91Z"/>
    </g>
  </g>
</svg>