<?xml version="1.0" encoding="UTF-8"?>
<svg id="Layer_1" data-name="Layer 1" xmlns="http://www.w3.org/2000/svg" viewBox="0 0 451.89 448.94">
  <defs>
    <style>
      .cls-1 {
        fill: #0b21e3;
      }

      .cls-2 {
        fill: none;
        stroke: #0b21e3;
        stroke-width: 10px;
      }
    </style>
  </defs>
  <path class="cls-1" d="M270.87,358.85c7.63-24.89,2.8-47.47-10.45-51.63-8.89-2.81-19.22,3.61-27.31,15.53-.13-14.34-5.29-25.3-14.19-28.11-13.52-4.09-29.92,12.27-37.45,36.99-3.5,10.51-4.42,21.58-2.81,32.52,1.55,8.68,5.13,14.95,10.37,17.92,1.01.57,1.95.88,3.06,1.29,8.82,2.54,19.05-3.71,27.31-15.53.11,2.96.21,5.92.76,8.9,1.55,8.68,5.13,14.95,10.37,17.91,1.01.57,1.95.88,3.06,1.29,6.84,2.09,14.56-.9,21.72-8.43,7.29-8.14,12.66-18.03,15.56-28.65ZM258.43,313.89c.6.12,1.11.4,1.62.69,7.09,4.02,10.54,19.58,5.44,39.21l-34.82-10.58c6.97-20.58,19.81-31.82,27.76-29.32ZM216.94,301.32c.6.12,1.11.4,1.61.69,7.09,4.02,10.54,19.58,5.44,39.21l-34.82-10.58c7.07-20.75,19.81-31.82,27.76-29.32ZM194.07,377.12c-4.19-1.26-7.32-6.37-8.67-13.83-.32-2.19-.64-4.38-.7-6.64,1.72,3.65,5.25,6.09,9.22,6.56,6.91.79,13.03-4.89,13.94-12.4.3-2.5,0-5.13-1.09-7.53l15.06,4.52c-7.05,20.32-19.71,31.65-27.76,29.32ZM250.43,382.73c-5.32,5.46-10.75,7.96-14.95,6.7-4.19-1.26-7.32-6.37-8.67-13.83-.32-2.19-.55-4.55-.6-6.81,1.72,3.65,5.32,6.36,9.29,6.82,6.91.79,13.19-4.79,13.94-12.4.3-2.5-.16-5.22-.99-7.7l14.89,4.42c-2.61,8.55-7.18,16.23-12.91,22.79Z"/>
  <path class="cls-2" d="M58.89,215.2c138.61,63.06,224.2,87.96,381.54,119.04,3.73.74,6.49,4.02,6.47,7.82-.27,44.32-7.05,66.49-23.45,97.66-1.52,2.9-4.74,4.54-7.99,4.16-169.29-19.76-262.68-41.34-406.48-125.38-3.01-1.76-4.56-5.31-3.77-8.7,9.9-42.2,18.46-64.78,36.9-93.74,1.91-3.01,5.62-4.33,9.02-3.27l7.76,2.41ZM58.89,215.2c31.07-85.33,52.38-131.92,140.34-197.2.43-.32.91-.61,1.4-.83,13.21-5.97,27.01-7.16,61.61-5.23.75.04,1.52-.02,2.26-.19l28.55-6.55c.56-.13,1.14-.2,1.71-.2,26.1-.2,41.03,3.17,65.04,33.48,1.03,1.3,2.45,2.28,4.04,2.79,18.57,5.9,28.35,12.99,41.05,36.24,34.62,89.42,39.64,148.67,20.5,253.73"/>
</svg>