<?xml version="1.0" encoding="UTF-8"?>
<svg id="Layer_1" xmlns="http://www.w3.org/2000/svg" version="1.1" viewBox="0 0 450 661">
  <defs>
    <style>
      .st0 {
        fill: #0b21e3;
      }

      .st1 {
        fill: none;
        stroke: #0b21e3;
        stroke-width: 14px;
      }
    </style>
  </defs>
  <path class="st1" d="M261.2,653l-232.4-74.3c-2.4-.8-4.1-2.9-4.2-5.5L7.5,174.5M261.2,653l-3.2-422.3M255.7,653.5l175.2-98.2c1.8-1,3-3,3-5.1l8.5-390.6c0-2.2-1.1-4.2-2.9-5.3l-97.4-57.6M257.9,230.7L7.5,174.5M257.9,230.7l84.2-136.1M257.9,230.7l183.5-75.6M6.2,178.8L100.3,48.1M100.3,48.1V13.2c0-3.8,3.4-6.6,7.1-5.9l229.8,43.1c2.8.5,4.9,3,4.9,5.9v38.2M100.3,48.1l241.8,46.4"/>
  <path class="st0" d="M108.9,549c0,2.2.6,4.4,1.7,6.4,1.1,2,2.5,3.8,4.4,5.1-1.8-.5-3.4-1-5.2-1.2,0,0,0,2.2.1,4.4,0,2.2.1,4.3.1,4.3,1.2.3,2.4.6,4.4,1.2,1,.3,2.3.6,3.8,1.1,1.6.5,3.5,1.1,5.9,1.8,0,0,2,.6,4.9,1.4,1.5.4,3.2.9,5.1,1.4,1.9.5,3.8,1.1,5.8,1.6,2,.6,4,1.1,5.8,1.6,1.9.5,3.6,1,5.1,1.4,3,.8,4.9,1.4,4.9,1.4,0,0,0-2.3-.1-4.5,0-2.3,0-4.5,0-4.5,0,0-1.7-.5-4.4-1.2-1.3-.4-2.8-.8-4.5-1.3-1.6-.4-3.4-.9-5.1-1.4-1.7-.5-3.5-1-5.1-1.4-1.6-.5-3.2-.9-4.5-1.3-2.6-.7-4.4-1.2-4.4-1.2-1.9-.5-3.6-1.1-4.9-1.7-1.4-.6-2.5-1.3-3.4-2.1-1.8-1.5-2.6-3.4-2.6-5.8,0-2.3.7-3.5,2.1-3.9,1.4-.4,3.4-.1,5.8.5,0,0,1.9.5,4.8,1.4,1.4.4,3.1.9,4.9,1.4,1.8.5,3.7,1.1,5.6,1.6,1.9.5,3.8,1.1,5.6,1.6,1.8.5,3.4,1,4.9,1.4,2.9.8,4.8,1.4,4.8,1.4,0,0,0-2.3,0-4.5,0-2.3,0-4.5,0-4.5,0,0-2-.6-5.1-1.4-1.5-.4-3.3-.9-5.2-1.5-1.9-.5-3.9-1.1-5.9-1.7-2-.6-4-1.2-5.9-1.7-1.9-.5-3.7-1-5.2-1.5-3-.9-5-1.4-5-1.4-2.4-.7-4.5-.9-6.2-.9-1.7,0-3.1.4-4.3,1.1-1.1.7-1.9,1.6-2.4,2.9-.5,1.2-.8,2.7-.7,4.4Z"/>
  <path class="st0" d="M131.4,504.8c-1.9-.5-3.7-.9-5.4-1.2-1.7-.3-3.3-.5-4.7-.5-2.9-.1-5.4.2-7.3,1-1.9.8-3.4,2-4.3,3.7-.9,1.7-1.4,3.8-1.3,6.4,0,2.6.6,5,1.6,7.3,1,2.3,2.5,4.4,4.4,6.4,1,1,2.1,1.9,3.3,2.8,1.2.9,2.6,1.7,4.1,2.5,1.5.8,3.1,1.5,4.8,2.2,1.8.7,3.6,1.3,5.6,1.9,2,.6,3.9,1,5.6,1.3,1.8.3,3.4.5,4.9.6,3,.2,5.5-.2,7.4-1,2-.8,3.4-2,4.4-3.7,1-1.7,1.4-3.8,1.4-6.4,0-2.6-.5-5.1-1.5-7.4-1-2.3-2.5-4.4-4.6-6.4-1-1-2.2-1.9-3.4-2.8-1.3-.9-2.7-1.7-4.2-2.5-1.5-.8-3.2-1.5-5-2.2-1.8-.7-3.7-1.3-5.8-1.9ZM132,528.1c-2.7-.8-5.1-1.6-7-2.4-2-.8-3.6-1.7-4.9-2.7-2.6-1.9-3.8-3.9-3.7-6.3,0-2.5,1.1-3.9,3.7-4.3,1.3-.2,2.9-.2,4.9.1,2,.3,4.3.8,7,1.6,2.7.8,5.1,1.5,7.1,2.4,2,.8,3.7,1.7,5,2.6,2.7,1.9,4,3.9,4.1,6.4,0,2.5-1.4,3.8-4.1,4.1-1.4.2-3.1.1-5.1-.2-2-.3-4.3-.8-7-1.4Z"/>
  <path class="st0" d="M108.4,491.1c1.7.3,3.7.9,6.3,1.6,1.3.4,2.7.8,4.3,1.2,1.6.4,3.3.9,5.2,1.4,0,0,1.9.5,4.7,1.3,1.4.4,3.1.9,4.9,1.4,1.8.5,3.7,1,5.6,1.6,1.9.5,3.8,1.1,5.6,1.6,1.8.5,3.4,1,4.8,1.4,2.8.8,4.7,1.4,4.7,1.4,0,0,0-2.3,0-4.5,0-2.3-.1-4.5-.1-4.5,0,0-1.5-.4-3.9-1-1.2-.3-2.5-.7-4-1.1-1.4-.4-3-.8-4.5-1.2-1.5-.4-3.1-.8-4.5-1.2s-2.8-.8-4-1.1c-2.3-.6-3.9-1.1-3.9-1.1-2.2-.6-4-1.4-5.5-2.3-1.5-.9-2.7-2-3.7-3.2-.9-1.2-1.6-2.6-2.1-4.1-.5-1.5-.7-3.2-.7-5.1,0,0-2.6-.8-5.3-1.5-2.6-.8-5.3-1.5-5.3-1.5,0,2.8,1,5.6,2.5,8.1.8,1.2,1.7,2.4,2.8,3.4,1.1,1,2.3,1.9,3.6,2.6-5-1.5-6.8-1.7-7.7-1.8,0,0,0,2.1,0,4.2,0,2.1,0,4.2,0,4.2Z"/>
  <path class="st0" d="M121.3,429s2,.5,5,1.4c1.5.4,3.2.9,5.1,1.4,1.8.5,3.8,1,5.8,1.6,2,.5,3.9,1.1,5.8,1.6,1.9.5,3.6,1,5.1,1.4,3,.8,4.9,1.4,4.9,1.4,0,0,0-2.2,0-4.4,0-2.2,0-4.3,0-4.3,0,0-2.1-.6-5.2-1.4-1.6-.4-3.4-.9-5.3-1.5-1.9-.5-4-1.1-6.1-1.7-2.1-.6-4.2-1.1-6.1-1.7-1.9-.5-3.8-1-5.3-1.5-3.1-.9-5.2-1.4-5.2-1.4-2.6-.8-4.8-1-6.6-1-1.8,0-3.1.5-4.1,1.3-2.1,1.4-2.8,4-2.7,6.9,0,2.3.7,4.7,1.9,6.9,1.2,2.2,2.8,4.1,4.9,5.6-1.9,0-3.5.7-4.7,1.9-1.2,1.2-1.8,2.9-1.6,4.8v.3c0,2.2.7,4.3,1.7,6.2,1,1.9,2.6,3.6,4.4,4.9-1.6-.5-3.4-.7-5-1.2,0,0,0,2.1.1,4.2,0,2.1,0,4.2,0,4.2,1.1.3,2.3.6,4.4,1.1,1.1.3,2.3.6,3.9,1.1,1.6.5,3.4,1,5.7,1.7,0,0,2,.6,5.1,1.4,1.5.4,3.3.9,5.2,1.5,1.9.5,3.9,1.1,6,1.7,2,.6,4.1,1.1,6,1.7,1.9.5,3.7,1,5.2,1.5,3,.9,5.1,1.4,5.1,1.4,0,0,0-2.2,0-4.4,0-2.2-.1-4.4-.1-4.4,0,0-1.8-.5-4.5-1.3-1.4-.4-2.9-.8-4.6-1.3-1.7-.5-3.5-1-5.3-1.5-1.8-.5-3.6-1-5.3-1.5-1.7-.5-3.3-.9-4.6-1.3-2.7-.8-4.5-1.3-4.5-1.3-3.3-1-5.8-2.1-7.6-3.6-1.7-1.5-2.6-3.3-2.5-5.6,0-1.9.5-3,1.7-3.5,1.2-.5,3-.4,5.3.2,0,0,2,.6,4.9,1.4,1.5.4,3.2.9,5.1,1.4,1.8.5,3.8,1.1,5.8,1.6,2,.5,4,1.1,5.8,1.6,1.8.5,3.6,1,5.1,1.4,3,.8,4.9,1.4,4.9,1.4,0,0,0-2.2,0-4.5,0-2.3,0-4.5,0-4.5,0,0-1.8-.5-4.6-1.3-1.4-.4-3-.8-4.7-1.3-1.7-.5-3.5-1-5.4-1.5-1.8-.5-3.7-1-5.4-1.5-1.7-.5-3.3-.9-4.7-1.3-2.7-.8-4.5-1.3-4.5-1.3-3-.8-5.4-1.8-7.2-3.3-1.8-1.4-2.8-3.2-2.9-5.6-.4-3.5,2.7-3.7,6.7-2.7Z"/>
  <path class="st0" d="M147.8,399.3c1.6.5,3.1.7,4.7.8l-.2-8.1c-.9-.1-2.6-.5-4.4-1-1.8-.5-3.7-1-4.9-1.3,0,0-1.5-.4-3.8-1-1.2-.3-2.5-.7-4-1.1-1.4-.4-3-.8-4.5-1.2-1.5-.4-3.1-.8-4.5-1.2-1.4-.4-2.8-.8-3.9-1.1-2.3-.6-3.8-1-3.8-1-2.2-.6-4.1-.9-5.7-.7-1.6.1-3,.6-4.1,1.5-1.1.8-1.9,2.1-2.4,3.6-.6,1.6-.8,3.5-.9,5.7-.1,2.1.2,4.2.8,6.1.6,2,1.6,3.8,2.9,5.5,1.3,1.6,2.8,3.1,4.5,4.2,1.7,1.2,3.7,2,5.8,2.5,0,0,0-2.1,0-4.2,0-2.1,0-4.2,0-4.2-1.6-.5-3.2-1.1-4.5-2.3-1.3-1.1-2.1-2.8-2.2-5.3-.1-5,3.6-4.2,6.4-3.6l5.6,1.5v4c.2,2.8.6,5.4,1.3,7.7.7,2.3,1.8,4.4,3.1,6.3,1.3,1.8,2.9,3.4,4.8,4.6,1.8,1.3,3.9,2.2,6.2,2.9,1.6.5,3.3.8,4.9.8,1.6,0,3.1-.3,4.4-.8,1.3-.6,2.4-1.5,3.1-2.8.7-1.3,1.1-2.9,1.1-5,.3-2.3-.2-4.5-1.1-6.5-1-2-2.5-3.8-4.4-5.2ZM139.1,409.9c-2.2-.5-4.1-1.7-5.4-3.5-1.4-1.8-2.2-4.3-2.3-7.6,0-1.2,0-2.5.2-3.7l1.9.5c1.9.5,3.7,1.1,5.2,1.7,1.5.6,2.8,1.3,3.8,2.1,2.1,1.6,3.2,3.7,3.3,6.5,0,2-.8,3.2-2,3.7-1.3.6-3,.5-4.7.2Z"/>
  <path class="st0" d="M151.9,373.7s-1-.3-2.8-.8c-1.7-.5-4.2-1.1-7.2-2-1.5-.4-3.1-.8-4.8-1.3-1.7-.5-3.5-1-5.4-1.5-1.9-.5-3.8-1-5.8-1.6-2-.5-4-1.1-6-1.6-2-.5-4-1.1-6-1.6-2-.5-3.9-1-5.8-1.6-1.9-.5-3.7-1-5.4-1.5-1.7-.5-3.3-.9-4.8-1.3-3-.8-5.5-1.5-7.2-2-1.7-.5-2.7-.7-2.7-.7,0,0,0,2.2.1,4.3,0,2.2.1,4.3.1,4.3,0,0,1,.3,2.7.8,1.7.5,4.2,1.2,7.2,2,1.5.4,3.1.8,4.8,1.3,1.7.5,3.5,1,5.4,1.5,1.9.5,3.8,1,5.8,1.6,2,.5,4,1.1,6,1.7,2,.5,4,1.1,6,1.6,2,.5,3.9,1.1,5.8,1.6,1.9.5,3.7,1,5.4,1.5,1.7.5,3.3.9,4.8,1.3,3,.8,5.5,1.5,7.2,2,1.7.5,2.8.8,2.8.8,0,0,0-2.3-.1-4.5,0-2.3,0-4.5,0-4.5Z"/>
  <path class="st0" d="M184,589.1s2.9.8,7.2,2c2.1.6,4.6,1.3,7.3,2.1,1.3.4,2.7.8,4.1,1.2,1.4.4,2.8.8,4.3,1.2,1.4.4,2.9.8,4.3,1.2,1.4.4,2.8.8,4.1,1.2,2.7.8,5.2,1.5,7.3,2.1,4.3,1.2,7.1,2,7.1,2,0,0,0-2.3,0-4.5,0-2.3,0-4.5,0-4.5,0,0-2.9-.8-7.2-2-2.1-.6-4.7-1.3-7.3-2.1-1.4-.4-2.7-.8-4.1-1.2-1.4-.4-2.8-.8-4.3-1.2-1.4-.4-2.9-.8-4.3-1.2-1.4-.4-2.8-.8-4.1-1.2-2.7-.8-5.2-1.5-7.3-2.1-4.3-1.2-7.2-2-7.2-2,0,0,0,2.2,0,4.5,0,2.3,0,4.5,0,4.5Z"/>
  <path class="st0" d="M166.5,584s2.5.7,5.1,1.4c2.5.7,5.1,1.4,5.1,1.4,0,0,0-2.2,0-4.4,0-2.2,0-4.4,0-4.4,0,0-2.6-.8-5.1-1.5-2.5-.8-5.1-1.5-5.1-1.5,0,0,0,2.2,0,4.5,0,2.2,0,4.5,0,4.5Z"/>
  <path class="st0" d="M214.2,550.9s0,2.2,0,4.4c0,2.2,0,4.4,0,4.4,1.2.5,3.2,1.2,5,2.5,1.7,1.3,3.1,3.2,3.2,5.8,0,2.6-1.4,3.9-4.2,4.1-1.4.1-3.1,0-5.1-.3-2-.3-4.3-.9-7-1.5-2.5-.7-4.7-1.4-6.6-2.2-1.9-.8-3.6-1.6-5-2.5-2.7-1.8-4.2-3.9-4.3-6.4,0-2.5,1.4-3.4,3.1-3.7,1.7-.3,3.6,0,4.5.2,0,0,0-2.3,0-4.5,0-2.2,0-4.5,0-4.5-.6-.2-1.9-.5-3.4-.6-1.6-.2-3.4-.2-5.2.2-1.7.4-3.4,1.3-4.6,3-1.2,1.6-2,4.1-1.9,7.6,0,3,.8,5.7,2.1,8.1,1.3,2.4,3.1,4.5,5.3,6.4,1.1.9,2.3,1.8,3.5,2.5,1.3.8,2.6,1.5,4,2.2,1.4.7,2.8,1.3,4.3,1.8,1.5.6,3,1.1,4.5,1.5,1.7.5,3.3.9,4.9,1.3,1.6.3,3.1.6,4.5.8,2.9.3,5.4.3,7.6-.3,2.1-.6,3.8-1.6,5-3.3,1.2-1.7,1.8-4,1.7-7,0-1.8-.3-3.4-.6-4.9-.4-1.5-.9-2.9-1.5-4.1-1.3-2.5-3-4.4-4.8-5.9-1.8-1.5-3.7-2.6-5.3-3.4-1.6-.8-3-1.2-3.8-1.5Z"/>
  <path class="st0" d="M215.2,514.7s0,2.2,0,4.4v4.3c1.9.5,3.6,1.7,4.8,3.3,1.2,1.5,2,3.4,2.2,5.3,0,3.1-1.7,4.4-4.3,4.7-1.3.1-2.8,0-4.4-.3-1.6-.3-3.3-.7-5-1.2,0,0,0-1.4,0-3.5,0-2.1-.1-4.9-.1-7.7,0-2.8-.1-5.6-.1-7.7,0-2.1,0-3.5,0-3.5-.9-.4-2.8-.9-4.3-1.4-1.5-.4-2.9-.7-4.3-1-1.4-.3-2.8-.5-4.1-.6-2.6-.2-4.9-.1-6.9.5-2,.6-3.6,1.7-4.7,3.4-1.1,1.7-1.7,4.1-1.6,7.2,0,2.7.7,5.2,1.8,7.5,1.1,2.3,2.7,4.4,4.8,6.3,1,.9,2.2,1.8,3.4,2.7,1.2.8,2.6,1.6,4,2.3,1.4.7,3,1.4,4.6,2,1.6.6,3.4,1.2,5.2,1.7,1.5.4,2.9.8,4.4,1.1,1.5.3,2.9.6,4.3.8,2.8.4,5.4.5,7.7,0,2.3-.5,4.2-1.5,5.5-3.2.7-.9,1.2-2,1.5-3.2.3-1.3.5-2.8.5-4.5,0-1.8-.3-3.4-.6-4.8-.4-1.5-.9-2.8-1.6-4-1.3-2.4-2.9-4.3-4.7-5.8-1.7-1.5-3.5-2.6-4.9-3.3-1.4-.8-2.4-1.2-2.8-1.4ZM201.3,533c-1.7-.5-4.6-1.4-7-3.1-2.4-1.6-4.5-3.9-4.5-7.2,0-3,1.4-4.2,3.5-4.5,2.1-.3,5,.3,7.8,1.1,0,0,0,3.4.1,6.9,0,3.4.1,6.8.1,6.8Z"/>
  <path class="st0" d="M213,477.8s0,2.2,0,4.3c0,2.2,0,4.4,0,4.4,1.2.5,3.3,1.2,5,2.5,1.7,1.3,3.1,3.2,3.2,5.8,0,2.6-1.4,3.9-4.2,4.1-1.4.1-3.1,0-5.1-.3-2-.3-4.4-.9-7-1.5-2.5-.7-4.7-1.4-6.6-2.1-1.9-.8-3.6-1.6-5-2.5-2.7-1.8-4.2-3.9-4.3-6.4,0-2.5,1.4-3.4,3.1-3.7,1.7-.3,3.6,0,4.6.2,0,0,0-2.3,0-4.5,0-2.3,0-4.5,0-4.5-.6-.2-1.9-.5-3.5-.6-1.6-.2-3.4-.2-5.2.2-1.8.4-3.4,1.3-4.7,3-1.2,1.6-2,4.1-1.9,7.6,0,3,.8,5.7,2.1,8.1,1.3,2.4,3.1,4.5,5.3,6.3,1.1.9,2.3,1.8,3.5,2.6,1.3.8,2.6,1.5,4,2.2,1.4.7,2.9,1.3,4.3,1.8,1.5.6,3,1,4.6,1.5,1.7.5,3.4.9,4.9,1.3,1.6.3,3.1.6,4.6.8,2.9.3,5.5.3,7.6-.3,2.1-.6,3.9-1.6,5-3.3,1.2-1.7,1.8-4,1.7-7,0-1.8-.2-3.4-.5-4.9-.4-1.5-.9-2.8-1.5-4-1.2-2.4-2.9-4.3-4.7-5.8-1.8-1.5-3.7-2.6-5.4-3.4-1.7-.8-3.1-1.3-4-1.6Z"/>
  <path class="st0" d="M181.9,462.5c1.7.4,3.7.9,6.3,1.6,1.3.4,2.7.7,4.3,1.2,1.6.4,3.3.9,5.2,1.4,0,0,1.9.5,4.8,1.3,1.4.4,3.1.8,4.9,1.3,1.8.5,3.7,1,5.6,1.5,1.9.5,3.8,1,5.6,1.5,1.8.5,3.4.9,4.9,1.3,2.8.8,4.7,1.3,4.7,1.3,0,0,0-2.3,0-4.5,0-2.3,0-4.5,0-4.5,0,0-1.5-.4-3.9-1.1-1.2-.3-2.5-.7-4-1.1-1.4-.4-3-.8-4.5-1.2-1.6-.4-3.1-.9-4.6-1.2-1.5-.4-2.8-.8-4-1.1-2.3-.6-3.9-1-3.9-1-2.2-.6-4-1.4-5.5-2.3-1.5-.9-2.7-2-3.7-3.2-.9-1.2-1.6-2.6-2.1-4.1-.4-1.5-.7-3.2-.7-5.1,0,0-2.6-.8-5.3-1.5-2.6-.8-5.3-1.5-5.3-1.5,0,2.8,1,5.6,2.5,8.1.8,1.2,1.7,2.4,2.8,3.4,1.1,1,2.3,1.9,3.6,2.5-2.5-.9-5.3-1.5-7.7-2.1,0,0,0,2.3,0,4.5,0,2.3,0,4.5,0,4.5Z"/>
  <path class="st0" d="M213.5,416.6s0,2.2,0,4.4c0,2.2,0,4.4,0,4.4,1.9.5,3.5,1.7,4.7,3.2,1.2,1.5,2,3.4,2.2,5.3,0,3.1-1.7,4.4-4.3,4.7-1.3.1-2.8,0-4.5-.3-1.6-.3-3.3-.7-5.1-1.2,0,0,0-1.4,0-3.5,0-2.1,0-4.9-.1-7.7,0-2.8-.1-5.6-.1-7.7,0-2.1,0-3.5,0-3.5-1.6-.5-2.8-.9-4.3-1.4-1.5-.4-2.9-.7-4.3-1-1.4-.3-2.8-.5-4.1-.6-2.6-.2-5-.1-7,.5-2,.6-3.6,1.7-4.7,3.4-1.1,1.7-1.7,4.1-1.6,7.2,0,2.7.7,5.2,1.8,7.5,1.1,2.3,2.7,4.4,4.8,6.2,1,.9,2.2,1.8,3.4,2.6,1.3.8,2.6,1.6,4.1,2.3,1.5.7,3,1.4,4.7,2,1.6.6,3.4,1.2,5.2,1.7,1.4.4,2.9.8,4.3,1.1,1.4.3,2.9.6,4.3.8,2.8.4,5.4.4,7.7,0,2.3-.5,4.2-1.5,5.5-3.2.7-.9,1.2-2,1.5-3.2.4-1.3.5-2.8.5-4.5,0-1.7-.2-3.4-.5-4.8-.4-1.5-.9-2.8-1.5-4-1.2-2.4-2.9-4.4-4.6-5.9-1.7-1.5-3.5-2.6-4.9-3.3-1.4-.7-2.5-1.1-2.9-1.2ZM199.9,434.7c-1.6-.5-4.4-1.4-6.9-3-2.5-1.6-4.6-3.9-4.7-7.2,0-3,1.4-4.2,3.5-4.5,2.2-.3,5,.3,7.8,1.1,0,0,0,3.4.1,6.8,0,3.4.1,6.9.1,6.9Z"/>
  <path class="st0" d="M194.1,404.2s0-2.2,0-4.4c0-2.2,0-4.3,0-4.3-1.6-.5-3.2-1.1-4.5-2.3-1.3-1.1-2.1-2.8-2.2-5.3,0-5,3.6-4.3,6.4-3.7l5.3,1.5v4.1c.1,2.9.6,5.5,1.3,7.9.7,2.4,1.8,4.5,3.1,6.3,1.3,1.8,2.9,3.3,4.8,4.6,1.8,1.2,3.9,2.2,6.2,2.8,1.6.5,3.3.8,4.9.8,1.6,0,3.1-.2,4.4-.8,1.3-.6,2.4-1.5,3.1-2.8.7-1.3,1.2-2.9,1.1-5-.1-2.2-.4-4.3-1.3-6.3-1-2-2.4-3.8-4.1-5.2,1.6.5,3.1.6,4.7.8v-8.1c-1.1,0-2.8-.5-4.6-1-1.8-.5-3.7-1-4.9-1.3,0,0-1.5-.4-3.8-1-1.1-.3-2.5-.7-3.9-1.1-1.4-.4-2.9-.8-4.5-1.2-1.5-.4-3-.8-4.5-1.2-1.4-.4-2.8-.8-3.9-1.1-2.3-.6-3.8-1-3.8-1-2.2-.6-4.1-.9-5.7-.7-1.6.1-3,.6-4,1.5-1.1.9-1.9,2.1-2.4,3.6-.5,1.6-.7,3.5-.7,5.7-.2,2.1,0,4.1.6,6.1.6,1.9,1.5,3.8,2.8,5.4,1.2,1.6,2.7,3.1,4.5,4.2,1.7,1.1,3.7,2,5.8,2.4ZM206.1,387.8l1.9.5c1.9.5,3.7,1.1,5.2,1.7,1.5.6,2.8,1.3,3.8,2.1,2.1,1.6,3.2,3.7,3.2,6.5,0,2-.8,3.2-2.1,3.7-1.3.6-3,.5-4.7.2-2.2-.5-4.1-1.7-5.4-3.5-1.4-1.8-2.2-4.3-2.2-7.6,0-1.2,0-2.5.2-3.7Z"/>
  <path class="st0" d="M179.3,344c0,2.2.6,4.3,1.7,6.3,1.1,2,2.6,3.8,4.5,5.2-1.6-.5-3.4-.7-5-1.1,0,0,0,2.1,0,4.2,0,2.1,0,4.2,0,4.2,1.1.3,2.3.6,4.4,1.1,1.1.3,2.3.6,3.9,1.1,1.6.5,3.4,1,5.7,1.7,0,0,2,.6,5.1,1.4,1.5.4,3.3.9,5.2,1.4,1.9.5,3.9,1.1,5.9,1.7,2,.6,4.1,1.1,6,1.7,1.9.5,3.7,1,5.2,1.4,3,.9,5.1,1.4,5.1,1.4,0,0,0-2.2,0-4.4,0-2.2,0-4.4,0-4.4,0,0-1.8-.5-4.5-1.2-1.3-.4-2.9-.8-4.6-1.2-1.7-.4-3.5-.9-5.3-1.4-1.8-.5-3.6-1-5.2-1.4-1.7-.5-3.2-.9-4.6-1.2-2.7-.7-4.5-1.2-4.5-1.2-3.3-.8-5.8-1.9-7.6-3.5-1.8-1.5-2.7-3.4-2.8-5.7,0-1.9.6-3,1.8-3.5,1.2-.5,3-.4,5.3.2,0,0,2,.5,5,1.3,1.5.4,3.2.9,5.1,1.4,1.9.5,3.8,1,5.8,1.6,2,.5,4,1.1,5.8,1.6,1.9.5,3.6,1,5.1,1.4,3,.8,5,1.4,5,1.4,0,0,0-2.3,0-4.5,0-2.3,0-4.5,0-4.5,0,0-1.8-.5-4.6-1.3-1.4-.4-3-.8-4.7-1.3-1.7-.5-3.6-1-5.4-1.5-1.8-.5-3.7-1-5.4-1.5-1.7-.5-3.3-.9-4.7-1.3-2.8-.8-4.6-1.2-4.6-1.2-3-.8-5.5-1.8-7.3-3.2-1.8-1.4-2.8-3.2-2.9-5.6,0-2,.7-3.1,2-3.6,1.3-.4,3.1-.3,5.1.2,0,0,2,.6,5,1.4,1.5.4,3.2.9,5.1,1.4,1.9.5,3.9,1,5.9,1.6,2,.5,4,1.1,5.8,1.6,1.9.5,3.6,1,5.1,1.4,3,.8,5,1.4,5,1.4,0,0,0-2.2,0-4.4,0-2.2,0-4.4,0-4.4,0,0-2.1-.6-5.2-1.4-1.6-.4-3.4-.9-5.4-1.4-1.9-.5-4-1.1-6.1-1.7-2.1-.6-4.2-1.1-6.2-1.7-2-.5-3.8-1-5.4-1.5-3.1-.8-5.2-1.4-5.2-1.4-2.7-.5-4.8-.8-6.6-.9-1.8,0-3.2.5-4.2,1.3-2.1,1.4-2.8,4-2.7,7,0,2.3.7,4.7,1.9,6.9,1.2,2.2,2.8,4.1,4.9,5.6-1.9-.2-3.6.4-4.8,1.5-1.2,1.1-2,2.8-1.9,4.6.3.3.3.6.3,1Z"/>
  <path class="st1" d="M407.5,569l-119,65-3.5-227.1,127-62.4-4.5,224.5Z"/>
</svg>