<svg id="Layer_1" data-name="Layer 1" xmlns="http://www.w3.org/2000/svg" viewBox="0 0 16 16">
  <defs>
    <style>
      .cls-1 {
        fill: #0b21e3;
        stroke-width: 0px;
      }
      .cls-2 {
        fill: none;
        stroke: #0b21e3;
      }
    </style>
  </defs>
  <circle class="cls-2" cx="8" cy="8" r="7.5"/>
  <path class="cls-1" d="M4.35,12v-4.28c0-1.27,0-1.64-.01-1.92h1.18c.02.14.05.38.05.56.18-.36.5-.66,1.14-.66.76,0,1.27.46,1.27,1.63v4.67h-1.24v-4.44c0-.55-.19-.76-.53-.76-.44,0-.62.24-.62,1.08v4.12h-1.24ZM10.37,12h-1.24v-5.12h-.61v-1.08h.61v-.61c0-.85.35-1.61,1.48-1.61.19,0,.36.01.48.05v1.1c-.1-.01-.16-.01-.23-.01-.4,0-.49.22-.49.62v.46h.74v1.08h-.74v5.12Z"/>
</svg>