<svg width="203" height="259" viewBox="0 0 203 259" fill="none" xmlns="http://www.w3.org/2000/svg">
<g clip-path="url(#clip0_1268_1126)">
<g clip-path="url(#clip1_1268_1126)">
<path d="M63 215.87C63 217.77 63.9 219.47 65.5 220.47C64.8 220.37 64.1 220.27 63.3 220.27V223.87C64.3 223.97 65.3 224.17 69.2 224.87L82.5 227.07V223.37L70.7 221.37C67.4 220.77 66.2 219.77 66.2 217.87C66.2 215.97 67.5 215.77 69.6 216.07L82.4 218.27V214.57L68.8 212.27C64.8 211.47 63 212.97 63 215.87Z" fill="#0B21E3"/>
<path d="M72.8 196.27C66.4 195.17 63 196.97 63 201.17C63 205.37 66.1 208.57 72.9 209.67C79.7 210.77 83 209.07 83 204.77C83 200.47 79.7 197.37 72.8 196.27ZM72.8 205.97C68.3 205.17 66.3 203.97 66.3 201.87C66.3 199.77 68.4 199.27 72.9 200.07C77.4 200.87 79.7 202.07 79.7 204.07C79.7 206.07 77.4 206.67 72.8 205.97Z" fill="#0B21E3"/>
<path d="M63.4 191.67C64.8 191.87 66.8 192.17 69.9 192.77L82.6 194.87V191.17L72.3 189.37C68.7 188.77 67.4 186.87 67.4 183.87L63.1 183.17C63.1 185.57 64.5 187.67 66.7 188.57C64.7 188.27 63.8 188.17 63.4 188.17V191.67Z" fill="#0B21E3"/>
<path d="M69.5 165.07L82.7 167.27V163.57L68.9 161.27C64.5 160.57 63.2 162.37 63.2 164.87C63.2 166.87 64.2 168.77 65.9 169.77C64.1 170.07 63.2 171.07 63.2 173.07C63.2 174.87 64.1 176.57 65.6 177.47C64.9 177.37 64.2 177.27 63.5 177.27V180.77C64.4 180.87 65.6 181.07 69.3 181.77L82.8 183.97V180.27L70.8 178.27C68.1 177.77 66.6 176.77 66.6 174.97C66.6 173.47 67.7 172.97 69.6 173.37L82.8 175.57V171.87L70.7 169.87C68.2 169.47 66.6 168.57 66.6 166.57C66.5 165.07 67.8 164.87 69.5 165.07Z" fill="#0B21E3"/>
<path d="M80.8 151.47C81.5 151.57 82.1 151.67 82.8 151.57V148.27C82 148.17 79.9 147.87 78.8 147.77L68.6 146.07C65 145.47 63.1 147.07 63.1 150.87C63.1 155.57 66.1 157.37 68.8 157.87V154.37C67.5 154.07 66 153.57 66.1 151.57C66.1 149.47 67.6 149.57 68.9 149.77L71.2 150.17C71.2 150.57 71.2 151.17 71.1 151.77C71.1 156.47 73.5 159.37 77.3 159.97C80 160.47 83 159.57 83 156.07C83.2 154.27 82.3 152.57 80.8 151.47ZM77.1 156.27C75.3 155.97 74 154.67 74 152.07C74 151.57 74 151.07 74.1 150.57L74.9 150.67C78.2 151.27 79.9 152.07 79.9 154.37C79.9 156.07 78.5 156.47 77.1 156.27Z" fill="#0B21E3"/>
<path d="M82.8 140.67L56.2 136.27V139.97L82.8 144.47V140.67Z" fill="#0B21E3"/>
<path d="M94.4 228.97L113.6 232.17V228.47L94.4 225.27V228.97Z" fill="#0B21E3"/>
<path d="M87 227.67L91.3 228.37V224.67L87 223.97V227.67Z" fill="#0B21E3"/>
<path d="M107.4 211.67V215.27C108.5 215.57 110.8 216.17 110.8 218.37C110.8 220.37 108.3 220.77 104 219.97C99.9 219.27 97.4 218.17 97.4 215.97C97.4 213.77 99.8 214.07 100.6 214.17V210.37C99.5 210.17 94.2 209.47 94.2 215.27C94.2 220.27 98.8 222.67 104 223.57C109.7 224.57 114.1 223.97 114.1 218.87C114 213.17 108.7 211.97 107.4 211.67Z" fill="#0B21E3"/>
<path d="M108 196.57V200.17C108.6 200.37 110.8 201.07 110.8 203.37C110.8 205.87 107.8 205.87 105 205.37V196.07C104.6 195.97 103.8 195.77 103.2 195.67C98.3 194.87 94.1 195.37 94.1 200.57C94.1 205.07 97.8 207.87 104 208.87C108.8 209.67 114.1 209.77 114.1 203.97C114.1 198.17 108.6 196.77 108 196.57ZM102.1 204.77C100.7 204.47 97.3 203.77 97.3 201.07C97.3 198.67 99.8 198.77 102.1 199.07V204.77Z" fill="#0B21E3"/>
<path d="M107.5 181.27V184.87C108.6 185.17 110.9 185.77 110.9 187.97C110.9 189.97 108.4 190.37 104.1 189.57C100 188.87 97.5 187.77 97.5 185.57C97.5 183.37 99.9 183.77 100.7 183.77V179.97C99.6 179.77 94.3 179.07 94.3 184.87C94.3 189.87 98.9 192.27 104.1 193.17C109.8 194.17 114.2 193.57 114.2 188.47C114.1 182.77 108.8 181.57 107.5 181.27Z" fill="#0B21E3"/>
<path d="M94.5 176.37C95.9 176.57 97.9 176.87 101 177.47L113.7 179.57V175.87L103.4 174.17C99.8 173.57 98.5 171.67 98.5 168.67L94.2 167.97C94.2 170.37 95.6 172.47 97.7 173.37C96.6 173.17 95.5 172.97 94.4 172.97L94.5 176.37Z" fill="#0B21E3"/>
<path d="M108.1 155.77V159.37C108.7 159.57 110.9 160.27 110.9 162.57C110.9 165.07 107.9 164.97 105.1 164.57V155.27C104.7 155.17 103.9 154.97 103.3 154.87C98.4 154.07 94.2 154.57 94.2 159.77C94.2 164.27 97.9 167.07 104.1 168.07C108.9 168.87 114.2 168.97 114.2 163.17C114.2 157.47 108.7 155.97 108.1 155.77ZM102.2 164.07C100.8 163.77 97.4 163.07 97.4 160.37C97.4 157.97 99.9 158.07 102.2 158.37V164.07Z" fill="#0B21E3"/>
<path d="M100.1 151.57V148.07C98.8 147.77 97.3 147.27 97.3 145.27C97.3 143.27 98.8 143.27 100.1 143.47L102.3 143.87V145.47C102.3 150.17 104.8 153.07 108.5 153.67C111.2 154.17 114.2 153.27 114.2 149.67C114.3 147.87 113.5 146.07 112 145.07C112.7 145.17 113.3 145.27 114 145.17V141.77C113.2 141.67 111.1 141.37 110 141.27L99.8 139.57C96.2 138.97 94.3 140.57 94.3 144.37C94.3 149.27 97.3 150.97 100.1 151.57ZM105.3 144.17L106.1 144.27C109.4 144.77 111.1 145.67 111.1 147.97C111.1 149.67 109.7 150.07 108.3 149.87C106.5 149.57 105.2 148.37 105.2 145.67C105.1 145.17 105.1 144.67 105.3 144.17Z" fill="#0B21E3"/>
<path d="M94.4 127.17C94.4 128.97 95.3 130.67 96.9 131.67C96.2 131.57 95.5 131.47 94.8 131.47V134.97C95.7 135.07 96.9 135.27 100.6 135.97L114.1 138.27V134.57L102.1 132.57C99.4 132.17 97.9 131.07 97.9 129.27C97.9 127.77 99 127.27 100.9 127.67L114.1 129.87V126.17L101.9 124.17C99.4 123.77 97.8 122.87 97.8 120.97C97.8 119.27 99.1 118.97 100.8 119.27L114.1 121.47V117.87L100.3 115.47C95.9 114.77 94.6 116.57 94.6 119.07C94.6 121.07 95.6 122.97 97.3 123.97C95.3 124.07 94.4 125.17 94.4 127.17Z" fill="#0B21E3"/>
<path d="M201.7 102.97C200.9 101.17 199.4 99.6699 197.5 98.9699L181.1 95.0699C179.6 90.1699 177.5 85.4699 174.9 81.0699L173.3 78.4699L166.1 77.4699V67.5699C166.1 36.6699 141.5 6.86994 111.4 0.969938C106.6 0.0699375 101.6 -0.230063 96.8 0.169937C84.3 -0.830063 72.7 2.46994 63.7 9.96994C53.2 18.6699 47.4 31.6699 47.4 46.6699V60.3699L31.4 58.0699C31.4 58.1699 30 61.0699 28.2 65.9699L0 76.1699L3.8 86.1699L23.7 78.9699C19.9 91.2699 16.2 107.37 16.2 123.17C16.2 154.57 15 231.87 14.9 232.67V233.37L15.4 233.47L157.9 258.27L191.4 214.67L188.2 132.17C187.6 124.47 186.6 116.87 185.1 109.37L192.3 113.07L192.5 113.17C196.4 114.57 200.7 112.57 202.2 108.67C202.7 106.77 202.6 104.67 201.7 102.97ZM170.1 95.0699L176.8 97.5699L175.6 100.87V100.97L169 98.4699C169.3 97.2699 169.7 96.0699 170.1 95.0699ZM176.9 93.7699L171.4 91.7699C172.3 89.4699 173 87.5699 173.6 86.0699C174.8 88.5699 175.9 91.1699 176.9 93.7699ZM137.7 250.77L128.1 249.17C128.2 241.37 129.3 170.17 129.3 140.37C129.3 121.67 134.7 102.47 139 90.1699L148.6 91.4699C144.2 104.07 138.7 123.67 138.7 142.67C138.9 171.77 137.8 240.47 137.7 250.77ZM141.4 73.8699L72 63.8699V43.6699C72 26.7699 82.6 13.8699 98.3 11.5699C98.4 11.5699 98.6 11.4699 98.7 11.4699C99.8 11.5699 100.9 11.7699 102.1 11.9699C123.8 16.1699 141.4 37.5699 141.4 59.5699V73.8699ZM63.5 41.7699C63.5 41.4699 63.5 41.0699 63.6 40.7699C63.7 40.4699 63.6 40.2699 63.7 39.9699C63.7 39.5699 63.8 39.0699 63.9 38.6699C63.9 38.5699 63.9 38.3699 64 38.2699C64.1 37.7699 64.2 37.2699 64.3 36.7699V36.5699C64.4 36.0699 64.5 35.4699 64.7 34.9699C66.1 28.9699 69.2 23.4699 73.8 19.2699C76.9 16.3699 80.7 14.2699 84.7 12.8699C74.7 19.0699 68.6 30.2699 68.6 43.7699V63.4699L63.7 62.7699V43.7699C63.5 43.0699 63.5 42.4699 63.5 41.7699ZM60.1 65.7699C59.3 67.7699 58.1 70.6699 56.8 74.3699L47.1 73.0699C48.5 69.2699 49.7 66.3699 50.5 64.3699L60.1 65.7699ZM45.9 76.4699L55.6 77.7699C51.3 90.4699 46.2 109.27 46.2 127.77C46.2 156.07 45.2 221.57 45 234.87L35.5 233.27C35.7 221.57 36.7 154.27 36.7 125.47C36.6 107.47 41.5 89.1699 45.9 76.4699ZM49.7 127.87C49.7 101.47 60.5 73.9699 63.7 66.2699L140.2 77.2699C136.9 85.0699 125.8 113.17 125.8 140.27C125.8 169.47 124.7 238.47 124.6 248.47L48.4 235.47C48.6 223.57 49.6 156.47 49.7 127.87ZM150 88.0699L140.4 86.7699C141.9 82.5699 143.3 79.4699 143.9 77.8699L153.5 79.2699C152.7 80.9699 151.4 84.0699 150 88.0699ZM162.5 67.5699V76.8699L157.6 76.1699V67.5699C157.6 66.6699 157.6 65.7699 157.5 64.9699V64.1699C157.5 63.5699 157.4 62.9699 157.4 62.2699L157.3 61.3699C157.2 60.7699 157.2 60.1699 157.1 59.5699C157.1 59.2699 157 59.0699 157 58.7699C156.7 57.0699 156.4 55.2699 156 53.5699C155.9 53.2699 155.9 53.0699 155.8 52.7699L155.3 50.9699C155.2 50.6699 155.1 50.3699 155.1 50.0699C154.9 49.4699 154.7 48.8699 154.5 48.2699C154.4 47.9699 154.3 47.7699 154.3 47.4699C153.7 45.7699 153.1 44.1699 152.4 42.5699C152.3 42.3699 152.2 42.0699 152.1 41.8699C151.8 41.2699 151.6 40.6699 151.3 40.0699L150.9 39.2699C150.6 38.6699 150.3 38.1699 150 37.5699C149.9 37.3699 149.8 37.0699 149.6 36.8699C148.8 35.2699 147.8 33.7699 146.9 32.2699L146.5 31.6699L145.4 30.0699L144.9 29.3699C144.5 28.8699 144.1 28.2699 143.7 27.7699L143.3 27.1699C142.2 25.7699 141.1 24.3699 139.9 22.9699L139.4 22.3699C139 21.8699 138.5 21.3699 138.1 20.9699L137.5 20.3699C137 19.8699 136.6 19.4699 136.1 18.9699L135.6 18.4699C134.3 17.2699 132.9 16.0699 131.6 14.9699L131 14.4699L129.5 13.2699L128.8 12.7699C128.3 12.3699 127.8 12.0699 127.3 11.6699C127.1 11.4699 126.9 11.3699 126.6 11.1699C125.9 10.6699 125.1 10.1699 124.4 9.66994C123.7 9.16994 122.9 8.76994 122.2 8.36994L121.4 7.96994L120.4 7.46994C144.2 16.5699 162.5 41.6699 162.5 67.5699ZM50.8 46.6699C50.8 32.7699 56.1 20.6699 65.8 12.7699C74.1 5.86994 84.9 2.76994 96.5 3.76994C98.4 3.96994 100.2 4.16994 102.1 4.56994C130.7 10.1699 154 38.3699 154 67.5699V75.7699L144.9 74.4699V59.5699C144.9 35.8699 126 12.9699 102.7 8.46994C91.3 6.26994 80.5 8.66994 72.4 15.3699C66.2 20.5699 62 27.7699 60.6 35.7699V35.9699C60.5 36.5699 60.4 37.0699 60.3 37.6699C60.3 37.7699 60.3 37.9699 60.2 38.0699C60.1 38.5699 60.1 39.0699 60 39.5699C60 39.8699 60 40.1699 59.9 40.4699C59.8 40.8699 59.8 41.2699 59.8 41.5699V62.0699L50.7 60.5699L50.8 46.6699ZM5.7 81.6699L4.4 78.2699L26.4 70.2699C25.9 71.6699 25.4 73.1699 24.9 74.6699L5.7 81.6699ZM33.5 61.9699L46.9 63.9699C45.9 66.2699 44.6 69.7699 43.1 74.0699C38.5 86.9699 33.2 106.37 33.2 125.57C33.2 153.87 32.2 219.67 32 232.77L18.4 230.47C18.7 217.27 19.6 151.57 19.6 123.37C19.6 97.0699 30.1 69.9699 33.5 61.9699ZM156.4 146.47C156.4 174.97 155.4 241.27 155.2 253.87L141.2 251.47C141.3 243.27 142.4 172.47 142.4 142.77C142.4 113.07 154.8 84.7699 157 79.8699L171.4 81.9699C169.4 86.2699 156.4 116.97 156.4 146.47ZM158.8 251.07C159.1 233.47 160 173.27 160 146.47C160 130.47 164 113.97 167.8 101.87L175.3 104.67L180.7 107.47C182.5 115.67 183.8 124.07 184.4 132.47L187.5 213.67L158.8 251.07ZM198.6 107.47C197.8 109.47 195.6 110.57 193.6 109.87L178.8 102.37L180.2 98.4699L182.3 98.9699L196.3 102.37C198.4 103.17 199.4 105.47 198.6 107.47Z" fill="#0B21E3"/>
</g>
</g>
<defs>
<clipPath id="clip0_1268_1126">
<rect width="202.5" height="258.27" fill="white"/>
</clipPath>
<clipPath id="clip1_1268_1126">
<rect width="202.5" height="258.27" fill="white"/>
</clipPath>
</defs>
</svg>
