<svg xmlns="http://www.w3.org/2000/svg" viewBox="0 0 400 400" width="27" height="33">
  		<path d="M250.8,30.1c14,1.1,28,1.8,41.9,3.4c15.9,1.8,31.7,4.2,47.5,6.7c8.7,1.4,12.7,6.2,12.2,15.8c-0.8,14.9-0.6,29.8,0,44.7
			c0.3,8.1-3,12.4-10.3,13.8c-12.4,2.4-24.8,5.2-37.4,6.3c-63.5,5.6-127.1,5.4-190.7,1.6c-4.4-0.3-12.1,1.5-11.5-6.1
			c0.6-7.5,7.7-4.7,12.3-4.4c69.5,4.2,138.9,4.6,208.2-3.9c18.8-2.3,18.8-2.4,18.7-21.1c0-8.2,0-16.3-0.1-24.5
			c0-0.5-0.3-1.1-0.3-1.2c-94.2,11.6-188.3,11.6-283.3,0c0,12.4-0.2,25.8,0.2,39.1c0,1.6,2.8,4.1,4.6,4.5c7.3,1.8,14.9,2.7,22.2,4.7
			c2.4,0.6,4.3,3.4,6.4,5.1c-2.5,1.6-4.8,3.5-7.4,4.8c-1.1,0.5-2.8-0.1-4.1-0.4c-32.2-4.8-32.2-4.8-32.3-37.1
			c0-8.7,0.6-17.5-0.2-26.2c-0.9-9.7,3.6-14.3,12.3-15.7c15.2-2.4,30.5-4.8,45.9-6.6c14.5-1.6,29.1-2.3,43.6-3.4
			C183.2,30.1,217,30.1,250.8,30.1z M333,49.8c-88.8-12-177.5-12-266.2,0C155.5,62,244.3,61.8,333,49.8z"/>
		<path d="M199.8,369.9c-35.3-2.8-70.6-5.2-105.9-8.8c-15.5-1.6-16.2-4.1-17.3-19.3C71.9,276.4,67,211,62.2,145.7
			c-0.4-5.1-1.2-10.2-0.6-15.1c0.3-2.8,3.1-5.3,4.8-7.9c1.8,2.4,4.9,4.7,5.1,7.2c2,22.4,3.6,44.9,5.2,67.3
			c3.5,48.5,7.1,97.1,10.4,145.6c0.4,6,3.6,7.8,8.4,8.2c26.6,2.1,53.2,5.1,79.9,6c43,1.4,86.1,0.5,128.9-5.8
			c6.4-0.9,8.7-3.6,9.1-10.2c4.9-70.1,10-140.3,15.4-210.4c0.2-2.8,3.4-7.3,5.4-7.5c5.8-0.4,5,4.7,4.7,8.6
			c-2.5,35.6-5,71.3-7.6,106.9c-2.5,34.8-5.3,69.6-7.7,104.3c-1,13.7-2.2,16.5-15.8,18.1c-25.7,2.9-51.5,4.8-77.3,6.6
			c-10.1,0.7-20.3,0.1-30.4,0.1C199.9,368.4,199.9,369.1,199.8,369.9z"/>
</svg>
