<svg width="387" height="319" viewBox="0 0 387 319" fill="none" xmlns="http://www.w3.org/2000/svg">
<path d="M3.66956 146.97C3.66956 140.092 7.03804 133.649 12.6867 129.725L148.97 35.0302C153.149 32.1268 158.239 30.8393 163.296 31.4069L365.343 54.0887C375.967 55.2814 384 64.2662 384 74.9576V170.928C384 176.34 381.91 181.543 378.167 185.452L261.601 307.174C256.527 312.472 249.057 314.738 241.895 313.153L10.7243 261.977C6.60304 261.065 3.66956 257.411 3.66956 253.19V146.97Z" fill="#0B21E3" stroke="#0B21E3" stroke-width="6"/>
<path d="M3 166.161C3 157.821 7.93524 150.271 15.5745 146.925L151.902 87.2117C154.802 85.9414 157.952 85.3433 161.116 85.4622L363.789 93.0813C375.072 93.5054 384 102.775 384 114.066V138.808C384 144.917 381.34 150.722 376.714 154.711L253.418 261.039C248.584 265.208 242.116 266.951 235.842 265.777L10.3449 223.588C6.08649 222.791 3 219.074 3 214.741V166.161Z" fill="#FFFCF3" stroke="#0B21E3" stroke-width="6"/>
<path d="M3 126.035C3 117.695 7.93524 110.145 15.5745 106.799L153.352 46.4509C155.43 45.5406 157.643 44.9731 159.902 44.7705L361.125 26.732C373.414 25.6303 384 35.3099 384 47.6481V98.6823C384 104.791 381.34 110.596 376.714 114.586L253.418 220.913C248.584 225.082 242.116 226.826 235.842 225.652L10.3449 183.462C6.08649 182.665 3 178.948 3 174.616V126.035Z" fill="#0B21E3" stroke="#0B21E3" stroke-width="6"/>
<path d="M3 117.137C3 110.132 6.49262 103.589 12.3122 99.69L150.09 7.39244C154.222 4.62429 159.203 3.41262 164.145 3.97322L364.028 26.6471C374.642 27.8511 382.661 36.8311 382.661 47.5132V58.5054C382.661 64.6396 379.979 70.4672 375.319 74.4568L253.413 178.839C248.584 182.974 242.142 184.698 235.893 183.529L10.3449 141.33C6.08649 140.533 3 136.816 3 132.483V117.137Z" fill="#FFFCF3" stroke="#0B21E3" stroke-width="6"/>
<rect x="187.366" y="42.155" width="6.22669" height="23.6407" rx="3.11335" transform="rotate(30.0129 187.366 42.155)" fill="#0B21E3"/>
<rect x="187.366" y="42.155" width="6.22669" height="23.6407" rx="3.11335" transform="rotate(30.0129 187.366 42.155)" fill="#0B21E3"/>
<rect x="192.223" y="68.5811" width="6.22669" height="17.2173" rx="3.11335" transform="rotate(12.982 192.223 68.5811)" fill="#0B21E3"/>
<rect x="192.223" y="68.5811" width="6.22669" height="17.2173" rx="3.11335" transform="rotate(12.982 192.223 68.5811)" fill="#0B21E3"/>
<rect x="220.65" y="76.5868" width="6.22669" height="23.6407" rx="3.11335" transform="rotate(69.7101 220.65 76.5868)" fill="#0B21E3"/>
<rect x="220.65" y="76.5868" width="6.22669" height="23.6407" rx="3.11335" transform="rotate(69.7101 220.65 76.5868)" fill="#0B21E3"/>
<rect x="237.654" y="61.5358" width="6.22669" height="23.6407" rx="3.11335" transform="rotate(118.174 237.654 61.5358)" fill="#0B21E3"/>
<rect x="237.654" y="61.5358" width="6.22669" height="23.6407" rx="3.11335" transform="rotate(118.174 237.654 61.5358)" fill="#0B21E3"/>
<rect x="162.777" y="69.2919" width="6.22669" height="23.6407" rx="3.11335" transform="rotate(94.0174 162.777 69.2919)" fill="#0B21E3"/>
<rect x="162.777" y="69.2919" width="6.22669" height="23.6407" rx="3.11335" transform="rotate(94.0174 162.777 69.2919)" fill="#0B21E3"/>
<rect x="233.95" y="87.493" width="6.22669" height="20.5563" rx="3.11335" transform="rotate(12.6171 233.95 87.493)" fill="#0B21E3"/>
<rect x="233.95" y="87.493" width="6.22669" height="20.5563" rx="3.11335" transform="rotate(12.6171 233.95 87.493)" fill="#0B21E3"/>
<rect x="292.065" y="55.9041" width="6.22669" height="20.5563" rx="3.11335" transform="rotate(37.5802 292.065 55.9041)" fill="#0B21E3"/>
<rect x="292.065" y="55.9041" width="6.22669" height="20.5563" rx="3.11335" transform="rotate(37.5802 292.065 55.9041)" fill="#0B21E3"/>
<rect x="171.261" y="108.851" width="6.22669" height="21.1558" rx="3.11335" transform="rotate(148.467 171.261 108.851)" fill="#0B21E3"/>
<rect x="171.261" y="108.851" width="6.22669" height="21.1558" rx="3.11335" transform="rotate(148.467 171.261 108.851)" fill="#0B21E3"/>
<rect x="255.015" y="74.8226" width="6.22669" height="23.6407" rx="3.11335" transform="rotate(160.271 255.015 74.8226)" fill="#0B21E3"/>
<rect x="255.015" y="74.8226" width="6.22669" height="23.6407" rx="3.11335" transform="rotate(160.271 255.015 74.8226)" fill="#0B21E3"/>
<rect x="119.171" y="107.149" width="6.22669" height="20.8932" rx="3.11335" transform="rotate(-172.319 119.171 107.149)" fill="#0B21E3"/>
<rect x="119.171" y="107.149" width="6.22669" height="20.8932" rx="3.11335" transform="rotate(-172.319 119.171 107.149)" fill="#0B21E3"/>
<rect x="169.625" y="52.5238" width="6.22669" height="19.5303" rx="3.11335" transform="rotate(178.515 169.625 52.5238)" fill="#0B21E3"/>
<rect x="169.625" y="52.5238" width="6.22669" height="19.5303" rx="3.11335" transform="rotate(178.515 169.625 52.5238)" fill="#0B21E3"/>
<rect x="214.102" y="125.465" width="6.22669" height="19.5303" rx="3.11335" transform="rotate(178.515 214.102 125.465)" fill="#0B21E3"/>
<rect x="214.102" y="125.465" width="6.22669" height="19.5303" rx="3.11335" transform="rotate(178.515 214.102 125.465)" fill="#0B21E3"/>
<rect x="192.982" y="99.4628" width="6.22669" height="19.5303" rx="3.11335" transform="rotate(99.7466 192.982 99.4628)" fill="#0B21E3"/>
<rect x="192.982" y="99.4628" width="6.22669" height="19.5303" rx="3.11335" transform="rotate(99.7466 192.982 99.4628)" fill="#0B21E3"/>
<rect x="260.586" y="39.8644" width="6.22669" height="19.5303" rx="3.11335" transform="rotate(99.7466 260.586 39.8644)" fill="#0B21E3"/>
<rect x="260.586" y="39.8644" width="6.22669" height="19.5303" rx="3.11335" transform="rotate(99.7466 260.586 39.8644)" fill="#0B21E3"/>
</svg>
