<svg width="440" height="613" viewBox="0 0 440 613" fill="none" xmlns="http://www.w3.org/2000/svg">
<path d="M187.439 341.898C186.306 285.182 154.311 244.063 116.37 250.869C78.4297 257.391 48.4168 309.003 49.5493 366.002C50.6819 416.479 75.8814 454.479 108.159 457.598C112.407 457.882 116.37 457.882 120.618 457.031C158.842 450.225 188.571 398.614 187.439 341.898ZM120.618 453.345C116.654 453.912 112.69 454.195 108.726 453.912C77.5802 450.792 53.2302 414.211 52.0976 365.719C50.965 310.988 79.5622 261.078 116.37 254.839C120.334 254.272 124.298 253.988 128.262 254.272C159.408 257.391 183.758 293.973 184.89 342.465C186.023 397.196 157.426 446.822 120.618 453.345Z" fill="#0B21E3"/>
<path d="M112.69 460.718C110.991 460.718 109.575 460.718 107.876 460.434C73.3333 457.031 47.5675 417.33 46.435 365.719C45.3024 307.301 76.1647 254.272 115.804 247.466C130.811 244.914 146.1 249.167 157.426 259.093C177.529 275.54 189.987 306.451 190.837 341.614C191.969 400.032 161.107 453.061 121.467 459.867C118.353 460.434 115.521 460.718 112.69 460.718ZM124.015 256.824C121.467 256.824 119.202 257.108 116.937 257.391C81.8275 263.63 54.0798 311.839 55.2123 365.152C56.0618 411.659 78.713 447.39 109.009 450.509C112.69 450.793 116.371 450.793 120.051 450.225C155.161 443.987 182.909 395.778 181.776 342.465C180.643 295.958 158.275 260.227 127.979 257.108C126.564 257.108 125.431 256.824 124.015 256.824Z" fill="#0B21E3"/>
<path d="M130.528 360.614H131.943C139.022 359.48 144.402 343.316 143.835 323.749C143.835 315.808 142.42 307.868 139.871 300.495C137.323 294.256 133.925 290.853 130.528 291.421C125.431 292.271 121.184 301.062 119.485 312.973C118.919 310.137 118.07 307.301 116.937 304.465C114.389 298.226 110.991 294.824 107.593 295.391C104.196 295.958 100.798 300.212 98.5329 307.585C96.2678 315.525 95.4183 323.749 95.7015 332.256C95.9846 350.405 101.364 364.017 107.877 364.584H109.292C114.389 363.733 118.636 355.226 120.335 343.032C122.034 353.525 125.997 360.33 130.528 360.614ZM131.943 356.927C129.112 357.495 126.281 354.092 124.299 348.42C125.148 348.987 126.281 348.987 127.13 348.987C130.811 348.42 133.925 342.748 133.642 336.226C133.642 333.39 132.793 330.555 131.094 328.002L141.57 326.301C141.287 342.181 137.04 356.077 131.943 356.927ZM130.528 295.391H131.377C133.642 295.674 135.907 298.226 137.606 302.764C139.871 309.003 141.004 315.808 141.287 322.614L120.901 326.017C120.901 310.137 125.148 296.241 130.528 295.391ZM100.798 309.003C102.497 303.047 105.045 299.644 107.593 299.077H108.443C110.708 299.361 112.973 301.913 114.672 306.45C116.937 312.689 118.07 319.495 118.353 326.301L97.9666 329.704C97.9666 322.898 98.816 315.808 100.798 309.003ZM109.009 360.898C106.178 361.465 103.346 358.062 101.364 352.39C102.214 352.957 103.346 352.957 104.196 352.957C107.877 352.39 110.991 346.719 110.708 340.196C110.708 337.36 109.858 334.525 108.16 331.972L118.636 330.271C118.353 346.151 114.106 360.047 109.009 360.898Z" fill="#0B21E3"/>
<path d="M86.6408 374.793L75.8814 380.777L85.2251 367.137L84.3756 363.195L68.5198 372.269L69.0861 375.644L79.5622 369.972L70.5018 383.613L71.3512 387.554L87.4902 378.48L86.6408 374.793Z" fill="#0B21E3"/>
<path d="M93.1533 388.972C92.587 387.838 91.4544 386.987 90.0387 386.42C88.623 386.136 87.4905 386.42 86.3579 387.271C84.6591 388.405 83.2434 389.823 82.1108 391.808C80.1288 394.36 78.9963 397.763 78.7131 400.882C78.43 403.435 78.9963 405.987 80.412 407.972C81.2614 409.673 83.2434 410.808 85.2254 410.524C87.7736 409.673 90.0387 407.972 91.4544 405.42C93.4364 402.867 94.569 399.748 95.1353 396.629C95.1353 393.793 94.569 391.241 93.1533 388.972ZM89.4725 402.3C88.623 404.002 87.2073 405.136 85.5085 405.987C84.3759 406.27 83.2434 405.703 82.6771 404.852C81.8277 403.435 81.5445 402.017 81.8277 400.599C82.1108 398.614 82.9602 396.345 84.3759 394.644C85.2253 392.942 86.6411 391.808 88.3399 390.957C89.4725 390.673 90.605 391.241 91.1713 392.375C92.0207 393.793 92.3039 395.211 92.0207 396.629C91.4544 398.614 90.605 400.599 89.4725 402.3Z" fill="#0B21E3"/>
<path d="M107.877 402.584C107.027 401.733 106.178 400.883 105.045 400.316L99.6655 397.48L93.1533 421.584L95.7016 423.002L98.533 413.077L99.0993 413.36C99.6655 413.644 99.9487 413.927 100.232 414.211C100.515 414.495 100.515 415.062 100.798 415.629C100.798 416.196 101.081 417.614 101.081 419.883L101.648 426.121L104.762 427.539L104.479 422.151C104.479 420.733 104.196 419.032 104.196 417.614C103.913 416.763 103.63 415.912 103.346 414.778C104.479 415.062 105.611 414.778 106.461 413.927C107.593 412.793 108.16 411.375 108.443 409.957C108.726 408.539 109.009 407.121 109.009 405.987C108.726 404.569 108.443 403.718 107.877 402.584ZM105.611 408.823C105.328 409.39 105.045 409.957 104.762 410.524C104.479 410.808 104.196 411.092 103.63 411.092C102.78 410.808 101.931 410.524 101.364 410.241L99.3824 409.39L101.081 403.435L103.063 404.569C103.913 404.853 104.479 405.42 105.045 405.704C105.328 405.987 105.611 406.554 105.611 407.121C105.611 407.405 105.611 407.972 105.611 408.823Z" fill="#0B21E3"/>
<path d="M121.467 401.733L119.768 419.315L116.654 402.896L112.407 404.002L113.539 428.985L116.088 428.418L115.238 408.567L118.919 427.567L121.467 427L123.449 406.838L124.299 426.404L126.847 425.837L125.714 400.882L121.467 401.733Z" fill="#0B21E3"/>
<path d="M132.227 395.806L135.624 421.328L138.173 418.776L137.323 413.105L142.136 408.567L144.968 412.254L147.516 409.702L134.492 393.538L132.227 395.806ZM140.154 405.448L136.757 408.567L135.341 399.209L140.154 405.448Z" fill="#0B21E3"/>
<path d="M153.462 393.538L142.703 382.45L141.004 385.881L154.028 399.465L159.974 387.299L157.709 385.031L153.462 393.538Z" fill="#0B21E3"/>
<path d="M224.53 605.344L214.054 598.254L326.178 436.926L316.834 90.9301L329.575 90.6465L338.919 440.584L224.53 605.344Z" fill="#0B21E3"/>
<path d="M337.14 433.89L328.629 443.387L428.296 532.983L436.806 523.486L337.14 433.89Z" fill="#0B21E3"/>
<path d="M224.247 613C217.452 613 213.488 612.716 212.638 612.716L206.409 612.149L215.47 424.987C221.699 260.794 251.995 203.227 253.411 200.959L311.738 87.5268L79.2793 23.4661L82.677 11.2722L329.859 79.303L330.708 78.7358L412.819 220.526C427.542 242.645 435.47 268.734 435.47 295.391L440 533.881L437.735 535.866C354.209 606.478 257.375 613 224.247 613ZM219.717 600.239C245.2 600.522 344.016 597.119 426.976 528.493L422.729 295.391C422.729 271.286 415.367 247.466 402.059 227.332L323.629 92.0641L264.453 206.914C264.17 207.481 234.157 265.048 228.211 425.554L219.717 600.239Z" fill="#0B21E3"/>
<path d="M208.391 612.745C43.3205 524.835 3.11454 475.492 1.4157 473.479L0 471.778V469.509C11.6088 219.392 81.2613 15.2143 81.8276 13.2292L93.7195 17.4829C93.1532 19.468 24.6332 220.526 12.7413 467.524C21.2355 476.882 68.8031 524.24 214.054 601.657L208.391 612.717V612.745Z" fill="#0B21E3"/>
<path d="M323.63 88.406C320.798 88.406 318.25 86.4209 317.401 83.5851C316.551 80.1822 318.533 76.7792 321.931 75.9285L341.184 70.824L129.678 12.6618L89.4726 22.5871C86.0749 23.4379 82.6772 21.4528 81.8278 18.0498C80.9784 14.6469 82.9603 11.2439 86.358 10.3932L128.263 0.212685C129.395 -0.0708949 130.528 -0.0708949 131.377 0.212685L366.95 64.8689C369.782 65.7196 371.48 68.2718 371.48 71.1076C371.48 73.9434 369.498 76.4956 366.667 77.0628L324.762 88.1224C324.762 88.1224 324.196 88.406 323.63 88.406Z" fill="#0B21E3"/>
</svg>
