<svg width="427" height="362" viewBox="0 0 427 362" fill="none" xmlns="http://www.w3.org/2000/svg">
<g clip-path="url(#clip0_1406_657)">
<path d="M417.251 72.9553L364.524 49.7221L251.683 19.8605L201.361 15.8234L189.376 61.1136L196.199 65.497L159.911 255.413L244.217 287.518L333.369 301.315L396.701 118.557L406.158 114.873L417.251 72.9553Z" fill="#FFFCF3"/>
<path d="M274.404 20.6828C263.768 18.773 253.214 16.5557 242.551 15.0499C230.359 13.3042 218.12 12.0394 205.861 10.8515C199.106 10.2154 195.154 13.1179 193.573 20.5959C191.137 32.2071 187.957 43.6215 184.48 54.9571C182.609 61.1246 184.189 65.0795 189.333 67.5924C198.067 71.8778 206.72 76.4707 215.867 79.7961C261.954 96.5987 309.296 108.962 357.369 118.559C360.703 119.194 366.063 122.093 367.163 116.133C368.243 110.25 362.393 111.005 358.91 110.33C306.367 99.8797 254.671 86.5283 204.86 66.355C191.346 60.8869 191.367 60.81 195.245 46.4549C196.913 40.1515 198.561 33.9249 200.303 27.6412C200.405 27.2569 200.75 26.8547 200.771 26.7778C268.47 54.2348 338.454 72.7551 411.468 82.5355C408.945 92.0675 406.368 102.407 403.365 112.553C403.039 113.782 400.448 115.153 399.028 115.106C393.233 115.053 387.398 114.249 381.562 114.35C379.655 114.339 377.672 116.117 375.764 117.011C377.298 118.733 378.622 120.646 380.291 122.157C381.008 122.758 382.394 122.631 383.422 122.656C408.346 125.304 408.346 125.304 414.991 100.495C416.761 93.8069 418.105 86.9242 420.47 80.3939C423.113 73.1146 420.702 68.6928 414.516 65.9044C403.7 61.0679 392.809 56.2117 381.722 51.7971C371.263 47.7133 360.547 44.3018 349.987 40.6024C324.68 33.9875 299.542 27.3352 274.404 20.6828ZM209.263 19.6482C277.746 27.9008 343.715 45.3583 407.242 72.0403C338.792 63.961 272.79 46.3301 209.263 19.6482Z" fill="#0B21E0"/>
<path d="M243.21 291.927C270.033 296.722 296.775 301.825 323.761 306.005C335.614 307.825 336.643 306.041 340.553 294.574C357.353 245.225 374.301 195.916 391.155 146.664C392.49 142.823 394.122 139.06 394.673 135.175C395.019 132.964 393.446 130.491 392.71 128.158C390.883 129.648 388.11 130.806 387.452 132.689C381.408 149.514 375.641 166.495 369.894 183.399C357.425 219.992 344.861 256.643 332.541 293.276C331.023 297.809 328.277 298.563 324.626 297.926C304.415 294.305 284.022 291.376 263.981 286.813C231.717 279.426 199.845 270.251 169.295 256.985C164.719 255.033 163.557 252.505 164.602 247.353C175.218 192.502 185.706 137.535 195.95 82.5861C196.371 80.3944 194.906 76.3054 193.459 75.758C189.227 74.309 188.785 78.3869 188.214 81.4439C182.832 109.302 177.429 137.237 172.121 165.114C166.901 192.357 161.904 219.659 156.63 246.806C154.587 257.534 154.91 259.923 164.699 263.829C183.222 271.117 202.024 277.655 220.846 284.116C228.215 286.642 235.923 288.189 243.435 290.176C243.441 290.754 243.299 291.292 243.21 291.927Z" fill="#0B21E0"/>
</g>
<g clip-path="url(#clip1_1406_657)">
<path d="M8.10028 107.021L62.7456 88.752L177.86 69.4297L228.341 70.0531L236.096 116.256L228.898 119.991L247.507 312.445L160.598 336.635L70.5536 342.147L24.3546 154.324L15.278 149.783L8.10028 107.021Z" fill="#FFFCF3"/>
<path d="M155.161 68.152C165.928 67.2317 176.642 65.9977 187.399 65.4822C199.699 64.8689 212.003 64.7388 224.319 64.6871C231.105 64.6771 234.771 67.9318 235.655 75.5238C237.01 87.3102 239.123 98.9693 241.539 110.577C242.833 116.891 240.895 120.683 235.541 122.711C226.449 126.172 217.409 129.947 207.995 132.414C160.553 144.893 112.273 152.835 63.5188 157.955C60.141 158.28 54.5359 160.672 53.9907 154.636C53.4587 148.678 59.2141 149.97 62.7437 149.619C116.027 144.062 168.734 135.537 220.194 120.046C234.155 115.848 234.142 115.77 231.605 101.118C230.525 94.6877 229.459 88.3357 228.304 81.918C228.238 81.5259 227.931 81.0936 227.918 81.0152C157.975 102.108 86.5798 114.092 12.9753 117.094C14.6075 126.818 16.2196 137.352 18.2737 147.73C18.4843 148.985 20.9378 150.589 22.3561 150.674C28.1317 151.155 34.0163 150.893 39.8182 151.532C41.7181 151.697 43.5282 153.651 45.3453 154.716C43.6591 156.29 42.1641 158.072 40.3626 159.423C39.5938 159.955 38.2251 159.701 37.1992 159.631C12.1369 159.968 12.1369 159.968 7.80941 134.651C6.66424 127.829 5.96113 120.851 4.20899 114.131C2.24935 106.639 5.05806 102.458 11.4746 100.252C22.6911 96.4345 33.9834 92.604 45.4307 89.2312C56.2214 86.1299 67.2064 83.7216 78.0629 81.0124C103.872 76.7609 129.517 72.4564 155.161 68.152ZM220.12 73.1324C151.167 75.0308 83.8695 86.3269 18.1514 107.033C87.055 105.304 154.402 93.8388 220.12 73.1324Z" fill="#0B21E0"/>
<path d="M161.195 341.117C134.044 343.417 106.946 346.03 79.6891 347.703C67.7185 348.422 66.8583 346.551 64.023 334.771C51.8485 284.083 39.5223 233.42 27.2851 182.824C26.3103 178.875 25.032 174.978 24.8422 171.059C24.7013 168.825 26.4966 166.508 27.4442 164.252C29.1258 165.905 31.7805 167.314 32.2613 169.249C36.7273 186.56 40.9028 204.001 45.0653 221.363C54.1048 258.951 63.2333 296.605 72.1211 334.218C73.2143 338.872 75.8791 339.876 79.5736 339.579C100.032 337.838 120.608 336.803 140.984 334.108C173.793 329.73 206.375 323.535 238.019 313.144C242.756 311.624 244.146 309.213 243.581 303.987C238.071 248.39 232.7 192.69 227.57 137.03C227.353 134.809 229.189 130.873 230.68 130.461C235.028 129.409 235.092 133.51 235.378 136.607C238.167 164.843 240.969 193.157 243.683 221.405C246.367 249.014 248.823 276.66 251.57 304.178C252.614 315.049 252.072 317.397 241.964 320.384C222.847 325.931 203.523 330.707 184.185 335.404C176.614 337.239 168.796 338.067 161.133 339.354C161.073 339.928 161.166 340.477 161.195 341.117Z" fill="#0B21E0"/>
</g>
<defs>
<clipPath id="clip0_1406_657">
<rect width="236.344" height="271.127" fill="white" transform="matrix(-0.966722 -0.255828 -0.255828 0.966722 426.544 60.4635)"/>
</clipPath>
<clipPath id="clip1_1406_657">
<rect width="236.344" height="271.127" fill="white" transform="translate(0 93.725) rotate(-9.52839)"/>
</clipPath>
</defs>
</svg>
