<svg xmlns="http://www.w3.org/2000/svg" id="pints" viewBox="0 0 202 245.69">
  <path d="M4.8,150.24c-1.3,.1-2.6-.1-3.9-.5l-.9-1,.6-1.8c.3-.3,8-6.6,41.7-16.8s42.6-9.1,43-9.1l1.5,1.3-.3,1.3c-.4,.6-5,6.2-41.4,17.5-24,7.6-35.2,9.1-40.3,9.1Zm74.2-25.4c-5.9,.8-16.8,2.9-35.8,8.6-20,6-30.6,10.7-35.9,13.4,5.4-.4,16.2-2.3,36.7-8.7,20-6.4,30-10.7,35-13.3Z" fill="currentColor" />
  <path d="M8.1,165.64h-1.5l-1.1-.1L.2,148.74l3.2-1,4.6,14.6c3.8,0,17.2-.7,41.7-8.7s35.4-15.2,38.3-17.4l-4.4-13,3.2-1.1,5.2,15.2-.8,.7c-.4,.4-10.4,8.9-40.4,18.7-24.9,8.1-38.4,8.9-42.7,8.9Z" fill="currentColor" />
  <path d="M53.1,237.04c-8.7,0-13.7-2.1-14.1-2.2l-.6-.3L9.5,164.84l3.1-1.3,28.4,68.3c2.8,.9,14.8,4.2,32.3-1.9,17.5-6,24.4-14.7,25.9-16.8l-14.5-73.4,3.3-.6,14.7,74.6-.3,.5c-.3,.5-6.8,11.5-28,18.8-6.8,2.6-14,3.9-21.3,4Z" fill="currentColor" />
  <path d="M82.3,177.04c-7.9-12.2-24.2-15.7-36.5-7.8-12.2,7.9-15.7,24.3-7.8,36.5,6.9,10.7,20.5,14.9,32.3,10,1.5-.6,2.9-1.4,4.2-2.2,12.2-8,15.6-24.3,7.8-36.5Zm-8.4,35.7c-1.3,.8-2.7,1.6-4.1,2.1-11.3,4.7-24.4,.6-31.1-9.7-7.6-11.8-4.2-27.5,7.5-35.2,1.3-.8,2.7-1.6,4.1-2.1,11.3-4.7,24.4-.6,31.1,9.7,7.7,11.8,4.3,27.5-7.5,35.2Z" fill="currentColor" />
  <path d="M60.1,218.54c-9.2,0-17.8-4.7-22.9-12.4-8.2-12.6-4.5-29.5,8.1-37.6,12.6-8.2,29.5-4.6,37.7,8.1,3.9,6,5.3,13.4,3.7,20.5-1.5,7.1-5.7,13.2-11.8,17.2-1.4,.9-2.8,1.7-4.3,2.3-3.3,1.2-6.9,1.9-10.5,1.9Zm0-51.8c-3.2,0-6.4,.6-9.4,1.9-1.4,.6-2.7,1.3-3.9,2.1-5.5,3.5-9.3,9.1-10.7,15.5-1.4,6.4-.2,13,3.4,18.5,6.4,10,19.1,13.9,30.1,9.4,1.4-.6,2.7-1.3,3.9-2.1,5.5-3.5,9.3-9.1,10.7-15.5,1.4-6.4,.2-13-3.4-18.5-4.5-7-12.3-11.3-20.7-11.3h0Z" fill="currentColor" />
  <path d="M65.1,190.84c.2-.1,.3-.2,.5-.2,2.3-1.5,2-5.9-.7-10.1-1.1-1.8-2.6-3.3-4.5-4.4-1.7-1-3.3-1.1-4.4-.4-1.7,1.1-2,3.7-1,6.6-.6-.6-1.3-1-2-1.5-1.7-1-3.3-1.1-4.4-.3s-1.7,2.2-1.5,4.2c.3,2.1,1,4.1,2.2,5.9,2.5,3.9,6.1,6,8.4,5,.2-.1,.3-.2,.5-.2,1.7-1.1,2-3.7,1-6.6,2.1,1.8,4.3,2.6,5.9,2Zm0-1c-.9,.6-2.3,.3-3.8-.6,.4,0,.7-.2,1.1-.4,1.2-.9,1.5-2.6,.6-3.9-.4-.7-1.1-1.2-1.9-1.4l3.3-2.2c2,3.6,2.4,7.3,.7,8.5h0Zm-8.5-13.3c.1-.1,.2-.1,.3-.2,1.1-.3,2.2-.1,3.1,.5,1.5,.9,2.9,2.2,3.9,3.7l-6.6,4.2c-2.1-3.3-2.5-7.1-.7-8.2h0Zm-8.5,8.1c-.1-1.6,.2-2.8,1.1-3.3,.1-.1,.2-.1,.3-.2,1.1-.3,2.2-.1,3.1,.5,1.5,.9,2.9,2.2,3.9,3.7l-6.6,4.2c-1-1.4-1.6-3.1-1.8-4.9h0Zm9.7,9.9c-.9,.6-2.3,.3-3.8-.6,.4,0,.7-.2,1.1-.4,1.2-.9,1.5-2.6,.6-3.9-.4-.7-1.1-1.2-1.9-1.4l3.3-2.2c2,3.6,2.3,7.4,.7,8.5h0Z" fill="currentColor" />
  <polygon points="52 201.34 49.1 204.44 50.4 199.84 49.7 199.14 45.3 203.84 46 204.54 48.8 201.44 47.6 205.94 48.3 206.74 52.7 202.04 52 201.34" fill="currentColor" />
  <path d="M56,203.34c-.4-.2-.9-.2-1.4,0-.5,.1-.9,.4-1.2,.8-.4,.5-.7,1.1-.9,1.7-.3,.8-.3,1.8,0,2.6,.3,.6,.8,1.1,1.5,1.3,.7,.3,1.4,.2,2-.2,.7-.5,1.3-1.3,1.5-2.2,.3-.8,.3-1.7,.1-2.5-.3-.9-.9-1.4-1.6-1.5Zm.4,3.5c-.1,.6-.4,1.1-.9,1.5-.3,.3-.8,.3-1.2,.2-.4-.1-.7-.4-.8-.8-.2-.6-.1-1.2,.1-1.7,.1-.6,.4-1.1,.9-1.5,.3-.3,.8-.3,1.2-.2,.4,.1,.7,.4,.8,.8,.2,.6,.1,1.2-.1,1.7h0Z" fill="currentColor" />
  <path d="M62.8,203.84c-.4-.1-.8-.1-1.2,0l-2.2,.3,.9,6.3,1.1-.1-.3-2.6h.7c.1,0,.3,.1,.3,.2,.2,.3,.5,.6,.7,.9l1,1.3,1.2-.2-.8-1.1c-.2-.4-.5-.7-.8-1-.2-.2-.4-.3-.6-.5,.4-.1,.7-.4,.9-.7,.2-.4,.3-.8,.2-1.2,0-.4-.2-.7-.4-1-.1-.4-.4-.5-.7-.6Zm0,1.7c0,.2,0,.4-.1,.5s-.2,.2-.3,.3c-.3,.1-.6,.2-.9,.2l-.8,.1-.2-1.6,.8-.1c.3-.1,.6-.1,.9-.1,.1,0,.3,.1,.4,.2,.2,.2,.2,.4,.2,.5h0Z" fill="currentColor" />
  <polygon points="67.5 201.34 69.2 205.44 65.9 202.44 64.6 203.34 68.3 208.54 69.1 207.94 66.2 203.84 70 207.34 70.8 206.84 68.8 202.04 71.7 206.24 72.5 205.64 68.8 200.44 67.5 201.34" fill="currentColor" />
  <path d="M70.4,198.14l4.6,5,.6-1-1-1.1,1-1.8,1.5,.3,.6-1-6.6-1.3-.7,.9Zm4,.8l-.7,1.2-1.7-1.8,2.4,.6Z" fill="currentColor" />
  <polygon points="77.4 194.04 72.2 193.44 72.1 194.54 78.4 195.24 78.8 191.54 77.7 191.44 77.4 194.04" fill="currentColor" />
  <path d="M111.3,142.44c-1.3-.4-2.4-1.1-3.4-1.9l-.5-1.3,1.2-1.4c.4-.1,9.9-3.1,44.9,.2,35,3.3,42.9,7.6,43.2,7.8l.9,1.8-.8,1.1c-.6,.4-6.9,3.8-44.9,.7-25-2.2-35.9-5-40.6-7Zm78.3,4.4c-5.7-1.5-16.7-3.7-36.3-5.5-20.8-2-32.4-1.7-38.3-1.1,5.2,1.6,15.8,4,37.3,5.8,20.7,1.7,31.7,1.4,37.3,.8Z" fill="currentColor" />
  <path d="M108.5,158.04c-.9-.4-1.3-.6-1.4-.6l-1-.5,1.5-17.6,3.3,.3-1.3,15.2c3.5,1.4,16.1,5.8,41.9,7.7s38.5-.7,42.1-1.6l.8-13.7,3.3,.2-.9,16-1.1,.4c-.5,.2-13,4.3-44.4,2.1-26-1.9-38.8-6.3-42.8-7.9Z" fill="currentColor" />
  <path d="M123.3,241.14c-8-3.3-11.9-7.1-12.2-7.4l-.5-.5-.5-75.4h3.3l.5,74c2.2,1.9,12.1,9.4,30.6,10.5s28.2-4.4,30.3-5.8l14.2-73.4,3.3,.6-14.4,74.6-.5,.4c-.4,.3-10.6,8.1-33.1,6.8-7.1-.3-14.2-1.8-21-4.4Z" fill="currentColor" />
  <path d="M172.9,196.44c-2.7-14.3-16.5-23.7-30.8-21s-23.7,16.5-21,30.9c2.4,12.5,13.4,21.5,26.1,21.5,1.6,0,3.2-.2,4.8-.5,14.2-2.8,23.6-16.5,20.9-30.9Zm-21.1,30c-1.5,.3-3,.4-4.6,.4-12.3,.1-22.9-8.6-25.2-20.7-2.6-13.8,6.4-27.1,20.2-29.7,1.5-.3,3-.4,4.6-.5,12.3-.1,22.9,8.6,25.2,20.7,2.6,13.8-6.4,27.1-20.2,29.8Z" fill="currentColor" />
  <path d="M136.8,226.64c-8.6-3.5-14.8-11.1-16.5-20.1-2.8-14.8,6.9-29,21.7-31.8,14.8-2.8,29,6.9,31.8,21.7,1.4,7.1-.2,14.4-4.2,20.4s-10.3,10.1-17.4,11.4c-1.6,.3-3.3,.5-4.9,.5-3.7-.1-7.2-.7-10.5-2.1Zm19.5-48c-3-1.2-6.2-1.8-9.4-1.8-1.5,0-3,.2-4.4,.4-6.4,1.2-12.1,4.9-15.7,10.3-3.7,5.4-5.1,12-3.8,18.4,2.2,11.7,12.5,20.1,24.3,20,1.5,0,3-.2,4.4-.4,6.4-1.2,12.1-4.9,15.7-10.3,3.7-5.4,5.1-12,3.8-18.4-1.6-8.2-7.2-15.1-14.9-18.2h0Z" fill="currentColor" />
  <path d="M151.9,202.84h.5c2.7-.5,4.1-4.7,3.1-9.6-.4-2.1-1.2-4.1-2.5-5.8-1.2-1.5-2.6-2.2-4-2-1.9,.4-3.2,2.6-3.4,5.7-.3-.7-.8-1.4-1.3-2.1-1.2-1.5-2.6-2.2-4-2s-2.4,1.4-3,3.3c-.5,2-.6,4.2-.2,6.3,.9,4.5,3.4,7.8,5.9,7.8h.5c1.9-.4,3.2-2.6,3.4-5.7,1.4,2.5,3.2,4.1,5,4.1Zm.3-1c-1.1,.2-2.3-.6-3.3-2,.4,.1,.7,.1,1.1,.1,1.5-.4,2.4-1.9,2-3.4-.1-.8-.6-1.5-1.3-2l3.9-.7c.7,4-.4,7.6-2.4,8h0Zm-3-15.5h.3c1.1,.1,2.1,.7,2.7,1.7,1.1,1.4,1.8,3.1,2.2,4.9l-7.7,1.5c-.5-4.1,.6-7.7,2.5-8.1h0Zm-10.8,4.3c.5-1.5,1.3-2.5,2.2-2.7h.3c1.1,.1,2.1,.7,2.7,1.7,1.1,1.4,1.8,3.1,2.2,4.9l-7.6,1.5c-.3-1.8-.3-3.6,.2-5.4h0Zm5.1,12.8c-1.1,.2-2.3-.6-3.3-2,.4,.1,.7,.1,1.1,.1,1.5-.4,2.4-1.9,2-3.4-.1-.8-.6-1.5-1.3-2l3.9-.7c.8,4-.3,7.7-2.4,8h0Z" fill="currentColor" />
  <polygon points="135.7 207.64 131.8 209.44 134.8 205.64 134.4 204.74 128.6 207.44 129 208.34 132.8 206.54 129.9 210.24 130.3 211.24 136.1 208.54 135.7 207.64" fill="currentColor" />
  <path d="M138.7,211.04c-.4-.3-.8-.5-1.2-.6-.5,0-1,.1-1.4,.3-.6,.3-1.1,.7-1.5,1.2-.6,.7-1,1.5-1,2.4,0,.7,.3,1.3,.9,1.8,.5,.5,1.2,.7,1.9,.5,.9-.2,1.6-.7,2.2-1.5,.6-.6,1-1.5,1-2.3,0-.7-.3-1.4-.9-1.8Zm-1,3.4c-.3,.5-.8,.8-1.4,1-.4,.1-.8,0-1.2-.2-.3-.3-.5-.7-.4-1.1,.1-.6,.3-1.1,.7-1.5,.3-.5,.8-.8,1.4-1,.4-.1,.8,0,1.2,.3,.3,.3,.5,.7,.5,1.1-.1,.4-.3,1-.8,1.4h0Z" fill="currentColor" />
  <path d="M144.8,214.04c-.3-.2-.7-.4-1.1-.5l-2.2-.5-1.5,6.2,1,.3,.7-2.6h.2c.2,0,.3,.1,.5,.2,.1,.1,.2,.2,.2,.3,.1,.3,.2,.7,.3,1.1l.4,1.5,1.2,.3-.3-1.3c-.1-.4-.2-.8-.3-1.2-.1-.2-.2-.5-.4-.7,.4,0,.8-.1,1.1-.3,.3-.3,.6-.7,.7-1.1,.1-.3,.1-.7,0-1-.1-.2-.2-.5-.5-.7Zm-.6,1.6c0,.2-.1,.3-.2,.5-.1,.1-.2,.2-.4,.2-.3,0-.6-.1-.9-.2l-.8-.2,.4-1.6,.8,.2c.3,.1,.6,.1,.8,.3,.1,.1,.2,.2,.3,.3,0,.1,0,.3,0,.5h0Z" fill="currentColor" />
  <polygon points="150.1 213.44 150.1 217.94 148.2 213.84 146.7 214.24 148.1 220.44 149.1 220.24 148 215.34 150.1 220.04 151.1 219.74 151 214.64 152.1 219.54 153.1 219.34 151.6 213.04 150.1 213.44" fill="currentColor" />
  <path d="M154,211.54l2.3,6.3,.9-.7-.6-1.4,1.7-1.3,1.3,.9,.9-.7-5.6-3.7-.9,.6Zm3.4,2.3l-1.1,.9-.9-2.3,2,1.4Z" fill="currentColor" />
  <polygon points="162 210.44 157.4 207.94 156.9 208.84 162.5 211.94 164.2 208.64 163.3 208.14 162 210.44" fill="currentColor" />
  <path d="M17.4,6.04c-1.3-.4-2.4-1.1-3.4-2l-.5-1.3,1.2-1.4c.4-.1,9.9-3.1,44.9,.2s42.9,7.6,43.2,7.8l.9,1.8-.8,1.1c-.6,.4-6.9,3.8-44.9,.7-24.9-2.2-35.9-5.1-40.6-6.9Zm78.3,4.4c-5.7-1.5-16.7-3.7-36.3-5.5-20.8-2-32.4-1.7-38.3-1.1,5.2,1.6,15.8,4,37.3,5.8,20.7,1.6,31.7,1.3,37.3,.8h0Z" fill="currentColor" />
  <path d="M14.6,21.44c-.9-.4-1.3-.6-1.4-.6l-1-.5L13.7,2.74l3.3,.2-1.3,15.2c3.5,1.4,16.1,5.8,41.9,7.7s38.5-.7,42.1-1.6l.8-13.7,3.3,.2-.9,16-1.1,.4c-.5,.2-12.9,4.3-44.4,2.1-26-1.8-38.8-6.1-42.8-7.8Z" fill="currentColor" />
  <path d="M29.4,104.54c-8-3.3-11.9-7.1-12.2-7.4l-.5-.5-.5-75.4h3.3l.5,74c2.2,1.9,12.1,9.4,30.6,10.5,18.5,1,28.2-4.4,30.3-5.8l14.2-73.4,3.3,.6-14.5,74.7-.5,.4c-.4,.3-10.6,8.1-33.1,6.8-7-.2-14.2-1.8-20.9-4.5Z" fill="currentColor" />
  <path d="M79.1,60.04c-2.7-14.3-16.5-23.7-30.8-21s-23.7,16.5-21,30.9c2.4,12.5,13.4,21.5,26.1,21.4,1.6,0,3.2-.2,4.8-.5,14.2-2.7,23.5-16.5,20.9-30.8Zm-21.2,29.9c-1.5,.3-3,.4-4.6,.5-12.3,.1-22.9-8.6-25.2-20.7-2.6-13.8,6.4-27.1,20.2-29.7,1.5-.3,3-.4,4.6-.5,12.3-.1,22.9,8.6,25.2,20.7,2.6,13.7-6.4,27-20.2,29.7h0Z" fill="currentColor" />
  <path d="M42.9,90.14c-8.6-3.5-14.8-11.1-16.5-20.1-2.8-14.8,6.9-29,21.6-31.8,14.8-2.8,29,6.9,31.8,21.6,1.4,7.1-.2,14.4-4.2,20.4s-10.3,10.1-17.4,11.4c-1.6,.3-3.3,.5-4.9,.5-3.6,0-7.1-.7-10.4-2Zm19.5-48c-3-1.2-6.2-1.8-9.4-1.8-1.5,0-3,.2-4.4,.4-6.4,1.2-12.1,4.9-15.7,10.3-3.7,5.4-5,12-3.8,18.4,2.2,11.7,12.5,20.1,24.3,20,1.5,0,3-.2,4.4-.4,6.4-1.2,12.1-4.9,15.7-10.3,3.7-5.4,5.1-12,3.8-18.4-1.5-8.2-7.2-15.1-14.9-18.2h0Z" fill="currentColor" />
  <path d="M58,66.34h.5c2.7-.5,4.1-4.7,3.1-9.6-.4-2.1-1.2-4.1-2.5-5.8-1.2-1.5-2.6-2.2-4-2-1.9,.4-3.2,2.6-3.4,5.7-.3-.7-.8-1.4-1.3-2.1-1.2-1.5-2.6-2.2-4-2s-2.4,1.4-3,3.3c-.5,2-.6,4.2-.2,6.3,.9,4.6,3.4,7.8,5.9,7.8,.2,0,.3,0,.5-.1,1.9-.4,3.2-2.6,3.4-5.7,1.5,2.6,3.2,4.2,5,4.2Zm.3-1c-1.1,.2-2.3-.6-3.3-2,.4,.1,.7,.1,1.1,.1,1.5-.4,2.4-1.9,2-3.4-.1-.8-.6-1.5-1.3-2l3.9-.7c.7,4-.4,7.6-2.4,8h0Zm-3-15.5h.3c1.1,.1,2.1,.7,2.7,1.7,1.1,1.4,1.8,3.1,2.2,4.9l-7.7,1.5c-.5-4.1,.6-7.7,2.5-8.1h0Zm-10.8,4.3c.5-1.5,1.3-2.5,2.2-2.7h.3c1.1,.1,2.1,.7,2.7,1.7,1.1,1.4,1.9,3.1,2.2,4.9l-7.7,1.5c-.2-1.8-.1-3.7,.3-5.4h0Zm5.2,12.9c-1.1,.2-2.3-.6-3.3-2,.4,.1,.7,.1,1.1,.1,1.5-.4,2.4-1.9,2-3.4-.1-.8-.6-1.5-1.3-2l3.9-.7c.7,4-.4,7.5-2.4,8Z" fill="currentColor" />
  <polygon points="41.8 71.14 37.9 72.94 40.9 69.14 40.5 68.24 34.7 70.94 35.1 71.84 38.9 70.04 36 73.74 36.4 74.74 42.2 72.04 41.8 71.14" fill="currentColor" />
  <path d="M44.8,74.44c-.4-.3-.8-.5-1.2-.6-.5,0-1,.1-1.4,.3-.6,.3-1.1,.7-1.5,1.2-.6,.7-1,1.5-1,2.4,0,.7,.3,1.3,.9,1.8,.5,.5,1.2,.7,1.9,.5,.9-.2,1.6-.7,2.2-1.5,.6-.6,1-1.5,1-2.3,0-.7-.3-1.3-.9-1.8Zm-1,3.5c-.3,.5-.8,.8-1.4,1-.4,.1-.8,0-1.2-.2-.3-.3-.5-.7-.4-1.1,.1-.6,.3-1.1,.7-1.5,.3-.5,.8-.8,1.4-1,.4-.1,.8,0,1.2,.3,.3,.3,.5,.7,.5,1.1-.1,.4-.3,.9-.8,1.4h0Z" fill="currentColor" />
  <path d="M51,77.54c-.3-.2-.7-.4-1.1-.5l-2.2-.6-1.6,6.2,1,.3,.7-2.6h.2c.2,0,.3,.1,.5,.2,.1,.1,.2,.2,.2,.3,.1,.4,.2,.7,.3,1.1l.4,1.5,1.2,.3-.3-1.4c-.1-.4-.2-.8-.3-1.2-.1-.2-.2-.5-.4-.7,.4,0,.8-.1,1.1-.3,.3-.3,.6-.7,.7-1.1,.1-.3,.1-.7,0-1-.1,0-.2-.3-.4-.5Zm-.7,1.6c0,.2-.1,.3-.2,.5-.1,.1-.2,.2-.4,.2-.3,0-.6-.1-.9-.2l-.8-.2,.4-1.6,.8,.2c.3,.1,.6,.1,.8,.3,.1,.1,.2,.2,.3,.3,.1,.1,0,.3,0,.5h0Z" fill="currentColor" />
  <polygon points="56.2 76.94 56.3 81.34 54.3 77.34 52.8 77.74 54.2 83.94 55.2 83.74 54.1 78.84 56.2 83.44 57.2 83.24 57.1 78.14 58.2 83.04 59.2 82.84 57.7 76.54 56.2 76.94" fill="currentColor" />
  <path d="M60.1,75.04l2.3,6.3,.9-.7-.6-1.4,1.7-1.3,1.3,.9,.9-.7-5.6-3.7-.9,.6Zm3.4,2.3l-1.1,.9-.9-2.3,2,1.4Z" fill="currentColor" />
  <polygon points="68.1 73.94 63.5 71.44 63 72.34 68.6 75.44 70.4 72.14 69.4 71.64 68.1 73.94" fill="currentColor" />
  <path d="M106.6,38.84c-1.3,0-2.6-.2-3.8-.7l-.9-1,.7-1.8c.3-.3,8.2-6.3,42.2-15.2,34-8.9,42.9-7.5,43.3-7.5l1.4,1.4-.3,1.3c-.4,.6-5.2,6-42,16-24.3,6.7-35.5,7.7-40.6,7.5Zm75-22.6c-5.9,.5-16.9,2.2-36,7.2-20.2,5.3-31,9.5-36.4,12.1,5.4-.2,16.2-1.7,37-7.4,20.1-5.5,30.3-9.5,35.4-11.9h0Z" fill="currentColor" />
  <path d="M109.2,54.44c-.9,0-1.4-.1-1.5-.1l-1.1-.1-4.6-17,3.2-.9,4,14.8c3.8,.1,17.2,0,42-7.2s35.9-13.9,39-15.9l-4-13.1,3.2-1,4.6,15.4-.9,.7c-.4,.3-10.7,8.5-41,17.2-25,7.1-38.6,7.3-42.9,7.2Z" fill="currentColor" />
  <path d="M151.6,127.44c-8.7-.3-13.6-2.6-14-2.7l-.6-.3-26.3-70.7,3.1-1.2,25.8,69.3c2.7,1,14.6,4.7,32.4-.7s25-13.8,26.5-15.8l-11.8-73.8,3.3-.5,12,75.1-.3,.5c-.3,.5-7.2,11.2-28.7,17.8-6.9,2.2-14.2,3.2-21.4,3Z" fill="currentColor" />
  <path d="M183,68.54c-7.5-12.5-23.7-16.6-36.2-9.2-12.5,7.5-16.6,23.7-9.2,36.2,6.5,10.9,19.9,15.6,31.9,11.2,1.5-.6,2.9-1.3,4.3-2.1,12.6-7.4,16.6-23.6,9.2-36.1Zm-9.6,35.3c-1.3,.8-2.7,1.5-4.2,2-11.5,4.3-24.5-.3-30.8-10.9-7.2-12.1-3.2-27.7,8.8-34.9,1.3-.8,2.7-1.5,4.2-2,11.5-4.3,24.4,.3,30.7,10.9,7.2,12.1,3.3,27.7-8.7,34.9h0Z" fill="currentColor" />
  <path d="M159.3,109.24c-9.2-.3-17.7-5.3-22.4-13.2-7.7-12.9-3.5-29.6,9.4-37.3,12.9-7.7,29.6-3.5,37.3,9.4,3.7,6.2,4.8,13.6,3,20.6-1.7,7-6.2,13-12.4,16.7-1.4,.8-2.9,1.6-4.4,2.1-3.4,1.3-6.9,1.8-10.5,1.7Zm1.9-51.8c-3.2-.1-6.5,.4-9.5,1.5-1.4,.5-2.7,1.2-4,1.9-5.6,3.3-9.7,8.8-11.2,15.1-1.6,6.3-.6,13,2.7,18.6,6.1,10.2,18.6,14.6,29.7,10.5,1.4-.5,2.7-1.2,4-1.9,5.6-3.3,9.7-8.8,11.2-15.1,1.6-6.3,.6-13-2.7-18.6-4.3-7.2-11.9-11.7-20.2-12Z" fill="currentColor" />
  <path d="M165.3,81.64c.2-.1,.3-.1,.5-.2,2.3-1.4,2.2-5.8-.3-10.1-1.1-1.8-2.5-3.4-4.3-4.6-1.7-1-3.2-1.2-4.4-.5-1.7,1-2.1,3.6-1.2,6.5-.6-.6-1.2-1.1-1.9-1.5-1.7-1-3.2-1.2-4.4-.5-1.2,.7-1.8,2.2-1.7,4.1,.2,2.1,.9,4.2,2,6,2.4,4,5.9,6.2,8.2,5.3,.2-.1,.3-.1,.5-.2,1.7-1,2.1-3.6,1.2-6.5,2,1.9,4.2,2.8,5.8,2.2Zm0-1c-1,.6-2.3,.2-3.8-.7,.4,0,.7-.1,1.1-.3,1.3-.9,1.6-2.6,.8-3.9-.4-.7-1.1-1.2-1.9-1.4l3.4-2c1.9,3.5,2.2,7.2,.4,8.3h0Zm-8-13.5c.1-.1,.2-.1,.3-.1,1.1-.3,2.2,0,3.1,.7,1.5,1,2.8,2.3,3.7,3.9l-6.7,4c-2-3.7-2.2-7.5-.4-8.5h0Zm-8.8,7.8c-.1-1.6,.3-2.8,1.2-3.3,.1-.1,.2-.1,.3-.1,1.1-.3,2.2,0,3.1,.7,1.5,1,2.8,2.3,3.7,3.9l-6.7,4c-.9-1.7-1.4-3.5-1.6-5.2h0Zm9.3,10.2c-.9,.6-2.3,.2-3.8-.7,.4,0,.7-.1,1.1-.3,1.3-.9,1.6-2.6,.8-3.9-.4-.7-1.1-1.2-1.9-1.4l3.4-2c1.9,3.5,2.1,7.3,.4,8.3h0Z" fill="currentColor" />
  <polygon points="151.8 91.74 148.8 94.74 150.3 90.24 149.6 89.44 145 93.94 145.7 94.64 148.7 91.74 147.2 96.14 148 96.94 152.5 92.44 151.8 91.74" fill="currentColor" />
  <path d="M155.8,93.84c-.4-.2-.9-.2-1.4-.1s-.9,.4-1.2,.7c-.4,.5-.8,1-1,1.7-.3,.8-.4,1.7-.1,2.6,.2,.6,.8,1.1,1.4,1.3,.6,.3,1.4,.2,1.9-.1,.8-.5,1.3-1.3,1.6-2.1,.4-.8,.4-1.7,.2-2.6-.2-.7-.8-1.2-1.4-1.4Zm.3,3.6c-.2,.6-.5,1.1-1,1.4-.3,.2-.7,.3-1.1,.1-.4-.1-.7-.5-.8-.9-.1-.6-.1-1.2,.2-1.7,.2-.6,.5-1.1,.9-1.4,.3-.2,.8-.3,1.2-.2s.7,.4,.8,.8c.1,.7,0,1.3-.2,1.9h0Z" fill="currentColor" />
  <path d="M162.6,94.64c-.4-.1-.8-.1-1.2,0l-2.2,.2,.7,6.4,1-.1-.3-2.7h.7c.1,0,.2,.1,.3,.2,.2,.3,.5,.6,.7,.9l.9,1.3,1.3-.1-.8-1.2c-.2-.4-.4-.7-.7-1-.2-.2-.4-.3-.6-.5,.4-.1,.8-.3,1-.7,.2-.4,.3-.8,.2-1.2,0-.4-.1-.7-.3-1-.2-.2-.5-.4-.7-.5Zm-.1,1.7c0,.2,0,.4-.1,.5s-.2,.2-.3,.3c-.3,.1-.6,.1-.9,.2l-.8,.1-.2-1.6,.8-.1h.9c.1,0,.3,.1,.4,.2,.1,.1,.2,.2,.2,.4Z" fill="currentColor" />
  <polygon points="167.3 92.24 168.9 96.44 165.7 93.24 164.4 94.14 167.9 99.54 168.7 99.04 165.9 94.74 169.6 98.44 170.4 97.84 168.5 93.04 171.3 97.34 172.1 96.74 168.6 91.34 167.3 92.24" fill="currentColor" />
  <path d="M170.3,89.24l4.4,5.1,.6-1-1-1.1,1.1-1.8,1.5,.4,.6-1-6.6-1.6-.6,1Zm4,.9l-.8,1.2-1.7-1.9,2.5,.7Z" fill="currentColor" />
  <polygon points="177.5 85.34 172.3 84.54 172.1 85.64 178.4 86.64 179 82.94 177.9 82.74 177.5 85.34" fill="currentColor" />
</svg>