<?xml version="1.0" encoding="UTF-8"?>
<svg id="Layer_1" data-name="Layer 1" xmlns="http://www.w3.org/2000/svg" viewBox="0 0 87.89 86.82">
  <defs>
    <style>
      .cls-1 {
        fill: #dcfffb;
        stroke: #0b21e3;
        stroke-width: 2px;
      }
    </style>
  </defs>
  <path class="cls-1" d="M85.24,50.69c1.62,4.6.14,9.73-3.68,12.75l-1.18.79c-1.4.93-2.23,2.5-2.23,4.17,0,.18-.02.35-.05.52l-.09.5c-.71,4.02-4.1,7.03-8.18,7.24l-1.38.07c-.3.02-.6.06-.89.13-1.33.33-2.45,1.23-3.07,2.46l-.23.45c-2.12,3.68-6.49,5.42-10.55,4.2l-1.65-.5c-.51-.15-1.04-.23-1.57-.23-1.08,0-2.13.32-3.02.92l-.35.24c-3.36,1.95-7.53,1.88-10.83-.18l-2.08-1.3c-1.5-1.11-3.42-1.49-5.23-1.04l-.96.24c-.36.09-.72.15-1.08.17h-.15c-3.33.25-6.46-1.59-7.87-4.62l-.85-1.83-.04-.11c-.71-1.78-2.26-3.08-4.13-3.47l-.52-.15c-4.2-1.24-7-5.2-6.76-9.58l.03-.5c0-.12.02-.23.04-.34l.1-.49c.29-1.44-.31-2.92-1.52-3.76l-.85-.73c-3.44-2.98-4.25-8-1.93-11.91l.13-.17c1.05-1.4,1.22-3.27.44-4.84l-1.27-2.53c-1.82-3.63-.34-8.05,3.29-9.86l.31-.15c.11-.05.21-.1.33-.14,2.06-.69,3.33-2.75,3.03-4.9l-.05-.34c-.02-.14-.03-.27-.03-.41v-.42c0-4.5,3.38-8.28,7.86-8.78l.2-.02c2.2-.02,4.18-1.34,5.04-3.36l.09-.21c.12-.28.27-.55.45-.79l.38-.52c2.54-3.46,7.1-4.77,11.09-3.18l.59.25c2.12.91,4.59.44,6.22-1.2.14-.14.3-.27.46-.39l.33-.24c3.32-2.37,7.84-2.08,10.83.68l.75.69,1.21,1.21c.23.23.48.44.75.62.95.63,2.1.92,3.23.81l2.7-.27c.54-.05,1.08-.06,1.63-.03,3.68.25,6.9,2.53,8.36,5.92l.22.51c.1.23.18.46.23.7l.15.61c.54,2.16,2.3,3.8,4.49,4.19,3.88,1.06,6.48,4.69,6.23,8.71v.21s-.25,1.68-.25,1.68c-.21,1.45.43,2.89,1.63,3.72,3.4,2.91,4.34,7.8,2.24,11.76l-.52.97-.02.05-.02.05-.17.42c-.63,1.57-.56,3.32.17,4.84l.02.05Z"/>
</svg>