<?xml version="1.0" encoding="UTF-8"?>
<svg id="Layer_1" data-name="Layer 1" xmlns="http://www.w3.org/2000/svg" viewBox="0 0 109.95 110.88">
  <defs>
    <style>
      .cls-1 {
        fill: #dcfffb;
        stroke: #0b21e3;
        stroke-width: 2px;
      }
    </style>
  </defs>
  <path class="cls-1" d="M27.44,16.36l1.73,1.08-.2-2.03c-.41-4.11,1.83-7.69,5.1-9.35,3.22-1.64,7.49-1.44,11.21,2.17l1.36,1.32.32-1.87c1.4-8.21,13.97-9.62,16.55.09l.47,1.79,1.24-1.38c5.97-6.64,16.82-2.08,15.76,7.22l-.22,1.95,1.71-.97c7.64-4.34,16.26,3.36,12.6,11.21l-.66,1.42h1.57c5.19,0,8.44,2.82,9.54,6.23,1.11,3.44.08,7.63-3.65,10.48l-1.59,1.21,1.92.54c5.04,1.42,6.98,5.31,6.73,9.03-.26,3.8-2.77,7.31-6.64,8.02l-1.97.36,1.47,1.36c3.62,3.34,3.82,7.56,2.29,10.77-1.56,3.28-4.77,5.29-7.88,4.52l-1.77-.44.59,1.73c1.55,4.57.45,8.53-1.96,10.82-2.39,2.27-6.26,3.08-10.66.96l-2.07-1,.68,2.2c1.29,4.15-.69,7.7-3.97,9.29-3.27,1.59-7.91,1.25-11.86-2.79l-1.42-1.45-.28,2.01c-.52,3.72-3.78,6.51-7.53,6.94-3.64.42-7.81-1.4-10.05-7.16l-.55-1.42-1.08,1.07c-5.66,5.56-15.4,2.03-15.3-6.78l.02-1.84-1.55.98c-3.15,1.99-7.26,1.54-10.11-.67-2.79-2.17-4.39-6.06-2.42-11.12l.68-1.74-1.83.4c-3.44.76-6.68-1.39-8.18-4.7-1.47-3.26-1.13-7.46,2.54-10.56l1.5-1.27-1.91-.47c-4.99-1.22-6.94-5.15-6.69-8.99.26-3.93,2.8-7.49,6.59-8.05l2.4-.35-1.96-1.44c-3.71-2.73-4.76-6.97-3.65-10.49,1.1-3.48,4.35-6.33,9.53-6.21l1.54.04-.6-1.42c-3.53-8.41,5.49-15.69,12.55-11.27Z"/>
</svg>