<svg width="19" height="19" viewBox="0 0 19 19" fill="none" xmlns="http://www.w3.org/2000/svg">
<path d="M17.1001 9.95554C17.1001 14.3738 13.5184 17.9555 9.1001 17.9555C4.68182 17.9555 1.1001 14.3738 1.1001 9.95554C1.1001 5.53727 4.68182 1.95554 9.1001 1.95554C13.5184 1.95554 17.1001 5.53727 17.1001 9.95554Z" stroke="#0B21E3" stroke-width="2"/>
<path d="M6.21893 14V5.27273H9.16779C9.84961 5.27273 10.4093 5.3892 10.8468 5.62216C11.2843 5.85227 11.6081 6.16903 11.8184 6.57244C12.0286 6.97585 12.1337 7.43466 12.1337 7.94886C12.1337 8.46307 12.0286 8.91903 11.8184 9.31676C11.6081 9.71449 11.2857 10.027 10.851 10.2543C10.4164 10.4787 9.86097 10.5909 9.18484 10.5909H6.79847V9.63636H9.15075C9.61665 9.63636 9.99165 9.56818 10.2757 9.43182C10.5627 9.29545 10.7701 9.10227 10.8979 8.85227C11.0286 8.59943 11.0939 8.2983 11.0939 7.94886C11.0939 7.59943 11.0286 7.29403 10.8979 7.03267C10.7672 6.77131 10.5584 6.5696 10.2715 6.42756C9.98455 6.28267 9.60529 6.21023 9.1337 6.21023H7.27575V14H6.21893ZM10.3269 10.0795L12.4746 14H11.2473L9.1337 10.0795H10.3269Z" fill="#0B21E3"/>
</svg>
