<svg width="193" height="410" viewBox="0 0 193 410" fill="none" xmlns="http://www.w3.org/2000/svg">
<path d="M29.139 407C23.6087 407 19.3679 402.125 20.138 396.66C25.0123 362.066 37.1611 269.327 37.1185 204.328C37.0763 139.802 24.9997 47.7797 20.1407 13.3412C19.3695 7.87537 23.6102 3 29.1411 3H71.8067C75.5174 3 78.6125 5.26346 79.5314 8.60742C84.7433 27.5744 96.8298 84.5825 96.4406 204.32C96.052 323.873 84.442 381.731 79.4326 401.178C78.5418 404.637 75.3752 407 71.5805 407H29.139Z" fill="#FFFCF3" stroke="#0B21E3" stroke-width="6"/>
<path d="M52.5276 381C48.503 381 45.0454 378.399 44.0074 374.593C36.608 347.464 14.8737 262.771 14.7995 204.411C14.7258 146.452 36.5441 62.3514 43.9869 35.3782C45.033 31.5871 48.483 29 52.4967 29H147.353C150.181 29 152.605 30.3215 153.835 32.5127C161.898 46.8807 183.925 96.1158 183.242 204.396C182.563 312.199 161.578 362.285 153.76 377.241C152.537 379.579 150.025 381 147.076 381H52.5276Z" fill="#FFFCF3" stroke="#0B21E3" stroke-width="6"/>
<path d="M62.9141 3C68.3953 3 72.6179 7.79223 71.922 13.2163C67.4998 47.6855 56.4126 140.593 56.4514 205.672C56.49 270.277 67.5113 362.469 71.9197 396.783C72.6165 402.207 68.3941 407 62.9121 407H26.1669C22.3496 407 19.1892 404.625 18.3273 401.153C13.5376 381.858 2.65605 324.797 3.00837 205.679C3.3603 86.6954 13.8252 28.7981 18.4252 9.04694C19.2586 5.46883 22.4849 3 26.3818 3L62.9141 3Z" fill="#FFFCF3" stroke="#0B21E3" stroke-width="6"/>
<path d="M132.552 407C127.087 407 122.871 402.235 123.542 396.825C127.814 362.398 138.546 269.433 138.509 204.328C138.471 139.697 127.803 47.4477 123.544 13.1754C122.872 7.76532 127.088 3 132.554 3H167.322C171.176 3 174.359 5.41333 175.2 8.92844C179.847 28.3331 190.332 85.411 189.992 204.321C189.652 323.111 179.565 381.021 175.103 400.875C174.29 404.494 171.043 407 167.112 407H132.552Z" fill="#FFFCF3" stroke="#0B21E3" stroke-width="6"/>
<path d="M160.761 3C166.221 3 170.435 7.75601 169.772 13.1614C165.55 47.5747 154.936 140.558 154.974 205.672C155.01 270.312 165.561 362.58 169.77 396.838C170.434 402.244 166.22 407 160.759 407H126.65C122.784 407 119.594 404.574 118.759 401.044C114.161 381.603 103.807 324.519 104.143 205.678C104.479 86.9536 114.441 29.0395 118.856 9.15149C119.663 5.51874 122.917 3 126.859 3L160.761 3Z" fill="#FFFCF3" stroke="#0B21E3" stroke-width="6"/>
<path d="M162.659 0C160.131 0 160.131 6 162.659 6C165.188 6 142.432 6 142.432 6L144.539 3C144.539 0 142.432 0 142.432 0L162.659 0Z" fill="#FFFCF3"/>
</svg>
