<svg width="249" height="284" viewBox="0 0 249 284" fill="none" xmlns="http://www.w3.org/2000/svg">
<g clip-path="url(#clip0_1269_1208)">
<path d="M25.9641 248.5C25.9641 250.597 27.0147 252.694 28.8157 253.742C27.9152 253.593 27.1648 253.443 26.2643 253.443V257.637C27.4649 257.787 28.5155 257.937 33.168 258.835L48.6264 261.382V257.038L34.969 254.791C31.217 254.192 29.7161 252.994 29.7161 250.747C29.7161 248.5 31.217 248.35 33.6183 248.65L48.4763 251.196V246.852L32.7178 244.156C28.0653 243.407 25.9641 245.205 25.9641 248.5Z" fill="#0B21E3"/>
<path d="M37.5203 225.882C30.0163 224.683 26.1141 226.631 26.1141 231.574C26.1141 236.517 29.7161 240.112 37.5203 241.46C45.3246 242.808 49.2267 240.711 49.2267 235.768C49.3767 230.675 45.4746 227.23 37.5203 225.882ZM37.5203 237.116C32.2675 236.217 29.8662 234.719 30.0163 232.472C30.0163 230.076 32.4176 229.477 37.6704 230.375C42.9233 231.274 45.4746 232.622 45.4746 235.019C45.4746 237.415 42.6231 237.865 37.5203 237.116Z" fill="#0B21E3"/>
<path d="M26.4144 220.489C28.0653 220.639 30.3165 221.088 34.0685 221.688L48.7765 224.234V219.89L36.77 217.943C32.5677 217.194 31.0669 215.097 31.0669 211.502L25.9641 210.603C25.9641 213.299 27.615 215.846 30.1664 216.894C27.7651 216.445 26.8646 216.445 26.4144 216.445V220.489Z" fill="#0B21E3"/>
<path d="M33.4681 189.783L48.7764 192.329V188.135L32.7177 185.439C27.6149 184.54 26.1141 186.787 26.1141 189.633C26.1141 191.88 27.3148 194.127 29.2658 195.325C27.4649 195.475 25.964 197.122 26.1141 198.92V199.07C26.1141 201.167 27.1647 203.114 28.9657 204.162C28.2153 204.013 27.3148 204.013 26.5644 203.863V207.907C27.6149 208.057 28.9657 208.207 33.318 209.105L49.0766 211.802V207.608L35.119 205.211C31.9673 204.612 30.1663 203.563 30.3164 201.316C30.3164 199.519 31.5171 199.07 33.7683 199.369L49.0766 201.916V197.572L34.9689 195.175C32.1174 194.726 30.1663 193.677 30.1663 191.43C30.0162 189.783 31.5171 189.483 33.4681 189.783Z" fill="#0B21E3"/>
<path d="M46.6753 174.055C47.4257 174.205 48.1761 174.205 48.9265 174.205V170.31C48.0261 170.31 45.6248 169.861 44.4241 169.711L32.5677 167.764C28.3654 167.015 26.2643 168.962 26.1142 173.306C25.814 177.35 28.6656 180.945 32.7178 181.395V177.35C31.217 177.051 29.5661 176.452 29.5661 174.055C29.5661 171.658 31.367 171.808 32.7178 171.958L35.4192 172.407V174.354C35.4192 179.747 38.2708 183.192 42.6231 183.941C45.7748 184.54 49.2267 183.492 49.2267 179.447C49.5269 177.2 48.4763 175.253 46.6753 174.055ZM42.323 179.597C40.2218 179.298 38.721 177.8 38.721 174.654C38.721 174.055 38.721 173.456 38.8711 172.857L39.7716 173.006C43.5236 173.606 45.6248 174.654 45.6248 177.35C45.6248 179.298 43.9739 179.747 42.323 179.597Z" fill="#0B21E3"/>
<path d="M48.9265 161.472L18.1598 156.38V160.574L48.9265 165.816V161.472Z" fill="#0B21E3"/>
<path d="M62.4338 263.778L84.796 267.523V263.179L62.4338 259.435V263.778Z" fill="#0B21E3"/>
<path d="M53.8792 262.281L58.8318 263.03V258.836L53.8792 257.937V262.281Z" fill="#0B21E3"/>
<path d="M77.592 243.707V247.901C78.7927 248.2 81.4942 248.949 81.4942 251.496C81.4942 254.042 78.6426 254.192 73.5398 253.443C68.7372 252.694 65.8857 251.346 65.8857 248.949C65.8857 246.553 68.7372 246.852 69.6377 246.852V242.508C68.4371 242.359 62.1337 241.46 62.1337 248.2C62.1337 254.042 67.5366 256.738 73.5398 257.787C80.1434 258.985 85.2462 258.236 85.2462 252.395C85.2462 245.504 79.0929 244.006 77.592 243.707Z" fill="#0B21E3"/>
<path d="M78.3425 226.181V230.375C80.1434 230.675 81.4942 232.323 81.6442 234.12C81.6442 237.116 78.1924 236.966 74.8906 236.367V225.582C74.4403 225.432 73.5398 225.283 72.7894 225.133C67.0863 224.234 62.1337 224.833 62.1337 230.825C62.1337 236.067 66.486 239.213 73.5398 240.411C79.2429 241.31 85.2462 241.46 85.2462 234.719C85.2462 227.979 78.9428 226.481 78.3425 226.181ZM71.4387 235.768C69.7878 235.468 65.8857 234.57 65.8857 231.424C65.8857 228.578 68.7372 228.728 71.4387 229.177V235.768Z" fill="#0B21E3"/>
<path d="M77.592 208.506V212.7C78.7927 213 81.4942 213.749 81.4942 216.295C81.4942 218.842 78.6426 218.992 73.5398 218.243C68.7372 217.494 65.8857 216.146 65.8857 213.749C65.8857 211.352 68.7372 211.652 69.6377 211.652V207.308C68.4371 207.158 62.1337 206.259 62.1337 213C62.1337 218.842 67.5366 221.538 73.5398 222.586C80.1434 223.785 85.2462 223.036 85.2462 217.194C85.3963 210.304 79.2429 208.956 77.592 208.506Z" fill="#0B21E3"/>
<path d="M62.5839 202.814C64.2348 202.964 66.486 203.414 70.2381 204.013L84.946 206.409V202.065L72.9395 200.118C68.7372 199.369 67.2364 197.272 67.2364 193.677L62.1337 192.779C62.1337 195.475 63.7846 198.021 66.3359 199.07C65.1353 198.77 63.7846 198.62 62.5839 198.471V202.814Z" fill="#0B21E3"/>
<path d="M78.3425 178.998V183.192C80.1434 183.491 81.4942 185.139 81.6442 186.937C81.6442 189.932 78.1924 189.783 74.8906 189.183V178.399C74.1402 178.249 73.5398 178.099 72.7894 177.949C67.0863 177.051 62.1337 177.65 62.1337 183.641C62.1337 188.884 66.486 192.029 73.5398 193.228C79.0929 194.126 85.2462 194.276 85.2462 187.536C85.3963 180.795 79.0929 179.148 78.3425 178.998ZM71.5888 188.435C70.088 188.135 66.0358 187.236 66.0358 184.091C66.0358 181.245 68.8873 181.394 71.5888 181.844V188.435Z" fill="#0B21E3"/>
<path d="M69.0375 174.055V169.861C67.5367 169.561 65.8858 168.962 65.8858 166.565C65.8858 164.169 67.6867 164.318 69.0375 164.468L71.5889 164.918V166.865C71.5889 172.407 74.4404 175.702 78.7928 176.451C81.9445 177.051 85.3963 176.002 85.3963 171.958C85.5464 169.861 84.4958 167.913 82.845 166.715C83.5954 166.865 84.3458 166.865 85.0962 166.865V162.97C84.1957 162.97 81.7944 162.521 80.5937 162.371L68.8874 160.424C64.6851 159.675 62.584 161.622 62.584 165.966C62.1337 170.01 64.9853 173.605 69.0375 174.055ZM75.0407 165.517L75.9412 165.667C79.6932 166.266 81.7944 167.314 81.7944 170.01C81.7944 171.958 80.1435 172.407 78.4926 172.257C76.3915 171.958 74.8906 170.46 74.8906 167.314C74.8906 166.715 74.8906 166.116 75.0407 165.517Z" fill="#0B21E3"/>
<path d="M62.4339 145.745C62.4339 147.842 63.4845 149.789 65.2854 150.987C64.535 150.837 63.6345 150.837 62.8841 150.688V154.732C63.9347 154.882 65.2854 155.032 69.6378 155.93L85.2463 158.626V154.432L71.4388 152.186C68.2871 151.736 66.4861 150.538 66.4861 148.291C66.4861 146.494 67.6867 146.044 69.938 146.344L85.2463 148.89V144.546L71.1386 142.15C68.2871 141.7 66.336 140.652 66.336 138.405C66.336 136.458 67.8368 136.158 69.7879 136.458L85.0962 139.004V134.81L69.0375 132.114C63.9347 131.215 62.4339 133.462 62.4339 136.308C62.4339 138.555 63.6345 140.802 65.5856 142C63.7846 142 62.2838 143.498 62.2838 145.295C62.4339 145.445 62.4339 145.595 62.4339 145.745Z" fill="#0B21E3"/>
<path d="M204.261 187.086H197.507V265.576H204.261V187.086Z" fill="#0B21E3"/>
<path d="M200.656 183.374L179.325 204.663L184.101 209.43L205.432 188.14L200.656 183.374Z" fill="#0B21E3"/>
<path d="M200.997 183.35L196.221 188.116L217.552 209.405L222.328 204.639L200.997 183.35Z" fill="#0B21E3"/>
<path d="M3.60193 60.5148C2.2512 60.5148 1.20063 59.7658 0.600308 58.5675C-1.78665e-05 57.3692 0.150063 56.0211 1.05055 55.1224L43.8237 1.19831C44.4241 0.449367 45.4746 0 46.5252 0H196.456C197.357 0 198.257 0.449367 198.858 1.04852L248.084 54.673C248.985 55.7215 249.285 57.0696 248.685 58.2679C248.235 59.4662 247.034 60.2152 245.683 60.2152L3.60193 60.5148ZM47.8759 6.59072L10.3556 53.7743L237.729 53.6245L194.656 6.74051L47.8759 6.59072Z" fill="#0B21E3"/>
<path d="M248.835 284H0V56.77L1.05057 55.7215C1.851 54.9226 43.0233 54.5232 124.568 54.5232C185.05 54.5232 245.533 54.673 245.533 54.673H248.835V284ZM6.75366 277.259H242.231V61.5633C165.54 61.4135 29.1158 61.2637 6.75366 61.5633V277.259Z" fill="#0B21E3"/>
<path d="M111.701 2.86746L99.6809 56.3616L106.271 57.8366L118.291 4.34245L111.701 2.86746Z" fill="#0B21E3"/>
<path d="M138.744 2.90863L132.136 4.302L143.522 58.0872L150.13 56.6938L138.744 2.90863Z" fill="#0B21E3"/>
<path d="M150.382 124.025H100.254V54.0737H150.382V124.025ZM107.008 117.285H143.778V60.6645H107.008V117.285Z" fill="#0B21E3"/>
<path d="M150.382 283.85H100.254V219.74H150.382V283.85ZM107.008 277.11H143.778V226.481H107.008V277.11Z" fill="#0B21E3"/>
</g>
<defs>
<clipPath id="clip0_1269_1208">
<rect width="249" height="284" fill="white"/>
</clipPath>
</defs>
</svg>
