<?xml version="1.0" encoding="UTF-8"?>
<svg id="Layer_1" data-name="Layer 1" xmlns="http://www.w3.org/2000/svg" viewBox="0 0 86.77 84.79">
  <defs>
    <style>
      .cls-1 {
        fill: #ffffa3;
        stroke: #0d26f9;
        stroke-width: 2px;
      }
    </style>
  </defs>
  <path class="cls-1" d="M55,67.46l-2.25,14.17-8.34-11.39-.83-1.14-.8,1.16-8.17,11.93-2.45-13.95-.25-1.42-1.24.73-12.43,7.33,3.9-13.76.4-1.4-1.45.13-14.24,1.31,9.48-10.88.95-1.09-1.35-.51-13.26-4.97,13.22-5.84,1.29-.57-.97-1.03-9.67-10.29,14.34.39,1.39.04-.4-1.33-4.13-13.59,12.6,6.55,1.23.64.22-1.37,2.25-14.17,8.34,11.39.83,1.14.8-1.17,8.17-11.93,2.45,13.95.25,1.42,1.24-.73,12.43-7.33-3.9,13.76-.4,1.4,1.45-.13,14.24-1.31-9.48,10.88-.95,1.09,1.35.51,13.26,4.97-13.22,5.84-1.29.57.97,1.03,9.67,10.29-14.34-.39-1.39-.04.4,1.33,4.13,13.59-12.6-6.55-1.23-.64-.22,1.37Z"/>
</svg>