<?xml version="1.0" encoding="UTF-8"?>
<svg id="Layer_1" data-name="Layer 1" xmlns="http://www.w3.org/2000/svg" viewBox="0 0 196 128">
  <defs>
    <style>
      .cls-1 {
        fill: #0b21e3;
      }
    </style>
  </defs>
  <path class="cls-1" d="M24.83,40.9c0-.06,0-.19-.06-.26,0-.06-.06-.13-.06-.19s0-.06-.06-.13v-.13c-.19-.39-.52-.71-.84-.84l-.58-.26c1.03-.65,1.29-2.07.65-3.04-.26-.45-.71-.78-1.16-.91l.19-.19c.78-.84.71-2.2-.19-2.98l-.58-.39h-.06l-2-.78c-.58-.26-.97-.84-.97-1.49,0-.19.06-.39.13-.58l.13-.26-.32-.06c-.19-.06-.39-.06-.58-.06-1.55,0-2.84,1.29-2.84,2.85,0,.65.19,1.29.65,1.81-.19,0-.32.06-.45.13l-.26.13c-.65.39-1.1,1.1-1.03,1.88v.32c0,.13.06.19.06.32s.06.19.13.26c0,.04.02.06.06.06,0,.06.06.06.06.13l.06.13c.06.13.19.19.32.32-.19,0-.32.06-.45.13-.13.06-.26.13-.32.19l-.06.06-.13.13-.13.13c-.78.84-.71,2.2.13,2.98.04.04.09.06.13.06-1.03.52-1.49,1.68-1.03,2.78.13.32.32.58.58.78l.58,4.59,1.49.45.78,7.18h5.36l.65-7.18,1.49-.45.52-4.53v-.13c-.13-.45-.45-.78-.84-.84.58-.32.97-.91.97-1.62v-.19c-.06-.19-.06-.26-.06-.32ZM20.57,54.75h-2.91l-.58-5.76h4.13l-.65,5.76ZM22.7,47.37l-.97.32h-5.1l-.97-.32-.39-3.04h7.88l-.45,3.04Z"/>
  <path class="cls-1" d="M84.51,30.8c0-2.46,0-4.53-.13-6.21.13.58.65,1.94,3.94,10.61h2.33v-13.52h-1.94v4.21c0,2.2,0,4.21.13,5.95-.13-.65-.71-2.01-3.81-10.16h-2.45v13.52h1.94v-4.4Z"/>
  <path class="cls-1" d="M96.78,35.46c3.04,0,4.33-2.26,4.33-7.12s-1.36-6.86-4.2-6.86-4.26,2.07-4.26,6.86,1.29,7.12,4.13,7.12ZM96.85,23.23c1.55,0,2.13,1.68,2.13,5.05,0,3.56-.52,5.31-2.13,5.31s-2.07-1.94-2.07-5.31c-.06-3.24.58-5.05,2.07-5.05Z"/>
  <path class="cls-1" d="M105.18,29.25h1.29c1.61,0,2.07.71,2.07,2.52v.45c-.07.97,0,1.94.19,2.85h2.07c-.13-.97-.19-1.88-.19-2.85v-.52c0-2.01-.45-2.91-1.61-3.36.71-.26,1.81-1.16,1.81-3.11,0-2.33-1.36-3.69-3.75-3.69h-3.94v13.52h2.07v-5.82ZM105.18,23.36h1.55c1.36,0,1.94.71,1.94,2.01,0,1.49-.58,2.2-2.13,2.2h-1.36v-4.21Z"/>
  <path class="cls-1" d="M115.06,30.16c0-2.33-.06-5.18-.13-6.79h.07c.39,2.59,1.42,7.89,2.07,11.78h1.94c.91-4.34,1.87-9.25,2.33-11.78h.06c-.06,1.49-.06,4.14-.06,6.47v5.24h2v-13.4h-3.04c-.77,3.75-1.87,8.41-2.13,10.03-.26-1.94-1.03-6.15-1.94-10.03h-3.1v13.52h2l-.06-5.05Z"/>
  <path class="cls-1" d="M127.73,31.51h3.23l.77,3.75h2.2l-3.23-13.52h-2.71l-3.17,13.52h2.13l.78-3.75ZM129.34,23.56c.26,1.16.71,3.17,1.29,6.08h-2.45c.52-2.65.97-4.79,1.16-6.08Z"/>
  <path class="cls-1" d="M142.26,33.39h-4.71v-11.78h-2.13v13.52h6.65l.19-1.75Z"/>
  <path class="cls-1" d="M195.87,0H31.09v15.79h11.05v15.66h-7.88c-5.94-8.54-17.63-10.61-26.16-4.72C-.43,32.61-2.56,44.33,3.32,52.8l.06.06c5.94,8.54,17.63,10.68,26.22,4.72,1.87-1.29,3.49-2.85,4.72-4.72h7.82v75.13h72.8v-10.29h-7.56v-5.44h10.92v15.66h2.39v-15.66h37.72v15.72h25.06V15.79h12.53l-.13-15.79ZM42.08,33.84v2.72h-5.3c-.26-.97-.65-1.88-1.16-2.72h6.46ZM37.42,38.96h4.72v6.47h-4.72c.32-2.14.32-4.34,0-6.47ZM18.82,58.63c-9.04,0-16.41-7.38-16.41-16.44s7.36-16.44,16.41-16.44,16.41,7.38,16.41,16.44-7.3,16.37-16.41,16.44ZM35.68,50.48c.45-.91.84-1.81,1.16-2.72h5.3v2.72h-6.46ZM64.81,125.61h-20.35V15.79h5.17v15.21h10.01v-15.21h5.17v109.82ZM52.02,15.79h5.17v12.81h-5.17v-12.81ZM104.86,96.23l-7.17-4.4h-3.81v-48.34h10.98v52.74ZM91.42,91.83h-2.71v-45.62h-18.73v45.62h-2.71v-48.34h24.22l-.06,48.34ZM72.3,94.22h13.95v10.48h-13.95v-10.48ZM72.3,91.83v-43.23h13.95v43.23h-13.95ZM67.2,94.22h2.71v12.94h18.73v-12.94h2.78v15.66h-24.22v-15.66ZM93.88,94.22h3.1l7.82,4.79v10.87h-10.98l.06-15.66ZM107.25,43.49h37.66v48.4h-37.66v-48.4ZM147.3,43.49h10.98v48.4h-10.98v-48.4ZM158.28,41.09h-91.08V15.79h91.08v25.3ZM112.42,120.11v5.44h-45.22v-13.33h37.66v7.83l7.56.07ZM107.25,109.88v-9.38l10.92,6.73v2.65h-10.92ZM120.56,109.88v-4.01l-13.31-8.22v-3.43h51.03v15.66h-37.72ZM180.95,125.61h-20.28V15.79h5.17v15.21h9.95v-15.21h5.1l.07,109.82ZM168.23,15.79h5.17v12.81h-5.17v-12.81ZM193.42,13.4H33.48V2.39h160l-.06,11Z"/>
  <path class="cls-1" d="M82.57,70.73c-.65,0-1.16.52-1.23,1.16v9.51c0,.65.52,1.16,1.16,1.23.65,0,1.16-.52,1.23-1.16v-9.45c0-.71-.52-1.23-1.16-1.29Z"/>
</svg>