<svg xmlns="http://www.w3.org/2000/svg" id="store" viewBox="0 0 303.44 197.8">
  <g>
    <path d="M38.44,63.2c0-.1,0-.3-.1-.4h0c0-.1-.1-.2-.1-.3s0-.1-.1-.2v-.2c-.3-.6-.8-1.1-1.3-1.3h0l-.9-.4c1.6-1,2-3.2,1-4.7-.4-.7-1.1-1.2-1.8-1.4l.3-.3h0c1.2-1.3,1.1-3.4-.3-4.6h0l-.9-.6h-.1l-3.1-1.2c-.9-.4-1.5-1.3-1.5-2.3,0-.3,.1-.6,.2-.9l.2-.4-.5-.1c-.3-.1-.6-.1-.9-.1-2.4,0-4.4,2-4.4,4.4,0,1,.3,2,1,2.8-.3,0-.5,.1-.7,.2h0l-.4,.2h0c-1,.6-1.7,1.7-1.6,2.9v.5h0c0,.2,.1,.3,.1,.5h0c0,.2,.1,.3,.2,.4q0,.1,.1,.1c0,.1,.1,.1,.1,.2l.1,.2h0c.1,.2,.3,.3,.5,.5h0c-.3,0-.5,.1-.7,.2h0c-.2,.1-.4,.2-.5,.3l-.1,.1-.2,.2-.2,.2h0c-1.2,1.3-1.1,3.4,.2,4.6h0q.1,.1,.2,.1c-1.6,.8-2.3,2.6-1.6,4.3,.2,.5,.5,.9,.9,1.2l.9,7.1,2.3,.7,1.2,11.1h8.3l1-11.1,2.3-.7,.8-7v-.2c-.2-.7-.7-1.2-1.3-1.3,.9-.5,1.5-1.4,1.5-2.5h0v-.3c-.1-.3-.1-.4-.1-.5h0Zm-6.6,21.4h-4.5l-.9-8.9h6.4l-1,8.9Zm3.3-11.4l-1.5,.5h-7.9l-1.5-.5-.6-4.7h12.2l-.7,4.7Z"/>
    <path d="M130.84,47.6c0-3.8,0-7-.2-9.6h0c.2,.9,1,3,6.1,16.4h3.6v-20.9h-3v6.5c0,3.4,0,6.5,.2,9.2h0c-.2-1-1.1-3.1-5.9-15.7h-3.8v20.9h3v-6.8h0Z"/>
    <path d="M149.84,54.8c4.7,0,6.7-3.5,6.7-11s-2.1-10.6-6.5-10.6-6.6,3.2-6.6,10.6,2,11,6.4,11Zm.1-18.9c2.4,0,3.3,2.6,3.3,7.8,0,5.5-.8,8.2-3.3,8.2s-3.2-3-3.2-8.2c-.1-5,.9-7.8,3.2-7.8Z"/>
    <path d="M162.84,45.2h2c2.5,0,3.2,1.1,3.2,3.9v.7c-.1,1.5,0,3,.3,4.4h3.2c-.2-1.5-.3-2.9-.3-4.4v-.8c0-3.1-.7-4.5-2.5-5.2,1.1-.4,2.8-1.8,2.8-4.8,0-3.6-2.1-5.7-5.8-5.7h-6.1v20.9h3.2v-9h0Zm0-9.1h2.4c2.1,0,3,1.1,3,3.1,0,2.3-.9,3.4-3.3,3.4h-2.1v-6.5Z"/>
    <path d="M178.14,46.6c0-3.6-.1-8-.2-10.5h.1c.6,4,2.2,12.2,3.2,18.2h3c1.4-6.7,2.9-14.3,3.6-18.2h.1c-.1,2.3-.1,6.4-.1,10v8.1h3.1v-20.7h-4.7c-1.2,5.8-2.9,13-3.3,15.5h0c-.4-3-1.6-9.5-3-15.5h-4.8v20.9h3.1l-.1-7.8h0Z"/>
    <path d="M197.74,48.7h5l1.2,5.8h3.4l-5-20.9h-4.2l-4.9,20.9h3.3l1.2-5.8Zm2.5-12.3h0c.4,1.8,1.1,4.9,2,9.4h-3.8c.8-4.1,1.5-7.4,1.8-9.4h0Z"/>
    <polygon points="220.24 51.6 212.94 51.6 212.94 33.4 209.64 33.4 209.64 54.3 219.94 54.3 220.24 51.6"/>
    <path d="M303.24,0H48.14V24.4h17.1v24.2h-12.2c-9.2-13.2-27.3-16.4-40.5-7.3S-3.96,68.5,5.14,81.6l.1,.1c9.2,13.2,27.3,16.5,40.6,7.3,2.9-2,5.4-4.4,7.3-7.3h12.1v116.1h112.7v-15.9h-11.7v-8.4h16.9v24.2h3.7v-24.2h58.4v24.3h38.8V24.4h19.4l-.2-24.4h0ZM65.14,52.3v4.2h-8.2c-.4-1.5-1-2.9-1.8-4.2,0,0,10,0,10,0Zm-7.2,7.9h7.3v10h-7.3c.5-3.3,.5-6.7,0-10h0Zm-28.8,30.4c-14,0-25.4-11.4-25.4-25.4s11.4-25.4,25.4-25.4,25.4,11.4,25.4,25.4h0c0,14-11.3,25.3-25.4,25.4Zm26.1-12.6c.7-1.4,1.3-2.8,1.8-4.2h8.2v4.2h-10Zm45.1,116.1h-31.5V24.4h8v23.5h15.5V24.4h8V194.1h0ZM80.54,24.4h8v19.8h-8V24.4Zm81.8,124.3l-11.1-6.8h-5.9V67.2h17v81.5Zm-20.8-6.8h-4.2V71.4h-29v70.5h-4.2V67.2h37.5l-.1,74.7h0Zm-29.6,3.7h21.6v16.2h-21.6v-16.2Zm0-3.7V75.1h21.6v66.8h-21.6Zm-7.9,3.7h4.2v20h29v-20h4.3v24.2h-37.5v-24.2Zm41.3,0h4.8l12.1,7.4v16.8h-17l.1-24.2h0Zm20.7-78.4h58.3v74.8h-58.3V67.2Zm62,0h17v74.8h-17V67.2Zm17-3.7H104.04V24.4H245.04V63.5h0Zm-71,122.1v8.4H104.04v-20.6h58.3v12.1l11.7,.1h0Zm-8-15.8v-14.5l16.9,10.4v4.1h-16.9Zm20.6,0v-6.2l-20.6-12.7v-5.3h79v24.2h-58.4Zm93.5,24.3h-31.4V24.4h8v23.5h15.4V24.4h7.9l.1,169.7Zm-19.7-169.7h8v19.8h-8V24.4Zm39-3.7H51.84V3.7h247.7l-.1,17Z"/>
    <path d="M127.84,109.3c-1,0-1.8,.8-1.9,1.8h0v14.7c0,1,.8,1.8,1.8,1.9h0c1,0,1.8-.8,1.9-1.8h0v-14.6c0-1.1-.8-1.9-1.8-2h0Z"/>
  </g>
</svg>