<svg width="506" height="218" viewBox="0 0 506 218" fill="none" xmlns="http://www.w3.org/2000/svg">
<g clip-path="url(#clip0_1268_1059)">
<g clip-path="url(#clip1_1268_1059)">
<path d="M462.099 14.1431H452.018C450.555 14.1431 449.254 15.4436 449.254 16.9067C449.254 18.3698 450.555 19.6703 452.018 19.6703H462.099C463.562 19.6703 464.863 18.3698 464.863 16.9067C465.026 15.4436 463.725 14.1431 462.099 14.1431Z" fill="#0D26F9"/>
<path d="M468.765 125.013C468.765 123.55 467.465 122.249 466.001 122.249L191.213 120.624L191.701 46.0061C191.701 40.804 187.636 36.5773 182.433 36.5773L123.573 36.0896C118.37 36.0896 114.143 40.1537 114.143 45.3558L113.655 134.116C113.655 136.067 114.143 138.018 115.281 139.644L134.63 167.442C136.418 170.043 139.345 171.669 142.434 171.506L181.62 171.669C186.823 171.669 191.051 167.605 191.051 162.403L191.213 125.988L466.164 127.614C467.627 127.614 468.765 126.476 468.765 125.013ZM185.36 162.565C185.36 164.679 183.734 166.304 181.783 166.304H181.62L142.434 166.142C141.134 166.142 139.996 165.492 139.345 164.516L119.996 136.555C119.671 135.905 119.346 135.092 119.346 134.442L119.834 45.5184C119.834 43.405 121.46 41.7794 123.411 41.6168H123.573L182.271 41.9419C184.384 42.1045 186.01 43.7302 186.01 45.8435L185.36 162.565Z" fill="#0D26F9"/>
<path d="M462.912 134.116L441.774 133.954C438.522 133.954 435.758 136.555 435.758 139.806V151.348C435.758 154.6 438.36 157.201 441.449 157.201L462.587 157.363C465.839 157.201 468.44 154.6 468.603 151.511V139.969C468.765 136.88 466.164 134.279 462.912 134.116ZM463.237 151.348C463.237 151.511 463.075 151.673 462.912 151.673L441.774 151.511C441.612 151.511 441.449 151.348 441.449 151.186V139.806C441.449 139.644 441.612 139.481 441.774 139.481L462.912 139.644C463.075 139.644 463.237 139.806 463.237 139.969V151.348Z" fill="#0D26F9"/>
<path d="M499.334 154.112H488.602C487.952 154.112 487.301 154.274 486.651 154.437L480.798 22.1089C479.822 10.7293 470.391 1.9508 459.01 1.9508L154.954 1.20075e-05C121.947 -0.325118 90.7288 14.7934 70.4042 40.8039L42.7629 79.9821C41.1369 82.258 39.8361 84.6965 38.6979 87.2976C37.072 85.0216 34.4704 83.5585 31.5437 83.396H22.9261C19.8368 83.396 17.2352 85.8345 17.2352 88.9232V96.0761C17.2352 99.1648 19.6742 101.603 22.7635 101.603H31.3811C32.5193 101.603 33.82 101.278 34.7956 100.79L20.3245 162.89C19.349 162.403 18.3734 162.078 17.2352 162.078H6.66645C3.08933 162.078 0.162596 164.841 0.162596 168.418L0 185.65C0 189.226 2.76414 192.152 6.34126 192.152H16.91C20.4871 192.152 23.4139 189.389 23.5765 185.812V182.236C24.3895 182.561 25.2024 182.723 26.0154 182.723H27.3162C31.3811 182.886 34.7956 179.797 35.1208 175.733C37.2346 155.575 53.3316 139.806 73.4936 137.855C96.9074 135.742 117.557 152.811 119.834 176.221C120.159 180.285 123.573 183.374 127.638 183.374L319.99 184.512C324.055 184.674 327.469 181.585 327.794 177.521C330.071 155.738 348.444 139.156 370.395 139.318H370.72C372.183 139.318 408.28 136.717 428.441 178.984C429.58 180.935 431.368 185.162 436.084 185.162L479.822 185.487H480.472C481.123 185.487 481.773 185.324 482.261 185.162V188.576C482.261 192.152 485.025 195.078 488.602 195.078H499.334C502.911 195.078 505.837 192.315 505.837 188.738L506 160.452C505.837 157.038 502.911 154.112 499.334 154.112ZM74.6317 44.2178C75.4447 43.2424 76.2577 42.267 76.9081 41.4541H85.0379C87.3143 41.4541 89.2654 43.4049 89.2654 45.6808L89.1028 79.657C89.1028 81.9329 87.1517 83.8837 84.8753 83.8837L46.8278 83.5585L46.9904 83.2334L74.6317 44.2178ZM31.5437 96.2386H22.9261V89.0858L31.5437 89.2483C33.3323 89.2483 34.7956 90.7114 34.7956 92.4996C34.7956 94.2879 33.3323 96.0761 31.5437 96.2386ZM18.0482 185.975C18.0482 186.3 17.723 186.787 17.3978 186.787H6.50386C6.17866 186.787 5.69087 186.462 5.69087 186.137V185.975L5.85347 168.743C5.85347 168.255 6.17866 167.93 6.50386 167.93H17.2352C17.5604 167.93 18.0482 168.255 18.0482 168.58V185.975ZM481.448 179.147C480.96 179.635 480.31 179.96 479.497 179.96L435.758 179.635C435.108 179.635 434.458 179.147 433.319 176.708C421.938 152.811 405.515 142.407 393.646 137.855C386.979 135.417 379.825 133.954 372.671 133.791C371.858 133.791 371.045 133.791 370.395 133.954C345.68 133.791 324.868 152.486 322.429 177.034C322.429 178.172 321.453 179.147 320.315 178.984L127.963 177.846C126.825 177.846 125.687 177.034 125.524 175.733C123.411 152.974 105.525 134.767 82.7616 132.328C56.4209 129.402 32.6819 148.585 29.7551 174.92V175.083C29.5925 176.221 28.617 177.034 27.3162 177.034H26.0154C25.2024 177.034 24.5521 176.708 24.0643 176.058C23.9017 175.896 23.9017 175.733 23.7391 175.57V173.295L42.2751 94.2879C42.6003 92.4996 43.2506 90.874 43.901 89.0858L84.8753 89.4109C90.241 89.4109 94.6311 85.0216 94.7937 79.657L94.9563 45.6808C94.9563 40.3162 90.7288 35.9269 85.3631 35.7644H82.1112C84.3875 33.4885 86.6639 31.3751 88.9402 29.4243L461.936 31.7002C463.562 31.7002 464.7 30.3997 464.863 28.7741C464.863 27.311 463.562 26.0105 462.099 26.0105L96.2571 23.7345C113.492 11.7047 133.979 5.36467 154.954 5.52723L459.01 7.47801C467.465 7.47801 474.456 13.9806 475.269 22.434L482.098 177.196V177.846C481.936 178.334 481.773 178.822 481.448 179.147ZM499.984 188.901C499.984 189.389 499.659 189.714 499.334 189.714H488.602C488.277 189.714 487.789 189.389 487.789 189.063V188.901L487.952 160.614C487.952 160.289 488.277 159.802 488.602 159.802H499.496C499.821 159.802 500.309 160.127 500.309 160.452V160.614L499.984 188.901Z" fill="#0D26F9"/>
<path d="M90.0784 97.5391H82.9242C80.3226 97.7016 78.3715 99.6524 78.2089 102.253L78.0463 120.623C78.2089 123.224 80.16 125.175 82.7616 125.338H89.9158C92.5173 125.338 94.6311 123.224 94.6311 120.623L94.7937 102.253C94.7937 99.6524 92.8425 97.5391 90.241 97.5391H90.0784ZM89.1028 119.81H83.5745L83.7371 103.066H89.2654L89.1028 119.81Z" fill="#0D26F9"/>
<path d="M394.784 77.5437C394.784 79.0068 395.434 80.4699 396.573 81.4452L397.873 92.1746L401.288 93.3125L403.076 110.219H415.759L417.71 93.3125L421.125 92.3371L422.588 81.7704V81.4452C422.263 80.4699 421.612 79.657 420.637 79.3319C421.938 78.5191 422.913 77.2186 423.076 75.5929V75.1052C423.238 74.7801 423.238 74.6175 423.238 74.2924C423.238 74.1298 423.238 73.8047 423.076 73.6421C423.076 73.4795 422.913 73.317 422.913 73.1544C422.913 72.9919 422.913 72.9919 422.751 72.8293L422.588 72.6667C422.1 71.8539 421.45 71.2036 420.799 70.5534C420.474 70.3908 419.986 70.2282 419.336 69.9031C421.775 68.44 422.588 65.1887 421.125 62.7502C420.474 61.6123 419.499 60.962 418.361 60.6369L418.848 60.1492L419.824 58.6861C420.799 56.0851 419.661 53.1589 417.06 52.1835H416.897L411.857 50.2327C410.393 49.745 409.418 48.2819 409.418 46.8188C409.418 46.3312 409.58 45.8435 409.743 45.3558L410.068 44.7055L409.255 44.5429C408.767 44.3804 408.28 44.3804 407.792 44.3804C404.052 44.3804 401.125 47.3065 401.125 50.883V51.0455C401.125 52.6712 401.613 54.1343 402.589 55.2722C402.263 55.2722 401.776 55.4348 401.45 55.5974L400.8 55.9225C399.174 56.7353 398.199 58.5235 398.199 60.3118V61.1246C398.199 61.4497 398.361 61.6123 398.361 61.9374C398.361 62.1 398.524 62.4251 398.686 62.5877L398.849 62.7502L399.012 63.0754L399.174 63.4005C399.337 63.7256 399.662 63.8882 399.825 64.2133C399.499 64.2133 399.012 64.3759 398.686 64.5385C398.361 64.701 398.199 64.8636 397.873 65.0262L397.711 65.1887L397.386 65.5139L397.06 65.839C395.272 67.7898 395.272 70.8785 397.223 72.6667L397.386 72.8293C397.494 72.9377 397.602 72.9919 397.711 72.9919C396.085 73.8047 394.784 75.5929 394.784 77.5437ZM412.995 106.643H406.166L404.865 93.3125H414.621L412.995 106.643ZM419.173 82.4206L418.198 89.4109L415.922 90.2238H403.889L401.613 89.4109L400.8 82.4206H419.173Z" fill="#0D26F9"/>
<path d="M236.903 81.6078C236.903 75.918 236.74 71.041 236.74 67.1395C237.228 68.6026 238.204 71.8539 245.846 92.012H251.537L251.699 60.3117H247.146V70.0656C247.146 75.4303 247.147 79.9821 247.309 83.8837C246.984 82.4206 245.846 79.1693 238.529 60.1492H232.675L232.513 91.8494H236.903V81.6078Z" fill="#0D26F9"/>
<path d="M265.683 92.8248C272.837 92.8248 275.926 87.6227 275.926 76.2431C275.926 64.8636 272.999 60.1492 266.008 60.1492C259.666 60.1492 255.927 64.8636 255.927 76.0806C255.764 87.6227 258.853 92.6622 265.683 92.8248ZM266.008 64.2133C269.585 64.2133 271.048 68.1149 270.886 76.0806C270.886 84.3714 269.26 88.5981 265.845 88.5981C262.431 88.5981 260.967 84.2088 261.13 76.0806C261.13 68.44 262.431 64.2133 266.008 64.2133Z" fill="#0D26F9"/>
<path d="M285.519 78.5189H288.446C292.348 78.5189 293.324 80.3071 293.161 84.6964V85.8343C292.999 88.1102 293.161 90.3862 293.649 92.4995H298.527C298.202 90.2236 298.039 88.1102 298.039 85.8343V84.5338C298.039 79.982 297.064 77.7061 294.299 76.5681C296.088 75.7553 298.527 73.9671 298.527 69.2527C298.527 63.5629 295.438 60.6367 289.909 60.6367H280.641L280.479 92.4995H285.357V78.5189H285.519ZM285.682 64.7009H289.259C291.535 64.5383 293.649 66.1639 293.812 68.4398V69.4152C293.812 72.8291 292.348 74.6173 288.771 74.6173H285.682V64.7009Z" fill="#0D26F9"/>
<path d="M308.445 80.9574C308.445 75.4302 308.283 68.765 308.283 65.026H308.445C309.421 71.0409 311.535 83.2333 313.323 92.6621H317.876C320.152 82.5831 322.429 70.8784 323.567 65.026H323.729C323.729 68.4399 323.567 74.4548 323.567 80.1446V92.4995H328.282L328.445 60.7993H321.291C319.177 69.5778 316.738 80.3071 316.087 84.3713C315.274 79.982 313.648 70.0655 311.697 60.7993H304.38L304.055 92.4995H308.608L308.445 80.9574Z" fill="#0D26F9"/>
<path d="M338.201 84.0462H346.005L347.794 92.8247H352.997L345.517 61.1245H339.176L331.534 92.6622H336.412L338.201 84.0462ZM341.94 65.5138H342.103C342.591 68.4399 343.566 72.9918 345.03 79.8195H339.176C340.314 73.4795 341.452 68.2774 341.94 65.5138Z" fill="#0D26F9"/>
<path d="M371.695 92.8247L372.346 88.598L361.289 88.4354L361.452 61.1245L356.574 60.9619L356.249 92.6621L371.695 92.8247Z" fill="#0D26F9"/>
<path d="M370.395 145.984C350.558 145.821 334.298 161.915 334.136 181.748C333.973 201.581 350.07 217.837 369.907 218C389.744 218.163 406.003 202.069 406.166 182.236C406.166 162.403 390.231 146.146 370.395 145.984ZM369.907 210.034C354.46 209.872 342.103 197.354 342.103 181.911C342.103 166.467 354.785 154.112 370.069 154.112C385.516 154.274 397.873 166.792 397.873 182.236C398.036 197.679 385.353 210.034 369.907 210.034Z" fill="#0D26F9"/>
<path d="M370.232 163.866C360.151 163.866 351.859 171.994 351.859 182.073C351.859 192.152 359.988 200.443 370.069 200.443C380.15 200.443 388.443 192.315 388.443 182.236C388.443 172.157 380.313 163.866 370.232 163.866Z" fill="#0D26F9"/>
<path d="M175.442 48.4445L130.565 48.1194C128.289 48.1194 126.337 49.9076 126.337 52.3461L126.175 82.5832C126.175 84.8591 127.963 86.8099 130.402 86.8099L175.116 87.135C177.393 87.135 179.344 85.3468 179.344 82.9083L179.506 52.6712C179.506 50.3953 177.718 48.6071 175.442 48.4445ZM173.653 81.6078L131.703 81.2827L131.866 53.8092L173.816 54.1343L173.653 81.6078Z" fill="#0D26F9"/>
<path d="M143.573 12.1924H133.492C132.028 12.1924 130.728 13.4929 130.728 14.956C130.728 16.4191 132.028 17.7196 133.492 17.7196H143.573C145.036 17.7196 146.337 16.4191 146.337 14.956C146.499 13.3303 145.199 12.0298 143.573 12.1924C143.573 12.084 143.573 12.084 143.573 12.1924Z" fill="#0D26F9"/>
<path d="M128.614 97.7017C127.15 97.7017 125.85 99.0022 125.85 100.465L125.687 122.737C125.687 124.2 126.988 125.5 128.451 125.5C130.077 125.5 131.215 124.2 131.215 122.574V122.412L131.378 100.303C131.378 99.0022 130.24 97.7017 128.614 97.7017Z" fill="#0D26F9"/>
<path d="M77.5585 144.195C57.7217 144.033 41.4621 160.127 41.2995 179.96C41.1369 199.793 57.234 216.049 77.0707 216.212C96.9075 216.374 113.167 200.28 113.33 180.447C113.492 160.614 97.3953 144.358 77.5585 144.195ZM77.2333 208.246C61.7866 208.083 49.4293 195.566 49.4293 180.122C49.5919 164.679 62.1118 152.324 77.5585 152.324C93.0052 152.486 105.362 165.004 105.362 180.447C105.2 195.891 92.5174 208.246 77.2333 208.246Z" fill="#0D26F9"/>
<path d="M77.721 161.915C67.6401 161.915 59.5103 169.881 59.3477 179.96C59.3477 190.039 67.4775 198.33 77.5585 198.33C87.6394 198.33 95.9318 190.201 95.9318 180.122C95.9318 170.206 87.802 162.078 77.721 161.915Z" fill="#0D26F9"/>
</g>
</g>
<defs>
<clipPath id="clip0_1268_1059">
<rect width="506" height="218" fill="white"/>
</clipPath>
<clipPath id="clip1_1268_1059">
<rect width="506" height="218" fill="white"/>
</clipPath>
</defs>
</svg>
