<svg width="342" height="147" viewBox="0 0 342 147" fill="none" xmlns="http://www.w3.org/2000/svg">
<g clip-path="url(#clip0_1269_1288)">
<g clip-path="url(#clip1_1269_1288)">
<path d="M312.328 9.53687H305.514C304.525 9.53687 303.646 10.4138 303.646 11.4004C303.646 12.387 304.525 13.2639 305.514 13.2639H312.328C313.317 13.2639 314.196 12.387 314.196 11.4004C314.306 10.4138 313.427 9.53687 312.328 9.53687Z" fill="#0D26F9"/>
<path d="M316.834 84.2974C316.834 83.3108 315.954 82.4339 314.965 82.4339L129.239 81.3377L129.569 31.0222C129.569 27.5144 126.821 24.6643 123.305 24.6643L83.5218 24.3354C80.0051 24.3354 77.1478 27.0759 77.1478 30.5838L76.8181 90.4361C76.8181 91.7516 77.1478 93.067 77.9171 94.1632L90.9949 112.908C92.2037 114.662 94.1819 115.758 96.2699 115.649L122.755 115.758C126.272 115.758 129.129 113.018 129.129 109.51L129.239 84.9551L315.075 86.0513C316.064 86.0513 316.834 85.284 316.834 84.2974ZM125.283 109.62C125.283 111.045 124.184 112.141 122.865 112.141H122.755L96.2699 112.031C95.3907 112.031 94.6215 111.593 94.1819 110.935L81.1041 92.0804C80.8843 91.6419 80.6645 91.0938 80.6645 90.6554L80.9942 30.6934C80.9942 29.2683 82.0932 28.1721 83.4119 28.0625H83.5218L123.195 28.2818C124.623 28.3914 125.722 29.4876 125.722 30.9126L125.283 109.62Z" fill="#0D26F9"/>
<path d="M312.877 90.4363L298.591 90.3267C296.393 90.3267 294.524 92.0806 294.524 94.273V102.056C294.524 104.248 296.283 106.002 298.371 106.002L312.657 106.112C314.855 106.002 316.614 104.248 316.724 102.166V94.3826C316.834 92.2998 315.075 90.5459 312.877 90.4363ZM313.097 102.056C313.097 102.166 312.987 102.275 312.877 102.275L298.591 102.166C298.481 102.166 298.371 102.056 298.371 101.946V94.273C298.371 94.1633 298.481 94.0537 298.591 94.0537L312.877 94.1633C312.987 94.1633 313.097 94.273 313.097 94.3826V102.056Z" fill="#0D26F9"/>
<path d="M337.494 103.92H330.241C329.801 103.92 329.362 104.029 328.922 104.139L324.966 14.9083C324.307 7.23495 317.932 1.31548 310.24 1.31548L104.732 4.72937e-05C82.4229 -0.219192 61.3226 9.97544 47.5855 27.5146L28.903 53.9329C27.804 55.4676 26.9248 57.1119 26.1555 58.8658C25.0566 57.3311 23.2982 56.3446 21.3201 56.2349H15.4955C13.4075 56.2349 11.6491 57.8792 11.6491 59.962V64.7853C11.6491 66.868 13.2976 68.5123 15.3856 68.5123H21.2102C21.9794 68.5123 22.8586 68.2931 23.518 67.9642L13.7371 109.839C13.0778 109.51 12.4184 109.291 11.6491 109.291H4.50578C2.08805 109.291 0.109897 111.154 0.109897 113.566L0 125.186C0 127.597 1.86825 129.57 4.28599 129.57H11.4293C13.847 129.57 15.8252 127.707 15.9351 125.295V122.884C16.4846 123.103 17.0341 123.213 17.5835 123.213H18.4627C21.2102 123.322 23.518 121.239 23.7378 118.499C25.1665 104.906 36.0463 94.273 49.6735 92.9575C65.4987 91.5325 79.4557 103.043 80.9942 118.828C81.214 121.568 83.5219 123.651 86.2693 123.651L216.278 124.418C219.025 124.528 221.333 122.445 221.553 119.705C223.091 105.016 235.51 93.8345 250.346 93.9441H250.566C251.555 93.9441 275.952 92.1902 289.579 120.691C290.348 122.007 291.557 124.857 294.744 124.857L324.307 125.076H324.746C325.186 125.076 325.625 124.966 325.955 124.857V127.159C325.955 129.57 327.823 131.544 330.241 131.544H337.494C339.912 131.544 341.89 129.68 341.89 127.268L342 108.195C341.89 105.893 339.912 103.92 337.494 103.92ZM50.4428 29.8166C50.9923 29.1589 51.5418 28.5012 51.9814 27.9531H57.4762C59.0148 27.9531 60.3335 29.2685 60.3335 30.8032L60.2236 53.7137C60.2236 55.2484 58.9049 56.5638 57.3663 56.5638L31.6504 56.3446L31.7603 56.1253L50.4428 29.8166ZM21.3201 64.8949H15.4955V60.0716L21.3201 60.1813C22.5289 60.1813 23.518 61.1678 23.518 62.3736C23.518 63.5795 22.5289 64.7853 21.3201 64.8949ZM12.1986 125.405C12.1986 125.624 11.9788 125.953 11.759 125.953H4.39589C4.17609 125.953 3.8464 125.734 3.8464 125.515V125.405L3.9563 113.785C3.9563 113.456 4.17609 113.237 4.39589 113.237H11.6491C11.8689 113.237 12.1986 113.456 12.1986 113.676V125.405ZM325.406 120.801C325.076 121.13 324.636 121.349 324.087 121.349L294.524 121.13C294.085 121.13 293.645 120.801 292.876 119.157C285.183 103.043 274.084 96.0269 266.061 92.9575C261.555 91.3132 256.72 90.3267 251.884 90.217C251.335 90.217 250.785 90.217 250.346 90.3267C233.641 90.217 219.575 102.823 217.926 119.376C217.926 120.143 217.267 120.801 216.497 120.691L86.4891 119.924C85.7198 119.924 84.9505 119.376 84.8406 118.499C83.4119 103.152 71.3233 90.8748 55.9377 89.2305C38.1343 87.2573 22.0893 100.192 20.1112 117.951V118.06C20.0013 118.828 19.3419 119.376 18.4627 119.376H17.5835C17.0341 119.376 16.5945 119.157 16.2648 118.718C16.1549 118.609 16.1549 118.499 16.045 118.389V116.855L28.5733 63.5795C28.7931 62.3736 29.2326 61.2774 29.6722 60.0716L57.3663 60.2909C60.9929 60.2909 63.9602 57.3311 64.0701 53.7137L64.1799 30.8032C64.1799 27.1857 61.3226 24.226 57.696 24.1164H55.4981C57.0366 22.5817 58.5752 21.1566 60.1138 19.8412L312.218 21.3759C313.317 21.3759 314.086 20.4989 314.196 19.4027C314.196 18.4162 313.317 17.5392 312.328 17.5392L65.0591 16.0045C76.7082 7.89266 90.5553 3.6175 104.732 3.72712L310.24 5.04255C315.954 5.04255 320.68 9.42734 321.229 15.1276L325.845 119.485V119.924C325.735 120.253 325.625 120.582 325.406 120.801ZM337.934 127.378C337.934 127.707 337.714 127.926 337.494 127.926H330.241C330.021 127.926 329.692 127.707 329.692 127.488V127.378L329.801 108.304C329.801 108.085 330.021 107.756 330.241 107.756H337.604C337.824 107.756 338.154 107.975 338.154 108.195V108.304L337.934 127.378Z" fill="#0D26F9"/>
<path d="M60.883 65.7717H56.0476C54.2892 65.8813 52.9704 67.1968 52.8605 68.9507L52.7506 81.3377C52.8605 83.0916 54.1793 84.4071 55.9377 84.5167H60.7731C62.5315 84.5167 63.9602 83.0916 63.9602 81.3377L64.07 68.9507C64.07 67.1968 62.7513 65.7717 60.9929 65.7717H60.883ZM60.2236 80.7896H56.4871L56.597 69.4988H60.3335L60.2236 80.7896Z" fill="#0D26F9"/>
<path d="M266.83 52.2887C266.83 53.2753 267.27 54.2618 268.039 54.9196L268.918 62.1545L271.226 62.9218L272.435 74.3222H281.007L282.326 62.9218L284.634 62.2641L285.623 55.1388V54.9196C285.403 54.2618 284.963 53.7137 284.304 53.4945C285.183 52.9464 285.843 52.0694 285.952 50.9732V50.6444C286.062 50.4251 286.062 50.3155 286.062 50.0963C286.062 49.9867 286.062 49.7674 285.952 49.6578C285.952 49.5482 285.843 49.4386 285.843 49.329C285.843 49.2193 285.843 49.2193 285.733 49.1097L285.623 49.0001C285.293 48.452 284.853 48.0135 284.414 47.575C284.194 47.4654 283.864 47.3558 283.425 47.1366C285.073 46.15 285.623 43.9576 284.634 42.3133C284.194 41.546 283.535 41.1075 282.765 40.8882L283.095 40.5594L283.754 39.5728C284.414 37.8189 283.645 35.8457 281.886 35.188H281.776L278.37 33.8726C277.38 33.5437 276.721 32.5571 276.721 31.5706C276.721 31.2417 276.831 30.9128 276.941 30.584L277.161 30.1455L276.611 30.0359C276.281 29.9263 275.952 29.9263 275.622 29.9263C273.094 29.9263 271.116 31.8994 271.116 34.3111V34.4207C271.116 35.5169 271.446 36.5035 272.105 37.2708C271.886 37.2708 271.556 37.3804 271.336 37.49L270.897 37.7093C269.798 38.2574 269.138 39.4632 269.138 40.669V41.2171C269.138 41.4363 269.248 41.546 269.248 41.7652C269.248 41.8748 269.358 42.0941 269.468 42.2037L269.578 42.3133L269.688 42.5325L269.798 42.7518C269.907 42.971 270.127 43.0806 270.237 43.2999C270.017 43.2999 269.688 43.4095 269.468 43.5191C269.248 43.6287 269.138 43.7383 268.918 43.848L268.808 43.9576L268.589 44.1768L268.369 44.3961C267.16 45.7115 267.16 47.7943 268.479 49.0001L268.589 49.1097C268.662 49.1828 268.735 49.2193 268.808 49.2193C267.71 49.7674 266.83 50.9732 266.83 52.2887ZM279.139 71.9106H274.523L273.644 62.9218H280.238L279.139 71.9106ZM283.315 55.5773L282.656 60.2909L281.117 60.839H272.985L271.446 60.2909L270.897 55.5773H283.315Z" fill="#0D26F9"/>
<path d="M160.12 55.0291C160.12 51.1924 160.01 47.9038 160.01 45.273C160.34 46.2595 160.999 48.4519 166.165 62.0448H170.011L170.121 40.6689H167.044V47.2461C167.044 50.8636 167.044 53.9329 167.154 56.5638C166.934 55.5772 166.165 53.3848 161.219 40.5593H157.263L157.153 61.9352H160.12V55.0291Z" fill="#0D26F9"/>
<path d="M179.572 62.5929C184.407 62.5929 186.496 59.0851 186.496 51.4117C186.496 43.7383 184.517 40.5593 179.792 40.5593C175.506 40.5593 172.978 43.7383 172.978 51.3021C172.868 59.0851 174.956 62.4833 179.572 62.5929ZM179.792 43.2998C182.21 43.2998 183.199 45.9307 183.089 51.3021C183.089 56.8927 181.99 59.7428 179.682 59.7428C177.374 59.7428 176.385 56.783 176.495 51.3021C176.495 46.1499 177.374 43.2998 179.792 43.2998Z" fill="#0D26F9"/>
<path d="M192.979 52.9463H194.958C197.595 52.9463 198.254 54.1522 198.145 57.1119V57.8792C198.035 59.4139 198.145 60.9486 198.474 62.3736H201.771C201.551 60.839 201.442 59.4139 201.442 57.8792V57.0023C201.442 53.9329 200.782 52.3982 198.914 51.6309C200.123 51.0828 201.771 49.877 201.771 46.698C201.771 42.8613 199.683 40.8882 195.947 40.8882H189.683L189.573 62.3736H192.87V52.9463H192.979ZM193.089 43.6287H195.507C197.046 43.5191 198.474 44.6153 198.584 46.1499V46.8076C198.584 49.1097 197.595 50.3155 195.177 50.3155H193.089V43.6287Z" fill="#0D26F9"/>
<path d="M208.475 54.5906C208.475 50.8636 208.365 46.3692 208.365 43.8479H208.475C209.134 47.9038 210.563 56.1253 211.772 62.4833H214.849C216.388 55.6868 217.926 47.7942 218.695 43.8479H218.805C218.805 46.1499 218.695 50.2059 218.695 54.0425V62.3736H221.882L221.992 40.9978H217.157C215.728 46.9173 214.08 54.1522 213.64 56.8927C213.091 53.9329 211.992 47.2461 210.673 40.9978H205.727L205.508 62.3736H208.585L208.475 54.5906Z" fill="#0D26F9"/>
<path d="M228.586 56.6734H233.861L235.07 62.5929H238.587L233.531 41.217H229.245L224.08 62.4833H227.377L228.586 56.6734ZM231.114 44.1768H231.224C231.553 46.1499 232.213 49.2193 233.202 53.8233H229.245C230.015 49.5481 230.784 46.0403 231.114 44.1768Z" fill="#0D26F9"/>
<path d="M251.225 62.5929L251.665 59.7428L244.192 59.6332L244.301 41.217L241.005 41.1074L240.785 62.4833L251.225 62.5929Z" fill="#0D26F9"/>
<path d="M250.346 98.4386C236.938 98.3289 225.949 109.181 225.839 122.555C225.729 135.929 236.609 146.89 250.016 147C263.424 147.11 274.413 136.257 274.523 122.884C274.523 109.51 263.753 98.5482 250.346 98.4386ZM250.016 141.629C239.576 141.519 231.224 133.078 231.224 122.665C231.224 112.251 239.796 103.92 250.126 103.92C260.566 104.029 268.918 112.47 268.918 122.884C269.028 133.298 260.456 141.629 250.016 141.629Z" fill="#0D26F9"/>
<path d="M250.236 110.497C243.422 110.497 237.817 115.978 237.817 122.774C237.817 129.57 243.312 135.161 250.126 135.161C256.94 135.161 262.544 129.68 262.544 122.884C262.544 116.087 257.049 110.497 250.236 110.497Z" fill="#0D26F9"/>
<path d="M118.579 32.6667L88.2474 32.4475C86.7089 32.4475 85.3901 33.6533 85.3901 35.2976L85.2802 55.6869C85.2802 57.2216 86.4891 58.537 88.1375 58.537L118.359 58.7562C119.898 58.7562 121.217 57.5504 121.217 55.9061L121.326 35.5169C121.326 33.9822 120.118 32.7764 118.579 32.6667ZM117.37 55.0292L89.0167 54.8099L89.1266 36.2842L117.48 36.5034L117.37 55.0292Z" fill="#0D26F9"/>
<path d="M97.0392 8.22156H90.2256C89.2365 8.22156 88.3573 9.09852 88.3573 10.0851C88.3573 11.0717 89.2365 11.9486 90.2256 11.9486H97.0392C98.0283 11.9486 98.9075 11.0717 98.9075 10.0851C99.0174 8.9889 98.1382 8.11194 97.0392 8.22156C97.0392 8.14848 97.0392 8.14848 97.0392 8.22156Z" fill="#0D26F9"/>
<path d="M86.9286 65.8813C85.9396 65.8813 85.0604 66.7583 85.0604 67.7449L84.9505 82.7628C84.9505 83.7494 85.8297 84.6263 86.8187 84.6263C87.9177 84.6263 88.687 83.7494 88.687 82.6532V82.5435L88.7969 67.6353C88.7969 66.7583 88.0276 65.8813 86.9286 65.8813Z" fill="#0D26F9"/>
<path d="M52.421 97.2328C39.0135 97.1231 28.0238 107.975 27.9139 121.349C27.804 134.723 38.6838 145.685 52.0913 145.794C65.4987 145.904 76.4884 135.052 76.5983 121.678C76.7082 108.304 65.8284 97.3424 52.421 97.2328ZM52.2012 140.423C41.7609 140.313 33.4087 131.873 33.4087 121.459C33.5186 111.045 41.9807 102.714 52.421 102.714C62.8612 102.823 71.2134 111.264 71.2134 121.678C71.1035 132.092 62.5315 140.423 52.2012 140.423Z" fill="#0D26F9"/>
<path d="M52.5308 109.181C45.7172 109.181 40.2224 114.553 40.1125 121.349C40.1125 128.145 45.6073 133.736 52.4209 133.736C59.2346 133.736 64.8393 128.255 64.8393 121.459C64.8393 114.772 59.3445 109.291 52.5308 109.181Z" fill="#0D26F9"/>
</g>
</g>
<defs>
<clipPath id="clip0_1269_1288">
<rect width="342" height="147" fill="white"/>
</clipPath>
<clipPath id="clip1_1269_1288">
<rect width="342" height="147" fill="white"/>
</clipPath>
</defs>
</svg>
