<?xml version="1.0" encoding="UTF-8"?>
<svg id="Layer_1" data-name="Layer 1" xmlns="http://www.w3.org/2000/svg" xmlns:xlink="http://www.w3.org/1999/xlink" viewBox="0 0 212 91">
  <defs>
    <style>
      .cls-1 {
        fill: none;
      }

      .cls-2 {
        fill: #0b21e3;
      }

      .cls-3 {
        clip-path: url(#clippath);
      }
    </style>
    <clipPath id="clippath">
      <rect class="cls-1" y="0" width="212" height="91"/>
    </clipPath>
  </defs>
  <g class="cls-3">
    <g>
      <path class="cls-2" d="M193.61,5.91h-4.22c-.61,0-1.16.54-1.16,1.15s.54,1.15,1.16,1.15h4.22c.61,0,1.16-.54,1.16-1.15.07-.61-.48-1.15-1.16-1.15Z"/>
      <path class="cls-2" d="M196.4,52.19c0-.61-.54-1.15-1.16-1.15l-115.13-.68.2-31.15c0-2.17-1.7-3.94-3.88-3.94l-24.66-.2c-2.18,0-3.95,1.7-3.95,3.87l-.2,37.05c0,.81.2,1.63.68,2.31l8.11,11.6c.75,1.09,1.98,1.76,3.27,1.7l16.42.07c2.18,0,3.95-1.7,3.95-3.87l.07-15.2,115.2.68c.61,0,1.09-.48,1.09-1.09ZM77.66,67.86c0,.88-.68,1.56-1.5,1.56h-.07l-16.42-.07c-.54,0-1.02-.27-1.29-.68l-8.11-11.67c-.14-.27-.27-.61-.27-.88l.2-37.12c0-.88.68-1.56,1.5-1.63h.07l24.59.14c.89.07,1.57.75,1.57,1.63l-.27,48.72Z"/>
      <path class="cls-2" d="M193.95,55.99l-8.86-.07c-1.36,0-2.52,1.09-2.52,2.44v4.82c0,1.36,1.09,2.44,2.38,2.44l8.86.07c1.36-.07,2.45-1.15,2.52-2.44v-4.82c.07-1.29-1.02-2.38-2.38-2.44ZM194.08,63.18c0,.07-.07.14-.14.14l-8.86-.07c-.07,0-.14-.07-.14-.14v-4.75c0-.07.07-.14.14-.14l8.86.07c.07,0,.14.07.14.14v4.75Z"/>
      <path class="cls-2" d="M209.21,64.33h-4.5c-.27,0-.54.07-.82.14l-2.45-55.24c-.41-4.75-4.36-8.41-9.13-8.41L64.92,0c-13.83-.14-26.91,6.18-35.42,17.03l-11.58,16.35c-.68.95-1.23,1.97-1.7,3.05-.68-.95-1.77-1.56-3-1.63h-3.61c-1.29,0-2.38,1.02-2.38,2.31v2.99c0,1.29,1.02,2.31,2.32,2.31h3.61c.48,0,1.02-.14,1.43-.34l-6.06,25.92c-.41-.2-.82-.34-1.29-.34H2.79c-1.5,0-2.72,1.15-2.72,2.65l-.07,7.19c0,1.49,1.16,2.71,2.66,2.71h4.43c1.5,0,2.72-1.15,2.79-2.65v-1.49c.34.14.68.2,1.02.2h.55c1.7.07,3.13-1.22,3.27-2.92.89-8.41,7.63-15,16.08-15.81,9.81-.88,18.46,6.24,19.42,16.01.14,1.7,1.57,2.99,3.27,2.99l80.59.47c1.7.07,3.13-1.22,3.27-2.92.95-9.09,8.65-16.01,17.85-15.95h.14c.61,0,15.74-1.09,24.18,16.56.48.81,1.23,2.58,3.2,2.58l18.32.14h.27c.27,0,.55-.07.75-.14v1.43c0,1.49,1.16,2.71,2.66,2.71h4.5c1.5,0,2.73-1.15,2.73-2.65l.07-11.81c-.07-1.43-1.29-2.65-2.79-2.65ZM31.27,18.46c.34-.41.68-.81.95-1.15h3.41c.95,0,1.77.81,1.77,1.76l-.07,14.18c0,.95-.82,1.76-1.77,1.76l-15.94-.14.07-.14,11.58-16.29ZM13.22,40.18h-3.61v-2.99l3.61.07c.75,0,1.36.61,1.36,1.36s-.61,1.49-1.36,1.56ZM7.56,77.63c0,.14-.14.34-.27.34H2.72c-.14,0-.34-.14-.34-.27v-.07l.07-7.19c0-.2.14-.34.27-.34h4.5c.14,0,.34.14.34.27v7.26ZM201.71,74.78c-.2.2-.48.34-.82.34l-18.32-.14c-.27,0-.54-.2-1.02-1.22-4.77-9.98-11.65-14.32-16.62-16.22-2.79-1.02-5.79-1.63-8.79-1.7-.34,0-.68,0-.95.07-10.35-.07-19.07,7.74-20.1,17.98,0,.47-.41.88-.89.81l-80.59-.47c-.48,0-.95-.34-1.02-.88-.89-9.5-8.38-17.1-17.92-18.12-11.04-1.22-20.98,6.79-22.21,17.78v.07c-.07.47-.48.81-1.02.81h-.55c-.34,0-.61-.14-.82-.41-.07-.07-.07-.14-.14-.2v-.95l7.77-32.98c.14-.75.41-1.42.68-2.17l17.17.14c2.25,0,4.09-1.83,4.16-4.07l.07-14.18c0-2.24-1.77-4.07-4.02-4.14h-1.36c.95-.95,1.91-1.83,2.86-2.65l156.28.95c.68,0,1.16-.54,1.23-1.22,0-.61-.54-1.15-1.16-1.15l-153.28-.95c7.22-5.02,15.8-7.67,24.59-7.6l127.39.81c3.54,0,6.47,2.71,6.81,6.24l2.86,64.6v.27c-.07.2-.14.41-.27.54ZM209.48,78.86c0,.2-.14.34-.27.34h-4.5c-.14,0-.34-.14-.34-.27v-.07l.07-11.81c0-.14.14-.34.27-.34h4.56c.14,0,.34.14.34.27v.07l-.14,11.81Z"/>
      <path class="cls-2" d="M37.74,40.72h-3c-1.09.07-1.91.88-1.98,1.97l-.07,7.67c.07,1.09.89,1.9,1.98,1.97h3c1.09,0,1.98-.88,1.98-1.97l.07-7.67c0-1.09-.82-1.97-1.91-1.97h-.07ZM37.33,50.01h-2.32l.07-6.99h2.32l-.07,6.99Z"/>
      <path class="cls-2" d="M165.4,32.37c0,.61.27,1.22.75,1.63l.54,4.48,1.43.48.75,7.06h5.31l.82-7.06,1.43-.41.61-4.41v-.14c-.14-.41-.41-.75-.82-.88.54-.34.95-.88,1.02-1.56v-.2c.07-.14.07-.2.07-.34,0-.07,0-.2-.07-.27,0-.07-.07-.14-.07-.2s0-.07-.07-.14l-.07-.07c-.2-.34-.48-.61-.75-.88-.14-.07-.34-.14-.61-.27,1.02-.61,1.36-1.97.75-2.99-.27-.47-.68-.75-1.16-.88l.2-.2.41-.61c.41-1.09-.07-2.31-1.16-2.71h-.07l-2.11-.81c-.61-.2-1.02-.81-1.02-1.43,0-.2.07-.41.14-.61l.14-.27-.34-.07c-.21-.07-.41-.07-.61-.07-1.57,0-2.79,1.22-2.79,2.71v.07c0,.68.2,1.29.61,1.76-.14,0-.34.07-.48.14l-.27.14c-.68.34-1.09,1.09-1.09,1.83v.34c0,.14.07.2.07.34,0,.07.07.2.14.27l.07.07.07.14.07.14c.07.14.21.2.27.34-.14,0-.34.07-.48.14-.14.07-.21.14-.34.2l-.07.07-.14.14-.14.14c-.75.81-.75,2.1.07,2.85l.07.07s.09.07.14.07c-.68.34-1.23,1.09-1.23,1.9ZM173.03,44.52h-2.86l-.54-5.56h4.09l-.68,5.56ZM175.62,34.41l-.41,2.92-.95.34h-5.04l-.95-.34-.34-2.92h7.7Z"/>
      <path class="cls-2" d="M99.26,34.07c0-2.38-.07-4.41-.07-6.04.2.61.61,1.97,3.82,10.38h2.38l.07-13.23h-1.91v4.07c0,2.24,0,4.14.07,5.77-.14-.61-.61-1.97-3.68-9.91h-2.45l-.07,13.23h1.84v-4.28Z"/>
      <path class="cls-2" d="M111.31,38.75c3,0,4.29-2.17,4.29-6.92s-1.23-6.72-4.16-6.72c-2.66,0-4.22,1.97-4.22,6.65-.07,4.82,1.23,6.92,4.09,6.99ZM111.45,26.81c1.5,0,2.11,1.63,2.04,4.95,0,3.46-.68,5.23-2.11,5.23s-2.04-1.83-1.98-5.23c0-3.19.54-4.95,2.04-4.95Z"/>
      <path class="cls-2" d="M119.62,32.78h1.23c1.64,0,2.04.75,1.97,2.58v.47c-.07.95,0,1.9.21,2.78h2.04c-.14-.95-.2-1.83-.2-2.78v-.54c0-1.9-.41-2.85-1.57-3.33.75-.34,1.77-1.09,1.77-3.05,0-2.38-1.29-3.6-3.61-3.6h-3.88l-.07,13.3h2.04v-5.84h.07ZM119.69,27.01h1.5c.95-.07,1.84.61,1.91,1.56v.41c0,1.42-.61,2.17-2.11,2.17h-1.29v-4.14Z"/>
      <path class="cls-2" d="M129.23,33.8c0-2.31-.07-5.09-.07-6.65h.07c.41,2.51,1.29,7.6,2.04,11.54h1.91c.95-4.21,1.91-9.09,2.38-11.54h.07c0,1.42-.07,3.94-.07,6.31v5.16h1.98l.07-13.23h-3c-.89,3.66-1.91,8.14-2.18,9.84-.34-1.83-1.02-5.97-1.84-9.84h-3.06l-.14,13.23h1.91l-.07-4.82Z"/>
      <path class="cls-2" d="M141.7,35.09h3.27l.75,3.66h2.18l-3.13-13.23h-2.66l-3.2,13.16h2.04l.75-3.6ZM143.26,27.35h.07c.2,1.22.61,3.12,1.23,5.97h-2.45c.48-2.65.95-4.82,1.16-5.97Z"/>
      <path class="cls-2" d="M155.73,38.75l.27-1.76-4.63-.07.07-11.4-2.04-.07-.14,13.23,6.47.07Z"/>
      <path class="cls-2" d="M155.18,60.94c-8.31-.07-15.12,6.65-15.19,14.93-.07,8.28,6.68,15.06,14.99,15.13,8.31.07,15.12-6.65,15.19-14.93,0-8.28-6.68-15.06-14.99-15.13ZM154.98,87.68c-6.47-.07-11.65-5.29-11.65-11.74s5.31-11.6,11.72-11.6c6.47.07,11.65,5.29,11.65,11.74.07,6.45-5.24,11.6-11.72,11.6Z"/>
      <path class="cls-2" d="M155.12,68.4c-4.22,0-7.7,3.39-7.7,7.6s3.41,7.67,7.63,7.67,7.7-3.39,7.7-7.6-3.41-7.67-7.63-7.67Z"/>
      <path class="cls-2" d="M73.51,20.22l-18.8-.14c-.95,0-1.77.75-1.77,1.76l-.07,12.62c0,.95.75,1.76,1.77,1.76l18.73.14c.95,0,1.77-.75,1.77-1.76l.07-12.62c0-.95-.75-1.7-1.7-1.76ZM72.76,34.07l-17.58-.14.07-11.47,17.58.14-.07,11.47Z"/>
      <path class="cls-2" d="M60.15,5.09h-4.22c-.61,0-1.16.54-1.16,1.15s.55,1.15,1.16,1.15h4.22c.61,0,1.16-.54,1.16-1.15.07-.68-.48-1.22-1.16-1.15t0,0Z"/>
      <path class="cls-2" d="M53.89,40.79c-.61,0-1.16.54-1.16,1.15l-.07,9.3c0,.61.55,1.15,1.16,1.15.68,0,1.16-.54,1.16-1.22v-.07l.07-9.23c0-.54-.48-1.09-1.16-1.09Z"/>
      <path class="cls-2" d="M32.49,60.19c-8.31-.07-15.12,6.65-15.19,14.93-.07,8.28,6.68,15.06,14.99,15.13,8.31.07,15.12-6.65,15.19-14.93s-6.68-15.06-14.99-15.13ZM32.36,86.93c-6.47-.07-11.65-5.29-11.65-11.74.07-6.45,5.31-11.6,11.79-11.6,6.47.07,11.65,5.29,11.65,11.74-.07,6.45-5.38,11.6-11.79,11.6Z"/>
      <path class="cls-2" d="M32.56,67.59c-4.22,0-7.63,3.33-7.7,7.53,0,4.21,3.41,7.67,7.63,7.67s7.7-3.39,7.7-7.6-3.41-7.53-7.63-7.6Z"/>
    </g>
  </g>
</svg>