<svg width="649" height="536" viewBox="0 0 649 536" fill="none" xmlns="http://www.w3.org/2000/svg">
<path d="M275.139 407C269.609 407 265.368 402.125 266.138 396.66C271.012 362.066 283.161 269.327 283.119 204.328C283.076 139.802 271 47.7797 266.141 13.3412C265.369 7.87537 269.61 3 275.141 3H317.807C321.517 3 324.612 5.26346 325.531 8.60742C330.743 27.5744 342.83 84.5825 342.441 204.32C342.052 323.873 330.442 381.731 325.433 401.178C324.542 404.637 321.375 407 317.58 407H275.139Z" fill="#FFFCF3" stroke="#0B21E3" stroke-width="6"/>
<path d="M298.528 381C294.503 381 291.045 378.399 290.007 374.593C282.608 347.464 260.874 262.771 260.8 204.411C260.726 146.452 282.544 62.3514 289.987 35.3782C291.033 31.5871 294.483 29 298.497 29H393.353C396.181 29 398.605 30.3215 399.835 32.5127C407.898 46.8807 429.925 96.1158 429.242 204.396C428.563 312.199 407.578 362.285 399.76 377.241C398.537 379.579 396.025 381 393.076 381H298.528Z" fill="#FFFCF3" stroke="#0B21E3" stroke-width="6"/>
<path d="M308.914 3C314.395 3 318.618 7.79223 317.922 13.2163C313.5 47.6855 302.413 140.593 302.451 205.672C302.49 270.277 313.511 362.469 317.92 396.783C318.617 402.207 314.394 407 308.912 407H272.167C268.35 407 265.189 404.625 264.327 401.153C259.538 381.858 248.656 324.797 249.008 205.679C249.36 86.6954 259.825 28.7981 264.425 9.04694C265.259 5.46883 268.485 3 272.382 3L308.914 3Z" fill="#0B21E3" stroke="#0B21E3" stroke-width="6"/>
<path d="M378.552 407C373.087 407 368.871 402.235 369.542 396.825C373.814 362.398 384.546 269.433 384.509 204.328C384.471 139.697 373.803 47.4477 369.544 13.1754C368.872 7.76532 373.088 3 378.554 3H413.322C417.176 3 420.359 5.41333 421.2 8.92844C425.847 28.3331 436.332 85.411 435.992 204.321C435.652 323.111 425.565 381.021 421.103 400.875C420.29 404.494 417.043 407 413.112 407H378.552Z" fill="#FFFCF3" stroke="#0B21E3" stroke-width="6"/>
<path d="M406.761 3C412.221 3 416.435 7.75601 415.772 13.1614C411.55 47.5747 400.936 140.558 400.974 205.672C401.01 270.312 411.561 362.58 415.77 396.838C416.434 402.244 412.22 407 406.759 407H372.65C368.784 407 365.594 404.574 364.759 401.044C360.161 381.603 349.807 324.519 350.143 205.678C350.479 86.9536 360.441 29.0395 364.856 9.15149C365.663 5.51874 368.917 3 372.859 3L406.761 3Z" fill="#0B21E3" stroke="#0B21E3" stroke-width="6"/>
<path d="M201 290C201 286.686 203.686 284 207 284C210.314 284 213 286.686 213 290V409.949C213 421.392 203.838 430.729 192.396 430.945L189.474 431C184.059 430.983 180.306 425.583 182.183 420.499L199.329 374.063C200.434 371.069 201 367.902 201 364.711V290Z" fill="#FFFCF3" stroke="#0B21E3" stroke-width="6"/>
<path d="M177 160C177 158.343 178.343 157 180 157H198C199.657 157 201 158.343 201 160V419C201 425.627 195.627 431 189 431C182.373 431 177 425.627 177 419V160Z" fill="#FFFCF3" stroke="#0B21E3" stroke-width="6"/>
<path d="M234 198C234 201 240 201 240 198C240 195 240 222 240 222C240 222 240 219.5 237 219.5C234 219.5 234 222 234 222C234 222 234 195 234 198Z" fill="#FFFCF3"/>
<path d="M113 54C113 39.0883 125.088 27 140 27H201.575C208.198 27 214.59 29.4344 219.535 33.8402L255.961 66.2919C261.711 71.415 265 78.7501 265 86.4517V267.039C265 279.022 257.102 289.572 245.603 292.946L225.292 298.907C222.823 299.632 220.262 300 217.689 300H140C125.088 300 113 287.912 113 273V54Z" fill="#FFFCF3" stroke="#0B21E3" stroke-width="6"/>
<path d="M113 54C113 39.0883 125.088 27 140 27H169.22C175.259 27 181.124 29.0247 185.877 32.7505L230.657 67.8526C237.186 72.9706 241 80.8061 241 89.1021V273C241 287.912 228.912 300 214 300H140C125.088 300 113 287.912 113 273V54Z" fill="#FFFCF3" stroke="#0B21E3" stroke-width="6"/>
<path d="M159.266 372.217C158.373 369.025 160.237 365.715 163.428 364.822C166.62 363.93 169.93 365.794 170.822 368.985L203.121 484.503C206.203 495.524 199.893 506.983 188.932 510.272L186.133 511.112C180.913 512.554 175.845 508.364 176.284 502.962L180.292 453.624C180.55 450.443 180.243 447.242 179.383 444.168L159.266 372.217Z" fill="#FFFCF3" stroke="#0B21E3" stroke-width="6"/>
<path d="M101.146 253.481C100.7 251.885 101.632 250.23 103.228 249.784L120.563 244.937C122.159 244.491 123.814 245.423 124.26 247.018L194.002 496.452C195.786 502.834 192.059 509.455 185.676 511.24C179.294 513.024 172.673 509.297 170.888 502.914L101.146 253.481Z" fill="#FFFCF3" stroke="#0B21E3" stroke-width="6"/>
<path d="M166.274 274.728C167.081 277.618 172.86 276.002 172.052 273.113C171.244 270.224 178.514 296.226 178.514 296.226C178.514 296.226 177.841 293.819 174.952 294.627C172.063 295.434 172.736 297.842 172.736 297.842C172.736 297.842 165.466 271.839 166.274 274.728Z" fill="#FFFCF3"/>
<path d="M10.9674 168.63C6.95208 154.269 15.3388 139.372 29.6997 135.356L89.0001 118.776C95.3786 116.993 102.19 117.616 108.139 120.527L151.957 141.972C158.875 145.357 164.018 151.536 166.091 158.953L214.719 332.87C217.946 344.411 213.18 356.698 203.015 363.044L185.059 374.254C182.876 375.617 180.509 376.66 178.031 377.353L103.211 398.273C88.8505 402.288 73.9536 393.901 69.9383 379.54L10.9674 168.63Z" fill="#FFFCF3" stroke="#0B21E3" stroke-width="6"/>
<path d="M10.9674 168.63C6.95208 154.269 15.3388 139.372 29.6997 135.356L57.8405 127.488C63.6567 125.862 69.8501 126.233 75.4308 128.541L128.009 150.288C135.675 153.459 141.458 159.978 143.692 167.968L193.21 345.073C197.226 359.434 188.839 374.331 174.478 378.347L103.211 398.273C88.8505 402.288 73.9536 393.901 69.9383 379.54L10.9674 168.63Z" fill="#0B21E3" stroke="#0B21E3" stroke-width="6"/>
<path d="M394.031 483.505C388.655 482.21 385.674 476.478 387.702 471.344C400.543 438.854 434.073 351.54 449.255 288.339C464.325 225.597 474.136 133.306 477.478 98.6871C478.008 93.1927 483.273 89.4461 488.65 90.7414L530.129 100.734C533.737 101.603 536.215 104.528 536.326 107.994C536.951 127.654 535.35 185.908 506.929 302.224C478.552 418.361 453.714 471.891 444.289 489.624C442.613 492.778 438.982 494.334 435.292 493.445L394.031 483.505Z" fill="#FFFCF3" stroke="#0B21E3" stroke-width="6"/>
<path d="M422.859 463.706C418.946 462.763 416.194 459.424 416.076 455.482C415.236 427.375 413.941 339.946 427.537 283.192C441.039 226.827 481.947 150.176 495.5 125.696C497.405 122.255 501.365 120.548 505.267 121.488L597.485 143.704C600.235 144.366 602.282 146.218 602.964 148.637C607.438 164.493 617.321 217.518 591.299 322.627C565.39 427.272 533.259 471.05 522.156 483.76C520.42 485.746 517.644 486.54 514.777 485.849L422.859 463.706Z" fill="#0B21E3" stroke="#0B21E3" stroke-width="6"/>
<path d="M521.484 98.6511C526.812 99.9348 529.795 105.583 527.848 110.693C515.477 143.168 482.939 230.895 467.735 294.173C452.642 356.99 441.765 449.2 438.015 483.592C437.422 489.028 432.195 492.699 426.865 491.415L391.142 482.809C387.431 481.915 384.914 478.866 384.89 475.289C384.752 455.408 387.537 397.386 415.777 281.663C443.985 166.071 467.718 112.235 476.816 94.1106C478.464 90.8272 482.179 89.1826 485.967 90.0953L521.484 98.6511Z" fill="#FFFCF3" stroke="#0B21E3" stroke-width="6"/>
<path d="M494.568 507.724C489.255 506.445 486.272 500.825 488.192 495.722C500.408 463.253 532.614 375.387 547.825 312.084C562.925 249.241 574.158 157.06 578.045 122.743C578.658 117.326 583.873 113.681 589.187 114.961L622.988 123.103C626.735 124.006 629.264 127.098 629.259 130.712C629.232 150.665 626.057 208.611 597.878 324.135C569.727 439.542 546.358 493.479 537.371 511.735C535.732 515.063 531.988 516.739 528.167 515.818L494.568 507.724Z" fill="#FFFCF3" stroke="#0B21E3" stroke-width="6"/>
<path d="M616.61 121.567C621.917 122.845 624.9 128.456 622.99 133.556C610.826 166.023 578.731 253.935 563.517 317.246C548.414 380.098 537.062 472.27 533.131 506.562C532.51 511.972 527.299 515.609 521.991 514.33L488.83 506.342C485.072 505.437 482.539 502.331 482.554 498.704C482.636 478.726 485.94 420.805 514.099 305.348C542.231 190.004 565.479 136.034 574.429 117.733C576.064 114.39 579.818 112.703 583.651 113.627L616.61 121.567Z" fill="#FFFCF3" stroke="#0B21E3" stroke-width="6"/>
</svg>
